<?xml version="1.0" encoding="utf-8" ?>
<svg baseProfile="full" height="200mm" version="1.1" viewBox="0,0,200,200" width="200mm" xmlns="http://www.w3.org/2000/svg" xmlns:ev="http://www.w3.org/2001/xml-events" xmlns:xlink="http://www.w3.org/1999/xlink"><defs /><rect fill="#1a1a1a" height="200" width="200" x="0" y="0" /><rect fill="#1a1a1a" height="200" width="180" x="10" y="0" /><text alignment-baseline="middle" fill="#e1ed5e" style="dominant-baseline: central; font-size:9.0px; font-family:Arial;" text-anchor="middle" x="100.0" y="100.0">2021</text><line stroke="#e1ed5e" stroke-width="0.3" x1="100.0" x2="100.0" y1="15.0" y2="10.0" /><path d="M 100.0 14.0 a86.0,86.0 0 0,1 42.46469731375804,11.215312516191453" fill="none" id="id25" stroke="none" /><text fill="#e1ed5e" style="font-size:6.75px; font-family:Arial;" text-anchor="middle"><textPath startOffset="22.20632615414155" xlink:href="#id25">January</textPath></text><path d="M 103.2404852339499 79.25152402106235 l 6.434741804524728 -41.20095483326964 a62.70041464139204,62.70041464139204 0 0,0 1.0649241269317615,0.17572160556576166 l -7.142995137595365 41.08408696476425" fill="red" stroke="none" /><path d="M 105.36241919743992 79.69619591428918 l 10.223103492862997 -38.707882174920485 a61.03513441332893,61.03513441332893 0 0,0 1.0134800095924916,0.2770223710507861 l -10.8878813916792 38.526173263043404" fill="red" stroke="none" /><path d="M 105.71112130821622 79.79150937346287 l 10.976480558398515 -38.83967657238311 a61.36091675985849,61.36091675985849 0 0,0 1.0139446840537811,0.295998257469238 l -11.643415460175722 38.64497998599517" fill="red" stroke="none" /><path d="M 107.76421540070413 80.48803036053334 l 13.08035984985267 -32.87178048157677 a56.37866257831985,56.37866257831985 0 0,0 0.8986117988570097,0.36656631555232344 l -13.644255518298067 32.64175327984086" fill="red" stroke="none" /><path d="M 108.09893153111575 80.62456947434976 l 19.890312080412702 -47.58446942870323 a72.57427891369305,72.57427891369305 0 0,0 1.1484576976036207,0.49170965055239635 l -20.706453535806638 47.23504025018804" fill="red" stroke="none" /><path d="M 109.08828744355905 81.06846463323043 l 17.8085356700107 -37.096419425655476 a62.14958416453552,62.14958416453552 0 0,0 0.9604440859402497,0.47128574180801147 l -18.44445102296138 36.78437852371263" fill="red" stroke="none" /><path d="M 110.05341064243156 81.56283822128135 l 19.534574270185203 -35.82486768994539 a61.80466562685541,61.80466562685541 0 0,0 0.9296478597372017,0.517348027435371 l -20.14834621899444 35.483304264949844" fill="red" stroke="none" /><path d="M 110.36928655335952 81.73862282372117 l 25.305730217198835 -44.565986467767544 a72.24945981833262,72.24945981833262 0 0,0 1.076184148037591,0.6233953214236447 l -26.069111097701757 44.12378698895385" fill="red" stroke="none" /><line stroke="#e1ed5e" stroke-width="0.3" x1="143.23703022742887" x2="145.7803849466894" y1="26.81831364943548" y2="22.513508569990506" /><path d="M 143.74570117128098 25.957352633546492 a86.0,86.0 0 0,1 28.547481713284135,27.462654790039103" fill="none" id="id26" stroke="none" /><text fill="#e1ed5e" style="font-size:6.75px; font-family:Arial;" text-anchor="middle"><textPath startOffset="19.985693538727396" xlink:href="#id26">February</textPath></text><path d="M 111.2981086023043 82.29822771554956 l 11.30612319524646 -17.714329474703142 a42.01489686970713,42.01489686970713 0 0,0 0.6062809123711471,0.3943419702069407 l -11.609371133401888 17.517088580336672" fill="red" stroke="none" /><path d="M 112.19680574252982 82.90503203632743 l 33.83961365826836 -47.429394515482926 a79.26377018908221,79.26377018908221 0 0,0 1.1038600397740015,0.8020012638614964 l -34.65101901439615 46.83987401680476" fill="red" stroke="none" /><path d="M 112.77801427241765 83.33499621200491 l 4.453895706376096 -5.808742049874801 a28.319745293742066,28.319745293742066 0 0,0 0.38429549785206785,0.29994873166772046 l -4.553223759387595 5.731214928983856" fill="red" stroke="none" /><path d="M 116.15771136456269 86.58626213691792 l 30.684632321414483 -25.473633307203784 a60.88047961810736,60.88047961810736 0 0,0 0.6624419712309042,0.8120755287087253 l -31.118572784721795 24.94167360888696" fill="red" stroke="none" /><path d="M 116.82858285166822 87.43820079747576 l 38.78073217402179 -28.948116118324354 a69.3935803051727,69.3935803051727 0 0,0 0.7062858363215944,0.9633730870026673 l -39.273280622857015 28.27628058765019" fill="red" stroke="none" /><path d="M 117.2510076193507 88.02491185347247 l 32.711742717549 -22.70742736382394 a60.820665101206686,60.820665101206686 0 0,0 0.5895999712552938,0.8651652050019555 l -33.097767154473026 22.140984135551577" fill="red" stroke="none" /><path d="M 117.45458315368197 88.32363383020206 l 19.841604382074927 -13.273180809964105 a44.87187871259349,44.87187871259349 0 0,0 0.42393960544712633,0.6456891039204999 l -20.06714062287998 12.92967364206593" fill="red" stroke="none" /><line stroke="#e1ed5e" stroke-width="0.3" x1="172.23445277983987" x2="176.4835382374775" y1="55.19839476539836" y2="52.563006222186495" /><path d="M 173.08426987136738 54.67131705675599 a86.0,86.0 0 0,1 12.851231095245387,41.99856678651699" fill="none" id="id27" stroke="none" /><text fill="#e1ed5e" style="font-size:6.75px; font-family:Arial;" text-anchor="middle"><textPath startOffset="22.20632615414155" xlink:href="#id27">March</textPath></text><path d="M 118.03404312379186 89.2402003453031 l 41.58417575080432 -24.81070921329153 a69.42328948491925,69.42328948491925 0 0,0 0.603454755329422,1.0314997895909592 l -42.00509018060407 24.091230011346674" fill="red" stroke="none" /><path d="M 118.3937258080291 89.86733742301442 l 17.631697283207956 -9.712879331511727 a41.12999687022307,41.12999687022307 0 0,0 0.33627082579939005,0.6230587695187816 l -17.79627620822581 9.407939578660487" fill="red" stroke="none" /><path d="M 118.73160827565052 90.50648371742162 l 35.62222687315243 -18.053985854571778 a60.93606706524092,60.93606706524092 0 0,0 0.4661318582871693,0.9396933825553909 l -35.927718744393005 17.438132883517437" fill="red" stroke="none" /><path d="M 118.89224826269711 90.83032412892265 l 33.11969273160867 -16.075209423230977 a57.81475797335773,57.81475797335773 0 0,0 0.42684307137100524,0.8990403668622147 l -33.39149399682144 15.502726640728222" fill="red" stroke="none" /><path d="M 119.34039704204932 91.81776055985345 l 37.13659895732381 -15.711184418855277 a61.32329721092243,61.32329721092243 0 0,0 0.4029183382733063,0.9756987153247246 l -37.401538982483316 15.069611133077249" fill="red" stroke="none" /><path d="M 119.61058180528143 92.48833698450437 l 24.357792144776166 -9.330040699953598 a47.08355224333737,47.08355224333737 0 0,0 0.28338785526675486,0.7593385605375714 l -24.514784588544547 8.909379002386693" fill="red" stroke="none" /><path d="M 119.7369772167798 92.82701384747503 l 47.25820369494611 -17.174992754658486 a71.28238451580822,71.28238451580822 0 0,0 0.4091843736148198,1.156819325569437 l -47.54684114937074 16.358975802662435" fill="red" stroke="none" /><path d="M 120.08093135843002 93.85539295169968 l 38.15934462300315 -11.676459310767633 a60.90583020177793,60.90583020177793 0 0,0 0.2981314369647024,1.0051509963686618 l -38.354681957079556 11.017878927652442" fill="red" stroke="none" /><path d="M 120.28053869075195 94.5502522615342 l 39.62150589610191 -10.647015616520815 a62.027096789966464,62.027096789966464 0 0,0 0.2682041862840347,1.0335001371255568 l -39.798906414256244 9.963419053846408" fill="red" stroke="none" /><path d="M 120.45610955862082 95.25157060432595 l 38.87391001310635 -9.02371081373243 a60.90749599457427,60.90749599457427 0 0,0 0.22827437182970992,1.023309248806378 l -39.02347877193809 8.353223395376087" fill="red" stroke="none" /><path d="M 120.6074358757038 95.95851677861258 l 38.954882672968054 -7.639742550383623 a60.696958955326146,60.696958955326146 0 0,0 0.19224829932316675,1.0269981022944001 l -39.080616696201076 6.96806637062666" fill="red" stroke="none" /><path d="M 120.73433829027371 96.67025291283417 l 39.63981834261093 -6.365796092176568 a61.14770925124327,61.14770925124327 0 0,0 0.1579477550746261,1.0406783600754874 l -39.74352199112486 5.682518619708999" fill="red" stroke="none" /><path d="M 120.94382443527127 98.46500227214037 l 62.831473305813795 -4.6049931835789 a84.0,84.0 0 0,0 0.09327763598233796,1.442963742987859 l -62.90143153280055 3.5227703763380056" fill="red" stroke="none" /><line stroke="#e1ed5e" stroke-width="0.3" x1="184.98032266829074" x2="189.97916517819016" y1="98.17113171792111" y2="98.06355123074" /><path d="M 185.9800911702706 98.14961562048488 a86.0,86.0 0 0,1 -9.607161424134198,41.387399972396054" fill="none" id="id28" stroke="none" /><text fill="#e1ed5e" style="font-size:6.75px; font-family:Arial;" text-anchor="middle"><textPath startOffset="21.466115282336823" xlink:href="#id28">April</textPath></text><path d="M 120.92983693683757 101.71520430193887 l 39.77648364062476 3.259690749731624 a60.90982629123779,60.90982629123779 0 0,0 -0.09462893683070685,1.0442224326247238 l -39.714480107516984 -3.9438945709049182" fill="red" stroke="none" /><path d="M 120.8583938346157 102.4346265915055 l 40.247960773848355 4.697809252755784 a61.52120134236538,61.52120134236538 0 0,0 -0.13182672427272493,1.0507886979246166 l -40.161132540328786 -5.3899157049677955" fill="red" stroke="none" /><path d="M 120.81339534386255 102.79330883721812 l 44.421348819816664 5.961667674569577 a65.81961303306662,65.81961303306662 0 0,0 -0.16036776012175846,1.1216117407800072 l -44.3121470086783 -6.725424887329994" fill="red" stroke="none" /><path d="M 120.70491114924044 103.5080841355445 l 12.312506045476047 2.0861382507557784 a33.487985342766486,33.487985342766486 0 0,0 -0.10118722899483983,0.5675117171053052 l -12.27477237414202 -2.297768718594302" fill="red" stroke="none" /><path d="M 120.64145759157962 103.86396538481128 l 38.41998367928962 7.192006008449172 a60.08733933567812,60.08733933567812 0 0,0 -0.19906096309034002,1.0150075622067676 l -38.29049278322362 -7.852277297723885" fill="red" stroke="none" /><path d="M 120.41448212921028 104.9243191809786 l 43.48389553726536 10.489052796075459 a65.73107867752202,65.73107867752202 0 0,0 -0.274783095574648,1.0976218751707811 l -43.29690112739566 -11.236002510643637" fill="red" stroke="none" /><path d="M 120.32669344350535 105.2749913415812 l 38.93152960214482 10.103142556687828 a61.221107477087635,61.221107477087635 0 0,0 -0.27348904099582844,1.0177544619659775 l -38.75185248480721 -10.771787951829355" fill="red" stroke="none" /><path d="M 120.23288151984713 105.62410040840565 l 40.923731612875386 11.375501579035344 a63.47533219760961,63.47533219760961 0 0,0 -0.30168121568677564,1.0501918886629893 l -40.72185776030251 -12.078250943202914" fill="red" stroke="none" /><path d="M 119.9155931802556 106.66101706037122 l 39.16195433685616 13.09820117303329 a62.294328199539194,62.294328199539194 0 0,0 -0.34887543697607004,1.013995324824593 l -38.93068806893687 -13.770369200947183" fill="red" stroke="none" /><path d="M 119.54520255179757 107.68017299344265 l 16.059440617020613 6.310463234636274 a38.254784239952336,38.254784239952336 0 0,0 -0.24610101633166975,0.610802539937752 l -15.94843698643155 -6.58596514241684" fill="red" stroke="none" /><path d="M 119.41010516605496 108.01547362559984 l 26.825548603023343 11.077708002108784 a50.022847421181,50.022847421181 0 0,0 -0.33550804653524685,0.7930419145345626 l -26.630889575295786 -11.53782444230951" fill="red" stroke="none" /><path d="M 119.12269723197855 108.67885076344098 l 41.921936668519145 19.026303018178236 a67.03747365547841,67.03747365547841 0 0,0 -0.48594310063309104,1.0466782072359726 l -41.58821895104622 -19.74510129269304" fill="red" stroke="none" /><path d="M 118.81262510543309 109.33194174019688 l 37.91698799440222 18.80859906283452 a63.32565861595188,63.32565861595188 0 0,0 -0.4927982556037842,0.9723377100888891 l -37.58761106901217 -19.458490984626106" fill="red" stroke="none" /><line stroke="#e1ed5e" stroke-width="0.3" x1="174.80103733775053" x2="179.2010983576182" y1="140.37084112569926" y2="142.7455964860345" /><path d="M 175.68104954172406 140.8457921977663 a86.0,86.0 0 0,1 -30.038265399797805,32.042727171017184" fill="none" id="id29" stroke="none" /><text fill="#e1ed5e" style="font-size:6.75px; font-family:Arial;" text-anchor="middle"><textPath startOffset="22.206326154141568" xlink:href="#id29">May</textPath></text><path d="M 117.55443506779139 111.5257021239791 l 9.339462309131846 6.132003687813745 a32.17260155250583,32.17260155250583 0 0,0 -0.30793300013866126,0.4603180543091881 l -9.232526203582465 -6.291858656328739" fill="red" stroke="none" /><path d="M 116.498646956653 112.99209946851258 l 34.54021390435741 27.199193721043667 a64.96387739535295,64.96387739535295 0 0,0 -0.6993890020263749,0.8725953160030544 l -34.06690699027618 -27.78971687062497" fill="red" stroke="none" /><path d="M 115.32070863581623 114.36230785411682 l 32.200847525224155 30.186494392274945 a65.13750134565369,65.13750134565369 0 0,0 -0.7738752307278324,0.811405085505732 l -31.676465743117358 -30.73630659436318" fill="red" stroke="none" /><path d="M 114.81725581225074 114.88116024355365 l 31.011392709663006 31.145139838020192 a64.95140741003378,64.95140741003378 0 0,0 -0.7990571046495913,0.7820455561267208 l -30.470685652637624 -31.674335497069485" fill="red" stroke="none" /><path d="M 114.29624159901734 115.38237550388516 l 30.337331005186957 32.64216081375679 a65.56303754356784,65.56303754356784 0 0,0 -0.8332763932713891,0.7611782284608224 l -29.770955062448703 -33.159531808804196" fill="red" stroke="none" /><path d="M 113.48314897796784 116.09983520530334 l 28.638050336890775 34.19586120264131 a65.60375377127579,65.60375377127579 0 0,0 -0.8719984455791403,0.7175953553597068 l -28.045181762766944 -34.6837516768582" fill="red" stroke="none" /><path d="M 112.92097659922987 116.55440617244103 l 29.17736988320697 37.38216135450205 a68.4209331501975,68.4209331501975 0 0,0 -0.9346666709742296,0.7166625470715648 l -28.529574483739246 -37.87886324340099" fill="red" stroke="none" /><path d="M 112.04921762599082 117.19931262002967 l 23.634168089352805 33.73592029795229 a62.190851164130756,62.190851164130756 0 0,0 -0.8820531837466329,0.6066842227712734 l -23.04995802098329 -34.13774531008866" fill="red" stroke="none" /><path d="M 111.7513745106137 117.40417183066458 l 22.496869298184258 33.31860273570275 a61.2024677909101,61.2024677909101 0 0,0 -0.8781834307120775,0.5820120919971234 l -21.920011168732216 -33.70091284879119" fill="red" stroke="none" /><path d="M 111.45004920935366 117.60387380957326 l 24.888278599787842 38.26447448367773 a66.64642832876063,66.64642832876063 0 0,0 -0.9670656923975403,0.617227080017719 l -24.22593110534337 -38.687215992519256" fill="red" stroke="none" /><line stroke="#e1ed5e" stroke-width="0.3" x1="143.8653032363475" x2="146.44561519142675" y1="172.8068346515853" y2="177.08958963109032" /><path d="M 144.38136562736335 173.6633856474863 a86.0,86.0 0 0,1 -40.68145358897372,12.25698825130547" fill="none" id="id30" stroke="none" /><text fill="#e1ed5e" style="font-size:6.75px; font-family:Arial;" text-anchor="middle"><textPath startOffset="21.466115282336833" xlink:href="#id30">June</textPath></text><path d="M 110.8373102113329 117.98757091392108 l 22.232738894362765 36.901496743614494 a64.08149417863663,64.08149417863663 0 0,0 -0.9497247552809246,0.5611141256722612 l -21.594246268053457 -37.27872944158051" fill="red" stroke="none" /><path d="M 110.21172684928248 118.3499491758327 l 14.455446588382529 25.97569579815204 a50.72703665466361,50.72703665466361 0 0,0 -0.7666478216996726,0.4180375191244912 l -14.006175954814207 -26.2206739690363" fill="red" stroke="none" /><path d="M 109.57404056367764 118.69057910512821 l 19.2416988481627 37.56392006558336 a63.20534403670845,63.20534403670845 0 0,0 -0.9725980923347178,0.4876808743018209 l -18.592246848145223 -37.889568780794484" fill="red" stroke="none" /><path d="M 109.2508944713604 118.85261126421891 l 9.731762959099022 19.832584249168114 a43.091595874731254,43.091595874731254 0 0,0 -0.6687145338680165,0.32102361397194784 l -9.388935757230774 -19.997162139639624" fill="red" stroke="none" /><path d="M 108.59647513512805 119.15986991738527 l 16.83749228915783 37.52749317879999 a62.131665306334604,62.131665306334604 0 0,0 -0.9795480872386432,0.4294050951806816 l -16.18902352726143 -37.81176282727513" fill="red" stroke="none" /><path d="M 107.93186726928326 119.44442032107085 l 16.29617395412655 39.94893575897629 a64.14490414658454,64.14490414658454 0 0,0 -1.0259486372453546,0.4082461359267266 l -15.606104240839331 -40.22352873930909" fill="red" stroke="none" /><path d="M 105.18746579009965 120.34920634021253 l 10.306719960766568 40.43083456525251 a62.72386439428258,62.72386439428258 0 0,0 -1.0485241220869121,0.25770171874381526 l -9.609242553936445 -40.60225754231036" fill="red" stroke="none" /><path d="M 104.13013068566511 120.58985236759428 l 11.943809848936542 59.54322035129968 a81.72931486120177,81.72931486120177 0 0,0 -1.381740648313939,0.2648138838198261 l -10.917101586050899 -59.73999143346798" fill="red" stroke="none" /><path d="M 103.41894727170886 120.7198165907248 l 4.249672968467951 25.754256348389518 a47.10251789382566,47.10251789382566 0 0,0 -0.8011109583529815,0.125117056015754 l -3.805726146506452 -25.82359171175238" fill="red" stroke="none" /><path d="M 101.98527174616119 120.90594882070398 l 3.949018136147777 41.58522439357483 a62.77230700001611,62.77230700001611 0 0,0 -1.0765620502156286,0.09289030362946626 l -3.232611768190607 -41.64703894948296" fill="red" stroke="none" /><path d="M 100.90346689309514 120.98055641714683 l 1.766912444887045 41.0317262507677 a62.06975211400521,62.06975211400521 0 0,0 -1.0678351531137766,0.03677840177128373 l -1.0603569400986161 -41.056061450965075" fill="red" stroke="none" /><line stroke="#e1ed5e" stroke-width="0.3" x1="102.19456741930631" x2="102.32365962044197" y1="184.97166512339345" y2="189.96999836594603" /><path d="M 102.22038585953345 185.97133177190398 a86.0,86.0 0 0,1 -42.740103519485714,-10.115201625700543" fill="none" id="id31" stroke="none" /><text fill="#e1ed5e" style="font-size:6.75px; font-family:Arial;" text-anchor="middle"><textPath startOffset="22.20632615414155" xlink:href="#id31">July</textPath></text><path d="M 98.37488393609728 120.93702456842531 l -2.483001435074324 31.989507213866563 a53.08572685654171,53.08572685654171 0 0,0 -0.9104345797239973,-0.07855612644750821 l 3.0332803325398627 -31.942026835140393" fill="red" stroke="none" /><path d="M 96.93821686468263 120.77559828337769 l -4.787874706393414 32.4879186849607 a53.83882769961102,53.83882769961102 0 0,0 -0.9156808761743532,-0.14301052093008718 l 5.346391446176285 -32.400689856683506" fill="red" stroke="none" /><path d="M 96.22490169976321 120.6578951692458 l -3.809883157430458 20.848243042661124 a42.19350012714135,42.19350012714135 0 0,0 -0.713336142843261,-0.13671256953023636 l 4.168186914845414 -20.779573274782422" fill="red" stroke="none" /><path d="M 94.81253420990036 120.34920634021253 l -10.211546534604095 40.05749163337607 a62.33858147767505,62.33858147767505 0 0,0 -1.037520476572481,-0.2740185877396629 l 10.899557453988065 -39.87578169633282" fill="red" stroke="none" /><path d="M 94.46302465271185 120.25689768951611 l -6.836581601887827 25.011477452811352 a46.92899636260073,46.92899636260073 0 0,0 -0.777387387937178,-0.21969744094378188 l 7.266100157929619 -24.89009121852905" fill="red" stroke="none" /><path d="M 92.40401165467489 119.57807347666478 l -14.499704753153114 37.37186948448735 a61.086133097296475,61.086133097296475 0 0,0 -0.9770259358801799,-0.38877878340403293 l 15.140851765075153 -37.11674385667725" fill="red" stroke="none" /><path d="M 90.10565033884886 118.52300852407294 l -12.90751802754576 24.16389905721598 a48.39521927779995,48.39521927779995 0 0,0 -0.7314066006375576,-0.3988211955313941 l 13.32154744005196 -23.938137209924818" fill="red" stroke="none" /><line stroke="#e1ed5e" stroke-width="0.3" x1="58.666819895761336" x2="56.23545636021788" y1="174.27360380694188" y2="178.64263932499728" /><path d="M 58.180547188652646 175.14741091055294 a86.0,86.0 0 0,1 -31.652253787137756,-30.449443065178592" fill="none" id="id32" stroke="none" /><text fill="#e1ed5e" style="font-size:6.75px; font-family:Arial;" text-anchor="middle"><textPath startOffset="22.20632615414155" xlink:href="#id32">August</textPath></text><path d="M 89.4739219176387 118.17145234162733 l -18.073574913797056 31.20089957714053 a57.05759621199731,57.05759621199731 0 0,0 -0.8456265306220401,-0.49961105966422925 l 18.60796931544748 -30.88516994518255" fill="red" stroke="none" /><path d="M 82.85270091963577 112.12312394758628 l -26.796543530679337 18.94513048771157 a53.817262445061,53.817262445061 0 0,0 -0.528278174259154,-0.7610241108683621 l 27.118682612100624 -18.481065114656197" fill="red" stroke="none" /><path d="M 82.44556493220864 111.52570212397912 l -28.67235083263802 18.825383648919033 a55.300127868549794,55.300127868549794 0 0,0 -0.5155950519661691,-0.8002149705159163 l 28.992150747981235 -18.32904707848167" fill="red" stroke="none" /><line stroke="#e1ed5e" stroke-width="0.3" x1="26.63291911575756" x2="22.317208475507996" y1="142.92168965132927" y2="145.44649492493687" /><path d="M 25.769776987707644 143.4266507060508 a86.0,86.0 0 0,1 -11.730757126820373,-40.83630448921669" fill="none" id="id33" stroke="none" /><text fill="#e1ed5e" style="font-size:6.75px; font-family:Arial;" text-anchor="middle"><textPath startOffset="21.46611528233685" xlink:href="#id33">September</textPath></text><path d="M 81.35079622478065 109.6543875284942 l -35.271174396254814 18.259309636533853 a60.71722714004389,60.71722714004389 0 0,0 -0.47249952505311243,-0.9322863889713611 l 35.580252591094194 -17.64946903585981" fill="red" stroke="none" /><path d="M 80.45479744820244 107.68017299344265 l -32.90208456168178 12.928681634734694 a56.35106755554045,56.35106755554045 0 0,0 -0.34697692314019024,-0.905847256692529 l 33.11975576441548 -12.360410811209007" fill="red" stroke="none" /><path d="M 79.86692584326677 105.97154293290107 l -37.698084044443945 11.181388674527048 a60.32135543585446,60.32135543585446 0 0,0 -0.2866912107385098,-0.9980097149341827 l 37.88496789206856 -10.53082148408827" fill="red" stroke="none" /><path d="M 79.1416061653843 102.43462659150553 l -38.86466669996915 4.536348856387762 a60.128516182530376,60.128516182530376 0 0,0 -0.11114526725536128,-1.0290671369338962 l 38.93699426872556 -3.8666853975690834" fill="red" stroke="none" /><path d="M 79.07016306316243 101.71520430193888 l -59.346726009302635 4.863476006255228 a80.54567395610414,80.54567395610414 0 0,0 -0.10134732812479477,-1.382803771435656 l 59.421649896091765 -3.841199098322811" fill="red" stroke="none" /><line stroke="#e1ed5e" stroke-width="0.3" x1="15.007084014347285" x2="10.007500721073583" y1="101.09737516637583" y2="101.16192664675087" /><path d="M 14.007167355692545 101.11028546245083 a86.0,86.0 0 0,1 10.666146001902534,-42.60595125391555" fill="none" id="id34" stroke="none" /><text fill="#e1ed5e" style="font-size:6.75px; font-family:Arial;" text-anchor="middle"><textPath startOffset="22.20632615414155" xlink:href="#id34">October</textPath></text><path d="M 79.21141760316559 97.0276538004421 l -31.18070359476834 -4.458209033222197 a52.49780793084978,52.49780793084978 0 0,0 0.13560460417162193,-0.8934649119978658 l 31.099343097157416 4.994273057612154" fill="red" stroke="none" /><path d="M 79.32604984820605 96.31383870115002 l -36.671960743568945 -6.53860348183919 a58.250315975446185,58.250315975446185 0 0,0 0.18449893329183933,-0.9856006790861026 l 36.55397608636724 7.168882238387865" fill="red" stroke="none" /><path d="M 79.54389044137918 95.25157060432595 l -38.59366710024332 -8.958658674587648 a60.61980193655905,60.61980193655905 0 0,0 0.2446938504241023,-1.0144139835423405 l 38.43374044955841 9.621657889789384" fill="red" stroke="none" /><path d="M 79.71946130924805 94.55025226153421 l -38.387063126391375 -10.31529850608905 a60.748861603060774,60.748861603060774 0 0,0 0.28006159410521525,-1.0075305631672897 l 38.2038147617198 10.974540372675282" fill="red" stroke="none" /><path d="M 79.91906864156998 93.8553929516997 l -36.28044386997668 -11.101530458911519 a58.94093549100587,58.94093549100587 0 0,0 0.3052144531532827,-0.9676132238664625 l 36.08397393305519 11.724393849204395" fill="red" stroke="none" /><path d="M 80.38941819471856 92.48833698450439 l -36.70049203571862 -14.057804679764962 a60.300737754885304,60.300737754885304 0 0,0 0.3796260227661176,-0.9661068201500367 l 36.45307246307081 14.687460504810762" fill="red" stroke="none" /><path d="M 80.95270993114464 91.15688171328213 l -35.815518570098156 -16.628132719698314 a60.48729122374625,60.48729122374625 0 0,0 0.44657423242617095,-0.9405992241178196 l 35.523986143830236 17.242174359456666" fill="red" stroke="none" /><path d="M 81.6062741919709 89.86733742301443 l -35.61065356105615 -19.617055317993493 a61.65645713038432,61.65645713038432 0 0,0 0.5200938212204005,-0.9251888743230062 l 35.26770209854332 20.227127702251284" fill="red" stroke="none" /><line stroke="#e1ed5e" stroke-width="0.3" x1="26.266209847984243" x2="21.928928074336255" y1="57.711370442889674" y2="55.22380399835377" /><path d="M 25.398753493254645 57.213857153982495 a86.0,86.0 0 0,1 29.58750427330803,-30.492523968695096" fill="none" id="id35" stroke="none" /><text fill="#e1ed5e" style="font-size:6.75px; font-family:Arial;" text-anchor="middle"><textPath startOffset="21.46611528233685" xlink:href="#id35">November</textPath></text><path d="M 83.6137871275137 86.86637796730984 l -31.37603698110292 -25.1480323000948 a61.2104367696516,61.2104367696516 0 0,0 0.6660322429775247,-0.8164767773515683 l 30.938506246049005 25.68439324705445" fill="red" stroke="none" /><path d="M 84.07557802195018 86.31012108654704 l -9.0984388428227 -7.82172980792573 a32.9983768304208,32.9983768304208 0 0,0 0.3739943892554534,-0.42754023838622535 l 8.962452589989402 7.977185602514899" fill="red" stroke="none" /><path d="M 85.83668400450813 84.49514656593479 l -23.654053792708886 -25.89454597314511 a56.071951356941796,56.071951356941796 0 0,0 0.7182256580509765,-0.6448300872829632 l 23.20481714706194 26.297875069197353" fill="red" stroke="none" /><path d="M 87.22198572758235 83.33499621200491 l -10.62098356959477 -13.851818259555094 a38.455032543119074,38.455032543119074 0 0,0 0.5287637406748531,-0.39825388705432835 l 10.380973675161526 14.032588736115276" fill="red" stroke="none" /><path d="M 88.39885842347998 82.49532879139004 l -21.95521191063422 -33.127667934752736 a60.74259318207733,60.74259318207733 0 0,0 0.8765242225495226,-0.5701157364536731 l 21.38172066230041 33.500682595365944" fill="red" stroke="none" /><path d="M 89.00827224532344 82.1063720568725 l -12.2620983216543 -19.9616866489782 a44.427078117467225,44.427078117467225 0 0,0 0.6550623177276022,-0.39466771688858543 l 11.916673937709048 20.169800975325405" fill="red" stroke="none" /><line stroke="#e1ed5e" stroke-width="0.3" x1="56.762969772571076" x2="54.21961505331055" y1="26.818313649435495" y2="22.513508569990535" /><path d="M 56.25429882871897 25.957352633546506 a86.0,86.0 0 0,1 42.265352541879196,-11.944610805530505" fill="none" id="id36" stroke="none" /><text fill="#e1ed5e" style="font-size:6.75px; font-family:Arial;" text-anchor="middle"><textPath startOffset="22.20632615414155" xlink:href="#id36">December</textPath></text><path d="M 90.58718382345135 81.22770947309562 l -18.034828497351544 -35.967454777100976 a61.23571600048503,61.23571600048503 0 0,0 0.9463213965403233,-0.46435579945363276 l 17.413035833800794 36.27256573668944" fill="red" stroke="none" /><path d="M 92.57280143429618 80.3572730644239 l -14.51062505938915 -38.37627918314571 a62.0280031631679,62.0280031631679 0 0,0 1.0019521414276915,-0.369027429509776 l 13.84789059218889 38.62036988046181" fill="red" stroke="none" /><path d="M 95.33964822691252 79.52364482259891 l -9.465533851985166 -41.58905647771653 a63.65261949528742,63.65261949528742 0 0,0 1.0704469381641994,-0.23395823980361802 l 8.748244189667446 41.745828215616015" fill="red" stroke="none" /><path d="M 98.55514903715128 79.0497635885617 l -1.6404871748176657 -23.786947599495228 a44.84344929476172,44.84344929476172 0 0,0 0.7705342079279082,-0.04648072765985555 l 1.2307909180501344 23.81166159653539" fill="red" stroke="none" /></svg>