<?xml version="1.0" encoding="utf-8" ?>
<svg baseProfile="full" height="200mm" version="1.1" viewBox="0,0,200,200" width="200mm" xmlns="http://www.w3.org/2000/svg" xmlns:ev="http://www.w3.org/2001/xml-events" xmlns:xlink="http://www.w3.org/1999/xlink"><defs /><rect fill="#1a1a1a" height="200" width="200" x="0" y="0" /><rect fill="#1a1a1a" height="200" width="180" x="10" y="0" /><text alignment-baseline="middle" fill="#e1ed5e" style="dominant-baseline: central; font-size:9.0px; font-family:Arial;" text-anchor="middle" x="100.0" y="100.0">2020</text><line stroke="#e1ed5e" stroke-width="0.3" x1="100.0" x2="100.0" y1="15.0" y2="10.0" /><path d="M 100.0 14.0 a86.0,86.0 0 0,1 42.35913384403234,11.155469271406648" fill="none" id="id1" stroke="none" /><text fill="#e1ed5e" style="font-size:6.75px; font-family:Arial;" text-anchor="middle"><textPath startOffset="22.145653131862478" xlink:href="#id1">January</textPath></text><line stroke="#e1ed5e" stroke-width="0.3" x1="143.13028292997686" x2="145.6673583964461" y1="26.7553504044142" y2="22.446841604673864" /><path d="M 143.63769802327073 25.89364864446614 a86.0,86.0 0 0,1 29.32050498858742,28.57503671076993" fill="none" id="id2" stroke="none" /><text fill="#e1ed5e" style="font-size:6.75px; font-family:Arial;" text-anchor="middle"><textPath startOffset="20.669276256404974" xlink:href="#id2">February</textPath></text><line stroke="#e1ed5e" stroke-width="0.3" x1="172.87174338648825" x2="177.1583165268699" y1="56.24261187166439" y2="53.66864786411523" /><path d="M 173.72905801456457 55.72781907015455 a86.0,86.0 0 0,1 12.242430191666344,42.057860355516425" fill="none" id="id3" stroke="none" /><text fill="#e1ed5e" style="font-size:6.75px; font-family:Arial;" text-anchor="middle"><textPath startOffset="22.145653131862474" xlink:href="#id3">March</textPath></text><line stroke="#e1ed5e" stroke-width="0.3" x1="184.99686870605535" x2="189.99668451229388" y1="99.2704041080226" y2="99.22748670261217" /><path d="M 185.99683186730306 99.26182062694052 a86.0,86.0 0 0,1 -10.086455211305974,41.156179273409016" fill="none" id="id4" stroke="none" /><text fill="#e1ed5e" style="font-size:6.75px; font-family:Arial;" text-anchor="middle"><textPath startOffset="21.40746469413373" xlink:href="#id4">April</textPath></text><line stroke="#e1ed5e" stroke-width="0.3" x1="174.33088141563837" x2="178.70328620479359" y1="141.23008692659167" y2="143.65538615756765" /><path d="M 175.20536237346943 141.71514677278685 a86.0,86.0 0 0,1 -30.301960400862466,31.631185727798858" fill="none" id="id5" stroke="none" /><text fill="#e1ed5e" style="font-size:6.75px; font-family:Arial;" text-anchor="middle"><textPath startOffset="22.145653131862474" xlink:href="#id5">May</textPath></text><line stroke="#e1ed5e" stroke-width="0.3" x1="143.1302829299769" x2="145.66735839644613" y1="173.24464959558577" y2="177.55315839532614" /><path d="M 143.63769802327073 174.10635135553383 a86.0,86.0 0 0,1 -40.68552437913181,11.842963189579606" fill="none" id="id6" stroke="none" /><text fill="#e1ed5e" style="font-size:6.75px; font-family:Arial;" text-anchor="middle"><textPath startOffset="21.407464694133747" xlink:href="#id6">June</textPath></text><line stroke="#e1ed5e" stroke-width="0.3" x1="101.45913802915013" x2="101.54496967792366" y1="184.9874750549273" y2="189.98673829345242" /><path d="M 101.47630435890484 185.9873277026323 a86.0,86.0 0 0,1 -42.54439059252881,-10.42667462771756" fill="none" id="id7" stroke="none" /><text fill="#e1ed5e" style="font-size:6.75px; font-family:Arial;" text-anchor="middle"><textPath startOffset="22.145653131862474" xlink:href="#id7">July</textPath></text><line stroke="#e1ed5e" stroke-width="0.3" x1="58.13341422392154" x2="55.67067388415222" y1="173.97424548756322" y2="178.32567169271397" /><path d="M 57.64086615596768 174.84453072859336 a86.0,86.0 0 0,1 -31.369924170532247,-30.572349798747897" fill="none" id="id8" stroke="none" /><text fill="#e1ed5e" style="font-size:6.75px; font-family:Arial;" text-anchor="middle"><textPath startOffset="22.145653131862474" xlink:href="#id8">August</textPath></text><line stroke="#e1ed5e" stroke-width="0.3" x1="26.387840678322732" x2="22.057713659400548" y1="142.50000000000003" y2="145.00000000000006" /><path d="M 25.521815274538298 143.00000000000003 a86.0,86.0 0 0,1 -11.493303480769221,-40.785679425670985" fill="none" id="id9" stroke="none" /><text fill="#e1ed5e" style="font-size:6.75px; font-family:Arial;" text-anchor="middle"><textPath startOffset="21.40746469413373" xlink:href="#id9">September</textPath></text><line stroke="#e1ed5e" stroke-width="0.3" x1="15.003131293944662" x2="10.003315487706104" y1="100.72959589197737" y2="100.7725132973878" /><path d="M 14.003168132696942 100.73817937305945 a86.0,86.0 0 0,1 10.791469493833604,-42.45332614584628" fill="none" id="id10" stroke="none" /><text fill="#e1ed5e" style="font-size:6.75px; font-family:Arial;" text-anchor="middle"><textPath startOffset="22.145653131862435" xlink:href="#id10">October</textPath></text><line stroke="#e1ed5e" stroke-width="0.3" x1="26.387840678322718" x2="22.05771365940052" y1="57.49999999999999" y2="54.99999999999999" /><path d="M 25.521815274538284 56.99999999999999 a86.0,86.0 0 0,1 29.574782752854787,-30.34633250058573" fill="none" id="id11" stroke="none" /><text fill="#e1ed5e" style="font-size:6.75px; font-family:Arial;" text-anchor="middle"><textPath startOffset="21.40746469413373" xlink:href="#id11">November</textPath></text><path d="M 82.37810715431573 88.57770195909679 l -28.896953227129288 -18.730655958740954 a55.43648324750389,55.43648324750389 0 0,0 0.5244702101647353,-0.7941147445223202 l 28.571158578043825 19.223950581602335" fill="#ff2303" stroke="none" /><path d="M 83.8745106332314 86.54754324733833 l -29.54200490847935 -24.6449911924673 a59.47214115290971,59.47214115290971 0 0,0 0.6607225643260046,-0.7783295194127765 l 29.11458778064623 25.148487494329633" fill="#ff970d" stroke="none" /><path d="M 87.83215693770416 82.88440491214696 l -31.92076490073265 -44.90055337978749 a76.09078802902525,76.09078802902525 0 0,0 1.0710862122779214,-0.747701360917265 l 31.145283597280965 45.44189955650988" fill="#39ff85" stroke="none" /><path d="M 88.12776184653039 82.6780497279521 l -23.699799102014747 -34.578715166916574 a62.920973510530565,62.920973510530565 0 0,0 0.8961855587405095,-0.6029936394113454 l 23.10271725517725 34.98045848038503" fill="#fff216" stroke="none" /><line stroke="#e1ed5e" stroke-width="0.3" x1="56.869717070023135" x2="54.33264160355391" y1="26.7553504044142" y2="22.446841604673864" /><path d="M 56.362301976729285 25.89364864446614 a86.0,86.0 0 0,1 42.16139366436587,-11.88097634709845" fill="none" id="id12" stroke="none" /><text fill="#e1ed5e" style="font-size:6.75px; font-family:Arial;" text-anchor="middle"><textPath startOffset="22.145653131862474" xlink:href="#id12">December</textPath></text><path d="M 90.28995756902619 81.37971332152246 l -23.814262048381963 -45.66698750592261 a72.50332828832616,72.50332828832616 0 0,0 1.1085164308831,-0.5660163881011978 l 23.02681839578528 46.069061845696645" fill="#30ff2f" stroke="none" /><path d="M 90.61103034731259 81.2157712731953 l -14.879340256417047 -29.76864778772508 a54.28013157389649,54.28013157389649 0 0,0 0.8370506799482668,-0.40944343270717826 l 14.366129327206727 30.01968497052947" fill="#ff0000" stroke="none" /><path d="M 91.92203290615298 80.6158196554323 l -19.574474136493823 -46.97161209048342 a71.88705513290304,71.88705513290304 0 0,0 1.1431600647518947,-0.4649132463826334 l 18.765259610551485 47.30071259344535" fill="#3dff2e" stroke="none" /><path d="M 93.27111125876988 80.10723608172694 l -16.79206309364064 -49.64275078227436 a73.4058783742035,73.4058783742035 0 0,0 1.1971354412456494,-0.3935221976686947 l 15.937404914747228 49.92369390134508" fill="#32ff45" stroke="none" /><path d="M 94.30408787586887 79.78721728523814 l -14.00671502643197 -49.70489031553423 a72.64072217844134,72.64072217844134 0 0,0 1.20313305824756,-0.32791926512043185 l 13.151400567249732 49.9380100747988" fill="#30ff32" stroke="none" /><path d="M 95.35216902796891 79.52079915486377 l -13.943492916093277 -61.43760253540869 a84.0,84.0 0 0,0 1.4089503335235265,-0.3070741674651436 l 12.886780165950631 61.667908161007546" fill="#4dd2ff" stroke="none" /><path d="M 95.70440661134978 79.44403061299748 l -6.813952637826165 -32.60723005061999 a54.311580600814985,54.311580600814985 0 0,0 0.9142540294645582,-0.18287641107033345 l 6.253202122830629 32.71939585835319" fill="#ff0100" stroke="none" /><path d="M 96.76829788921471 79.25015418208739 l -7.353022773546488 -47.211680908799664 a68.7808513752383,68.7808513752383 0 0,0 1.1682096619274591,-0.17168659079423423 l 6.5414880060113445 47.33094857289278" fill="#7fff26" stroke="none" /><path d="M 97.84075906011542 79.11130261209362 l -4.939947410156209 -47.789510034225664 a69.0441500052448,69.0441500052448 0 0,0 1.1799988372663257,-0.11174711672928726 l 4.118849009504867 47.86726890646013" fill="#7aff26" stroke="none" /></svg>