<?xml version="1.0" encoding="utf-8" ?>
<svg baseProfile="full" height="200mm" version="1.1" viewBox="0,0,200,200" width="200mm" xmlns="http://www.w3.org/2000/svg" xmlns:ev="http://www.w3.org/2001/xml-events" xmlns:xlink="http://www.w3.org/1999/xlink"><defs /><rect fill="#1a1a1a" height="200" width="200" x="0" y="0" /><rect fill="#1a1a1a" height="200" width="180" x="10" y="0" /><text alignment-baseline="middle" fill="#e1ed5e" style="dominant-baseline: central; font-size:9.0px; font-family:Arial;" text-anchor="middle" x="100.0" y="100.0">2024</text><line stroke="#e1ed5e" stroke-width="0.3" x1="100.0" x2="100.0" y1="15.0" y2="10.0" /><path d="M 100.0 14.0 a86.0,86.0 0 0,1 42.35913384403234,11.155469271406648" fill="none" id="id49" stroke="none" /><text fill="#e1ed5e" style="font-size:6.75px; font-family:Arial;" text-anchor="middle"><textPath startOffset="22.145653131862478" xlink:href="#id49">January</textPath></text><path d="M 103.58742460773223 79.30868818359171 l 5.238035518271547 -30.21159691561892 a51.662315703196796,51.662315703196796 0 0,0 0.8725156649639941,0.15900141918247032 l -5.755885916786594 30.117227322505084" fill="#96ff23" stroke="none" /><path d="M 104.64783097203109 79.52079915486377 l 5.8889074795055185 -25.94761293105217 a47.60747729721632,47.60747729721632 0 0,0 0.7954253821500767,0.18771822435638985 l -6.333465015395481 25.842698563049552" fill="#c6ff1e" stroke="none" /><path d="M 105.3480935250658 79.69241777938227 l 8.672540296918855 -32.93104810449873 a55.05388207624045,55.05388207624045 0 0,0 0.9118459112792657,0.24852765791782233 l -9.236567609132814 32.77731995243676" fill="#70ff27" stroke="none" /><path d="M 106.38641147887787 79.99465700312896 l 13.240409490389416 -41.475394147451205 a64.53753280974502,64.53753280974502 0 0,0 1.0525065502690705,0.34597980850989984 l -13.950438778306228 41.241993417539284" fill="#34ff59" stroke="none" /><path d="M 107.40779381753099 80.34994680014964 l 21.077430056756036 -55.91038737487762 a80.75139725735556,80.75139725735556 0 0,0 1.2928980762060551,0.5001207504905417 l -22.034100395455617 55.54032673624904" fill="#49f1ff" stroke="none" /><path d="M 108.07796709384702 80.6158196554323 l 5.795581430026818 -13.907285624725878 a36.06656422545561,36.06656422545561 0 0,0 0.5694479836320975,0.24306348274234757 l -6.033464488829346 13.805747492324128" fill="#ffa30f" stroke="none" /><path d="M 109.06512990194946 81.05736502329252 l 11.990852625697933 -25.056270213981634 a48.777638915632664,48.777638915632664 0 0,0 0.7521970680011133,0.36793727903510565 l -12.419209942961114 24.84673918484931" fill="#b8ff1f" stroke="none" /><path d="M 110.34350942703115 81.72400993836675 l 22.415426282448827 -39.60591043642444 a66.50911421816483,66.50911421816483 0 0,0 0.9887926864211521,0.5708797236779855 l -23.092011436730374 39.215283815470286" fill="#36ff71" stroke="none" /><line stroke="#e1ed5e" stroke-width="0.3" x1="143.13028292997686" x2="145.6673583964461" y1="26.7553504044142" y2="22.446841604673864" /><path d="M 143.63769802327073 25.89364864446614 a86.0,86.0 0 0,1 29.32050498858742,28.57503671076993" fill="none" id="id50" stroke="none" /><text fill="#e1ed5e" style="font-size:6.75px; font-family:Arial;" text-anchor="middle"><textPath startOffset="20.669276256404974" xlink:href="#id50">February</textPath></text><path d="M 112.16784306229584 82.88440491214696 l 9.017172279186658 -12.683782062098015 a36.56238167220338,36.56238167220338 0 0,0 0.5084242740113422,0.36805996582223927 l -9.233577563571968 12.527121324902701" fill="#ffaa0f" stroke="none" /><path d="M 114.13192950727249 84.46653392183569 l 6.96045587393232 -7.650760297852256 a31.34321415751174,31.34321415751174 0 0,0 0.3948800636861073,0.36549509173081574 l -7.090765708932392 7.530147459989065" fill="#ff6108" stroke="none" /><path d="M 114.65682725009322 84.96080404539774 l 10.651023317841217 -10.9288882280463 a36.260566687326076,36.260566687326076 0 0,0 0.44204752631532357,0.43826936503238656 l -10.837062764286504 10.744438852785255" fill="#ffa60f" stroke="none" /><path d="M 115.16444852881244 85.47280134310134 l 10.974892151021544 -10.513698418574373 a36.198227270418336,36.198227270418336 0 0,0 0.42600860471299606,0.4524063753329224 l -11.1537565894708 10.323750583296956" fill="#ffa50f" stroke="none" /><path d="M 115.6541949942343 86.00192230759917 l 11.223336572523463 -10.035976769678125 a36.0560324634899,36.0560324634899 0 0,0 0.4086160382790711,0.4649300429500157 l -11.393963674761125 9.841834448916812" fill="#ffa30f" stroke="none" /><path d="M 116.35404254752997 86.82634096563983 l 17.022356754962207 -13.712005652387079 a42.85817303674538,42.85817303674538 0 0,0 0.4566100966520345,0.5769119408448384 l -17.255233282255798 13.417773767627562" fill="#fffd17" stroke="none" /><path d="M 116.7966241395341 87.39550010848427 l 8.472088965934098 -6.35761350405439 a31.592239655221036,31.592239655221036 0 0,0 0.32178648852740727,0.43656517257194266 l -8.579977474045332 6.211242022213573" fill="#ff6409" stroke="none" /><path d="M 117.21940702142032 87.97951657250589 l 6.880696636075436 -4.803260633811134 a29.391382419722007,29.391382419722007 0 0,0 0.2852507326821415,0.4161893438046737 l -6.962137105572903 4.684436554936412" fill="#ff4406" stroke="none" /><line stroke="#e1ed5e" stroke-width="0.3" x1="172.87174338648825" x2="177.1583165268699" y1="56.24261187166439" y2="53.66864786411523" /><path d="M 173.72905801456457 55.72781907015455 a86.0,86.0 0 0,1 12.242430191666344,42.057860355516425" fill="none" id="id51" stroke="none" /><text fill="#e1ed5e" style="font-size:6.75px; font-family:Arial;" text-anchor="middle"><textPath startOffset="22.145653131862474" xlink:href="#id51">March</textPath></text><path d="M 118.53625476483649 90.13048839642627 l 23.619430775043185 -12.576016517981392 a47.75880605702724,47.75880605702724 0 0,0 0.37909560024271355,0.726965799093924 l -23.831834444260842 12.168704475782969" fill="#c4ff1e" stroke="none" /><path d="M 119.0197475246899 91.09779779509293 l 38.87265230073978 -18.194364072026445 a63.91990192066679,63.91990192066679 0 0,0 0.45661801395435503,0.9977927669214924 l -39.17925477954919 17.52438232289027" fill="#33ff51" stroke="none" /><path d="M 119.31412917781788 91.75594674310238 l 24.78277116350234 -10.578291335033038 a47.945982893770235,47.945982893770235 0 0,0 0.3166127945553243,0.7597554480919687 l -24.960709802594145 10.15130337749979" fill="#c2ff1e" stroke="none" /><path d="M 119.58574465831526 92.42381321644754 l 14.521314959875488 -5.617156579854777 a36.56987592135883,36.56987592135883 0 0,0 0.2214555292338074,0.5874371017922968 l -14.615601172923736 5.367051197868323" fill="#ffaa0f" stroke="none" /><path d="M 119.83427380445688 93.10060997987247 l 15.971288817362877 -5.555643315276153 a37.90997454564001,37.90997454564001 0 0,0 0.20853117751628478,0.6164853727649152 l -16.06430541645153 5.280656268037076" fill="#ffbc11" stroke="none" /><path d="M 120.51834098615036 95.52812308129327 l 10.048835559025196 -2.1900969394463363 a31.28472754605106,31.28472754605106 0 0,0 0.10985749645151402,0.5257078893818933 l -10.084950766301077 2.0172725987790385" fill="#ff6008" stroke="none" /><path d="M 120.65975698304385 96.23510406497455 l 12.873248022807397 -2.3459346202097167 a34.08525597376731,34.08525597376731 0 0,0 0.09995936714135097,0.576539066503197 l -12.911622207440983 2.1246025207859267" fill="#ff880c" stroke="none" /><path d="M 120.9064616781168 98.02013634271609 l 32.23264480271259 -3.0524649749713326 a53.376857991492344,53.376857991492344 0 0,0 0.0785564434425796,0.9129449498934402 l -32.28029486885291 2.4986989777022304" fill="#83ff25" stroke="none" /><path d="M 120.96210409425399 98.7389718711861 l 29.519705471216817 -1.7758321772531538 a50.573072059377864,50.573072059377864 0 0,0 0.04469313493906039,0.8670348779508182 l -29.54584019561245 1.2688255059256048" fill="#a3ff21" stroke="none" /><path d="M 120.98066250479742 99.09900007780936 l 23.83562407495045 -1.023604256156596 a44.857592936329084,44.857592936329084 0 0,0 0.02643460729309746,0.7696147486520073 l -23.849683369240395 0.6142832429404685" fill="#e8ff1a" stroke="none" /><line stroke="#e1ed5e" stroke-width="0.3" x1="184.99686870605535" x2="189.99668451229388" y1="99.2704041080226" y2="99.22748670261217" /><path d="M 185.99683186730306 99.26182062694052 a86.0,86.0 0 0,1 -10.086455211305974,41.156179273409016" fill="none" id="id52" stroke="none" /><text fill="#e1ed5e" style="font-size:6.75px; font-family:Arial;" text-anchor="middle"><textPath startOffset="21.40746469413373" xlink:href="#id52">April</textPath></text><path d="M 120.99303781780057 100.54070618675476 l 15.184375903404685 0.3910956605822432 a36.18941168681734,36.18941168681734 0 0,0 -0.02132644271544624,0.6208961104700308 l -15.175424773692393 -0.6516980356163846" fill="#ffa50f" stroke="none" /><path d="M 120.93736805541906 101.62068470465957 l 62.812104166257186 4.86205411397871 a84.0,84.0 0 0,0 -0.12362550920903681,1.4367158104973705 l -62.7193850343504 -5.939590971851738" fill="#4dd2ff" stroke="none" /><path d="M 120.65975698304385 103.76489593502545 l 28.49103784795039 5.19201618230269 a49.960253273937965,49.960253273937965 0 0,0 -0.16099978940808451,0.8424189302184468 l -28.397711766260148 -5.680337677554451" fill="#aaff21" stroke="none" /><path d="M 120.51834098615036 104.47187691870673 l 34.16149269726905 7.445338334351739 a55.9634186860858,55.9634186860858 0 0,0 -0.2126320457738338,0.9368960269249248 l -34.028649789937546 -8.030668695215681" fill="#66ff29" stroke="none" /><path d="M 120.16314734710363 105.8691983318838 l 27.64992351609604 8.04848976123248 a49.7975078415238,49.7975078415238 0 0,0 -0.24596098895099797,0.8187241377416309 l -27.50768620714141 -8.521951502564834" fill="#acff20" stroke="none" /><line stroke="#e1ed5e" stroke-width="0.3" x1="174.33088141563837" x2="178.70328620479359" y1="141.23008692659167" y2="143.65538615756765" /><path d="M 175.20536237346943 141.71514677278685 a86.0,86.0 0 0,1 -30.301960400862466,31.631185727798858" fill="none" id="id53" stroke="none" /><text fill="#e1ed5e" style="font-size:6.75px; font-family:Arial;" text-anchor="middle"><textPath startOffset="22.145653131862474" xlink:href="#id53">May</textPath></text><path d="M 116.1254893667686 113.45245675266167 l 11.44229658874168 9.545570773708631 a35.90114333266444,35.90114333266444 0 0,0 -0.3988539007533773,0.46984889218361015 l -11.276748124481188 -9.740586448341798" fill="#ffa10e" stroke="none" /><path d="M 114.65682725009322 115.03919595460226 l 6.183373944395921 6.3446863924633305 a29.85941074535681,29.85941074535681 0 0,0 -0.3701536272793013,0.3545988017197716 l -6.073547831251308 -6.449897324488683" fill="#ff4b07" stroke="none" /><path d="M 114.39649973595853 115.28858382429668 l 21.25531170004952 22.572404445372975 a52.00486603602337,52.00486603602337 0 0,0 -0.6551875857112953,0.6064318479516698 l -20.864694343024258 -22.933954039457024" fill="#93ff23" stroke="none" /><path d="M 113.31354834802062 116.24036423190432 l 11.05232207601263 13.482035850303431 a38.4332760530195,38.4332760530195 0 0,0 -0.5138148878385307,0.41389290259521344 l -10.819256417818846 -13.669777046692047" fill="#ffc312" stroke="none" /><path d="M 113.03279911837588 116.46651593811092 l 6.321488201389619 7.986993835728988 a31.18593557864377,31.18593557864377 0 0,0 -0.4226289110918267,0.3286387975131218 l -6.183449345662562 -8.094333684862903" fill="#ff5e08" stroke="none" /><path d="M 111.8722381534696 117.32195027204791 l 16.77140361554792 24.469979094553853 a50.6658028059838,50.6658028059838 0 0,0 -0.7216347469435723,0.48554806327913647 l -16.348872580507344 -24.75427683189011" fill="#a2ff22" stroke="none" /><path d="M 110.96478420261333 117.91015095944535 l 16.880837939766707 27.57358013038646 a53.33055846649591,53.33055846649591 0 0,0 -0.784891842690112,0.4713049997610484 l -16.405013340519158 -27.859299130683432" fill="#84ff25" stroke="none" /><line stroke="#e1ed5e" stroke-width="0.3" x1="143.1302829299769" x2="145.66735839644613" y1="173.24464959558577" y2="177.55315839532614" /><path d="M 143.63769802327073 174.10635135553383 a86.0,86.0 0 0,1 -40.68552437913181,11.842963189579606" fill="none" id="id54" stroke="none" /><text fill="#e1ed5e" style="font-size:6.75px; font-family:Arial;" text-anchor="middle"><textPath startOffset="21.407464694133747" xlink:href="#id54">June</textPath></text><path d="M 107.407793817531 119.65005319985036 l 10.95414238441715 29.057164105071568 a52.05337374919421,52.05337374919421 0 0,0 -0.8388298271299813,0.308029931525907 l -10.453723405633042 -29.240924885606198" fill="#92ff23" stroke="none" /><path d="M 106.0420521117495 120.11202640906438 l 9.051969120431588 30.131061208513984 a52.46138894754113,52.46138894754113 0 0,0 -0.8647135486069332,0.2517055115291878 l -8.533395559443049 -30.28201041434569" fill="#8dff24" stroke="none" /><path d="M 104.64783097203109 120.47920084513623 l 3.729875712770919 16.43452059872381 a37.85246095211603,37.85246095211603 0 0,0 -0.6349075890853274,0.13837515396877598 l -3.447205707066456 -16.496127210826305" fill="#ffbb11" stroke="none" /><path d="M 103.94208987418118 120.62667999033965 l 1.9005512815763639 9.944487401735952 a31.124471584096952,31.124471584096952 0 0,0 -0.5256556670217284,0.09579197304293188 l -1.7295608810035783 -9.975647548710247" fill="#ff5e08" stroke="none" /><path d="M 102.875027216393 120.80226474461374 l 4.026920821886574 29.13679305880754 a50.41375190378675,50.41375190378675 0 0,0 -0.8582873517761862,0.11112248119883819 l -3.5261556482196124 -29.201627136206774" fill="#a5ff21" stroke="none" /><path d="M 101.80034050326958 120.92268563240118 l 1.9116211887188699 22.215935878332562 a43.29802911737589,43.29802911737589 0 0,0 -0.7410787680909298,0.05736418355993255 l -1.5299734258527042 -22.24547782888755" fill="#fcff18" stroke="none" /><line stroke="#e1ed5e" stroke-width="0.3" x1="101.45913802915013" x2="101.54496967792366" y1="184.9874750549273" y2="189.98673829345242" /><path d="M 101.47630435890484 185.9873277026323 a86.0,86.0 0 0,1 -42.54439059252881,-10.42667462771756" fill="none" id="id55" stroke="none" /><text fill="#e1ed5e" style="font-size:6.75px; font-family:Arial;" text-anchor="middle"><textPath startOffset="22.145653131862474" xlink:href="#id55">July</textPath></text><path d="M 100.36049292484886 120.99690560180557 l 0.19489519258334737 11.35166789371528 a32.35334083454286,32.35334083454286 0 0,0 -0.5553881174321982,0.00476733902201651 l -1.3903832512651857e-15 -11.353340834542863" fill="#ff6f0a" stroke="none" /><path d="M 99.27912038922189 120.98762331915562 l -0.41282493800292563 12.018947638437382 a33.02603537184789,33.02603537184789 0 0,0 -0.5664346271631004,-0.024325140108581993 l 0.6190853257668648 -12.010089929902971" fill="#ff790b" stroke="none" /><path d="M 98.55909050195518 120.95050786540614 l -1.2207755784439125 17.749808987163295 a38.79173999623724,38.79173999623724 0 0,0 -0.6639501952983443,-0.05139394423060044 l 1.5252947685174927 -17.72623727593764" fill="#ffc812" stroke="none" /><line stroke="#e1ed5e" stroke-width="0.3" x1="58.13341422392154" x2="55.67067388415222" y1="173.97424548756322" y2="178.32567169271397" /><path d="M 57.64086615596768 174.84453072859336 a86.0,86.0 0 0,1 -31.369924170532247,-30.572349798747897" fill="none" id="id56" stroke="none" /><text fill="#e1ed5e" style="font-size:6.75px; font-family:Arial;" text-anchor="middle"><textPath startOffset="22.145653131862474" xlink:href="#id56">August</textPath></text><line stroke="#e1ed5e" stroke-width="0.3" x1="26.387840678322732" x2="22.057713659400548" y1="142.50000000000003" y2="145.00000000000006" /><path d="M 25.521815274538298 143.00000000000003 a86.0,86.0 0 0,1 -11.493303480769221,-40.785679425670985" fill="none" id="id57" stroke="none" /><text fill="#e1ed5e" style="font-size:6.75px; font-family:Arial;" text-anchor="middle"><textPath startOffset="21.40746469413373" xlink:href="#id57">September</textPath></text><path d="M 79.94057633289273 106.21446072829308 l -20.258316395577488 6.276078203985968 a42.20821870893148,42.20821870893148 0 0,0 -0.20847579859914384,-0.6939481304577402 l 20.363068514180263 -5.927392469937504" fill="#fff517" stroke="none" /><path d="M 79.73907114497094 105.5222062557868 l -14.901652608454402 4.061511683139988 a36.44522993080189,36.44522993080189 0 0,0 -0.1593359753398962,-0.60502465126159 l 14.96917806459903 -3.8051065275055946" fill="#ffa80f" stroke="none" /><line stroke="#e1ed5e" stroke-width="0.3" x1="15.003131293944662" x2="10.003315487706104" y1="100.72959589197737" y2="100.7725132973878" /><path d="M 14.003168132696942 100.73817937305945 a86.0,86.0 0 0,1 10.791469493833604,-42.45332614584628" fill="none" id="id58" stroke="none" /><text fill="#e1ed5e" style="font-size:6.75px; font-family:Arial;" text-anchor="middle"><textPath startOffset="22.145653131862435" xlink:href="#id58">October</textPath></text><path d="M 79.17382384314186 97.30363454192245 l -22.116090940393327 -2.863370751799829 a43.30068094354992,43.30068094354992 0 0,0 0.10176790673607639,-0.7363418775162015 l 22.063678517102044 3.2426009375160976" fill="#fbff18" stroke="none" /><path d="M 79.2786578344484 96.59031103205396 l -31.313176532534545 -5.152571282367396 a52.734271937095855,52.734271937095855 0 0,0 0.15464998865048543,-0.8919800379007867 l 31.220111726391828 5.689344353188775" fill="#8aff24" stroke="none" /><path d="M 79.407916724674 95.88100663000787 l -14.963551230738151 -2.9931293248410915 a36.259970137262684,36.259970137262684 0 0,0 0.12732824777913565,-0.6093117589677308 l 14.909965272134649 3.2495575350942314" fill="#ffa60f" stroke="none" /><path d="M 79.83685265289637 94.1308016681162 l -6.903360354753637 -2.00946758861696 a28.189877897244592,28.189877897244592 0 0,0 0.13923608924526434,-0.4634716570136936 l 6.867847945504743 2.127676849221377" fill="#ff3304" stroke="none" /><path d="M 80.16572619554312 93.10060997987247 l -16.879843234862342 -5.871685704457547 a38.871927726058516,38.871927726058516 0 0,0 0.22464240661421855,-0.6283647924325773 l 16.77656065820418 6.160585453271046" fill="#ffc912" stroke="none" /><path d="M 80.41425534168474 92.42381321644754 l -13.382606361365088 -5.17667963170416 a35.34894299356402,35.34894299356402 0 0,0 0.2237778723862422,-0.5640664209389692 l 13.291769814012715 5.4056470698567125" fill="#ff990e" stroke="none" /><path d="M 80.9802524753101 91.09779779509293 l -13.623251225358596 -6.37636945174789 a36.04164423639976,36.04164423639976 0 0,0 0.26708702001969736,-0.5581091481283386 l 13.511784947378993 6.6092911019413165" fill="#ffa30f" stroke="none" /><line stroke="#e1ed5e" stroke-width="0.3" x1="26.387840678322718" x2="22.05771365940052" y1="57.49999999999999" y2="54.99999999999999" /><path d="M 25.521815274538284 56.99999999999999 a86.0,86.0 0 0,1 29.574782752854787,-30.34633250058573" fill="none" id="id59" stroke="none" /><text fill="#e1ed5e" style="font-size:6.75px; font-family:Arial;" text-anchor="middle"><textPath startOffset="21.40746469413373" xlink:href="#id59">November</textPath></text><path d="M 85.86807049272753 84.46653392183569 l -10.370815222286568 -11.399342628718674 a36.410996747184576,36.410996747184576 0 0,0 0.4659480111518196,-0.4166535847499715 l 10.173602184311358 11.575691743352047" fill="#ffa80f" stroke="none" /><path d="M 87.54013794807813 83.09580414077388 l -2.2756551533292346 -3.0873632677178064 a24.835416316871882,24.835416316871882 0 0,0 0.34535300856165707,-0.25000894533405493 l 2.2223211343936096 3.125972984424941" fill="#ff0000" stroke="none" /><line stroke="#e1ed5e" stroke-width="0.3" x1="56.869717070023135" x2="54.33264160355391" y1="26.7553504044142" y2="22.446841604673864" /><path d="M 56.362301976729285 25.89364864446614 a86.0,86.0 0 0,1 42.16139366436587,-11.88097634709845" fill="none" id="id60" stroke="none" /><text fill="#e1ed5e" style="font-size:6.75px; font-family:Arial;" text-anchor="middle"><textPath startOffset="22.145653131862474" xlink:href="#id60">December</textPath></text><path d="M 97.12497278360702 79.19773525538626 l -1.336519481270145 -9.670389180035878 a30.76231075192598,30.76231075192598 0 0,0 0.5237242068428963,-0.06780658389971855 l 1.1703174525364546 9.69190736013599" fill="#ff5808" stroke="none" /></svg>