<?xml version="1.0" encoding="utf-8" ?>
<svg baseProfile="full" height="200mm" version="1.1" viewBox="0,0,200,200" width="200mm" xmlns="http://www.w3.org/2000/svg" xmlns:ev="http://www.w3.org/2001/xml-events" xmlns:xlink="http://www.w3.org/1999/xlink"><defs /><rect fill="#1a1a1a" height="200" width="200" x="0" y="0" /><rect fill="#1a1a1a" height="200" width="180" x="10" y="0" /><text alignment-baseline="middle" fill="#e1ed5e" style="dominant-baseline: central; font-size:9.0px; font-family:Arial;" text-anchor="middle" x="100.0" y="100.0">2026</text><line stroke="#e1ed5e" stroke-width="0.3" x1="100.0" x2="100.0" y1="15.0" y2="10.0" /><path d="M 100.0 14.0 a86.0,86.0 0 0,1 42.46469731375804,11.215312516191453" fill="none" id="id85" stroke="none" /><text fill="#e1ed5e" style="font-size:6.75px; font-family:Arial;" text-anchor="middle"><textPath startOffset="22.20632615414155" xlink:href="#id85">January</textPath></text><line stroke="#e1ed5e" stroke-width="0.3" x1="143.23703022742887" x2="145.7803849466894" y1="26.81831364943548" y2="22.513508569990506" /><path d="M 143.74570117128098 25.957352633546492 a86.0,86.0 0 0,1 28.547481713284135,27.462654790039103" fill="none" id="id86" stroke="none" /><text fill="#e1ed5e" style="font-size:6.75px; font-family:Arial;" text-anchor="middle"><textPath startOffset="19.985693538727396" xlink:href="#id86">February</textPath></text><line stroke="#e1ed5e" stroke-width="0.3" x1="172.23445277983987" x2="176.4835382374775" y1="55.19839476539836" y2="52.563006222186495" /><path d="M 173.08426987136738 54.67131705675599 a86.0,86.0 0 0,1 12.851231095245387,41.99856678651699" fill="none" id="id87" stroke="none" /><text fill="#e1ed5e" style="font-size:6.75px; font-family:Arial;" text-anchor="middle"><textPath startOffset="22.20632615414155" xlink:href="#id87">March</textPath></text><path d="M 120.96714384426684 98.82574320788733 l 1.8542238645726732 -0.10384509131257866 a22.857129490084237,22.857129490084237 0 0,0 0.01861919103405152,0.39302169492139594 l -1.8557366638402213 0.07191228976818295" fill="#ff0000" stroke="none" /><line stroke="#e1ed5e" stroke-width="0.3" x1="184.98032266829074" x2="189.97916517819016" y1="98.17113171792111" y2="98.06355123074" /><path d="M 185.9800911702706 98.14961562048488 a86.0,86.0 0 0,1 -9.607161424134198,41.387399972396054" fill="none" id="id88" stroke="none" /><text fill="#e1ed5e" style="font-size:6.75px; font-family:Arial;" text-anchor="middle"><textPath startOffset="21.466115282336823" xlink:href="#id88">April</textPath></text><path d="M 120.99824983174949 100.27111621757518 l 21.372018310177204 0.27594208148918314 a42.37379963139185,42.37379963139185 0 0,0 -0.01569432177766762,0.7292534633549568 l -21.36410192571453 -0.6437853606342547" fill="#f6ff19" stroke="none" /><path d="M 120.95626037817324 101.35467743843564 l 1.8443054898706923 0.11922160689094326 a22.84815489922161,22.84815489922161 0 0,0 -0.02874889907655752,0.3922558867929676 l -1.8419800321297972 -0.15095063018068108" fill="#ff0000" stroke="none" /><path d="M 120.92983693683757 101.71520430193887 l 8.652075255974395 0.7090392889600995 a29.68107959578378,29.68107959578378 0 0,0 -0.04611224784498606,0.5088448124977825 l -8.638588411852334 -0.8578654900064524" fill="#ff6209" stroke="none" /><path d="M 120.8583938346157 102.4346265915055 l 12.011490633022918 1.4020012629278136 a33.093035796211325,33.093035796211325 0 0,0 -0.07091126977473997,0.565232590325367 l -11.98557785400133 -1.6085516075405752" fill="#ff910d" stroke="none" /><path d="M 120.76222939487914 103.15116336523771 l 11.330232290629757 1.7196329081438504 a32.45998695891058,32.45998695891058 0 0,0 -0.08859759552096241,0.5516973118820422 l -11.298952940747506 -1.9144094497190975" fill="#ff880c" stroke="none" /><path d="M 120.5718875245553 104.21870165774334 l 13.811000441806224 2.832238431665321 a35.098415078914854,35.098415078914854 0 0,0 -0.12646453886640924,0.5908002233710263 l -13.760201864215372 -3.0695524744525167" fill="#ffac0f" stroke="none" /><path d="M 120.41448212921028 104.9243191809786 l 61.24344638763086 14.772957542935806 a84.0,84.0 0 0,0 -0.35115474281975656,1.4026886424104164 l -60.980080330516046 -15.82497402474362" fill="#4dd2ff" stroke="none" /><path d="M 120.23288151984713 105.62410040840565 l 16.68887454852894 4.638978687842461 a38.3216239701361,38.3216239701361 0 0,0 -0.18213239231913003,0.63402675118801 l -16.60654951932371 -4.925562914535053" fill="#ffd513" stroke="none" /><path d="M 120.13307415673323 105.97154293290107 l 57.89781320260374 17.17270172299084 a81.3908805873073,81.3908805873073 0 0,0 -0.40995124420416396,1.339744385679453 l -57.59363518589345 -18.166773081222352" fill="#4aeaff" stroke="none" /><path d="M 119.67450827220406 107.3425965602758 l 4.843259475668047 1.807521686161026 a26.1695548158996,26.1695548158996 0 0,0 -0.1611368161041482,0.4206773796340909 l -4.811428379970392 -1.890622632628261" fill="#ff3004" stroke="none" /><path d="M 119.26925614724726 108.34839909993367 l 23.781016022455965 10.303117631540815 a46.91700129238864,46.91700129238864 0 0,0 -0.327433562717807,0.7382762439925975 l -23.600141375006885 -10.7109422120261" fill="#c0ff1e" stroke="none" /><path d="M 119.12269723197855 108.67885076344098 l 16.845927067022505 7.645536882841312 a39.49971602415368,39.49971602415368 0 0,0 -0.286326638404507,0.6167221063097525 l -16.71182581177817 -7.934379056429894" fill="#ffe415" stroke="none" /><line stroke="#e1ed5e" stroke-width="0.3" x1="174.80103733775053" x2="179.2010983576182" y1="140.37084112569926" y2="142.7455964860345" /><path d="M 175.68104954172406 140.8457921977663 a86.0,86.0 0 0,1 -30.038265399797805,32.042727171017184" fill="none" id="id89" stroke="none" /><text fill="#e1ed5e" style="font-size:6.75px; font-family:Arial;" text-anchor="middle"><textPath startOffset="22.206326154141568" xlink:href="#id89">May</textPath></text><line stroke="#e1ed5e" stroke-width="0.3" x1="143.8653032363475" x2="146.44561519142675" y1="172.8068346515853" y2="177.08958963109032" /><path d="M 144.38136562736335 173.6633856474863 a86.0,86.0 0 0,1 -40.68145358897372,12.25698825130547" fill="none" id="id90" stroke="none" /><text fill="#e1ed5e" style="font-size:6.75px; font-family:Arial;" text-anchor="middle"><textPath startOffset="21.466115282336833" xlink:href="#id90">June</textPath></text><line stroke="#e1ed5e" stroke-width="0.3" x1="102.19456741930631" x2="102.32365962044197" y1="184.97166512339345" y2="189.96999836594603" /><path d="M 102.22038585953345 185.97133177190398 a86.0,86.0 0 0,1 -42.740103519485714,-10.115201625700543" fill="none" id="id91" stroke="none" /><text fill="#e1ed5e" style="font-size:6.75px; font-family:Arial;" text-anchor="middle"><textPath startOffset="22.20632615414155" xlink:href="#id91">July</textPath></text><line stroke="#e1ed5e" stroke-width="0.3" x1="58.666819895761336" x2="56.23545636021788" y1="174.27360380694188" y2="178.64263932499728" /><path d="M 58.180547188652646 175.14741091055294 a86.0,86.0 0 0,1 -31.652253787137756,-30.449443065178592" fill="none" id="id92" stroke="none" /><text fill="#e1ed5e" style="font-size:6.75px; font-family:Arial;" text-anchor="middle"><textPath startOffset="22.20632615414155" xlink:href="#id92">August</textPath></text><line stroke="#e1ed5e" stroke-width="0.3" x1="26.63291911575756" x2="22.317208475507996" y1="142.92168965132927" y2="145.44649492493687" /><path d="M 25.769776987707644 143.4266507060508 a86.0,86.0 0 0,1 -11.730757126820373,-40.83630448921669" fill="none" id="id93" stroke="none" /><text fill="#e1ed5e" style="font-size:6.75px; font-family:Arial;" text-anchor="middle"><textPath startOffset="21.46611528233685" xlink:href="#id93">September</textPath></text><line stroke="#e1ed5e" stroke-width="0.3" x1="15.007084014347285" x2="10.007500721073583" y1="101.09737516637583" y2="101.16192664675087" /><path d="M 14.007167355692545 101.11028546245083 a86.0,86.0 0 0,1 10.666146001902534,-42.60595125391555" fill="none" id="id94" stroke="none" /><text fill="#e1ed5e" style="font-size:6.75px; font-family:Arial;" text-anchor="middle"><textPath startOffset="22.20632615414155" xlink:href="#id94">October</textPath></text><line stroke="#e1ed5e" stroke-width="0.3" x1="26.266209847984243" x2="21.928928074336255" y1="57.711370442889674" y2="55.22380399835377" /><path d="M 25.398753493254645 57.213857153982495 a86.0,86.0 0 0,1 29.58750427330803,-30.492523968695096" fill="none" id="id95" stroke="none" /><text fill="#e1ed5e" style="font-size:6.75px; font-family:Arial;" text-anchor="middle"><textPath startOffset="21.46611528233685" xlink:href="#id95">November</textPath></text><line stroke="#e1ed5e" stroke-width="0.3" x1="56.762969772571076" x2="54.21961505331055" y1="26.818313649435495" y2="22.513508569990535" /><path d="M 56.25429882871897 25.957352633546506 a86.0,86.0 0 0,1 42.265352541879196,-11.944610805530505" fill="none" id="id96" stroke="none" /><text fill="#e1ed5e" style="font-size:6.75px; font-family:Arial;" text-anchor="middle"><textPath startOffset="22.20632615414155" xlink:href="#id96">December</textPath></text></svg>