<?xml version="1.0" encoding="utf-8" ?>
<svg baseProfile="full" height="200mm" version="1.1" viewBox="0,0,200,200" width="200mm" xmlns="http://www.w3.org/2000/svg" xmlns:ev="http://www.w3.org/2001/xml-events" xmlns:xlink="http://www.w3.org/1999/xlink"><defs /><rect fill="#1a1a1a" height="200" width="200" x="0" y="0" /><rect fill="#1a1a1a" height="200" width="180" x="10" y="0" /><text alignment-baseline="middle" fill="#e1ed5e" style="dominant-baseline: central; font-size:9.0px; font-family:Arial;" text-anchor="middle" x="100.0" y="100.0">2023</text><line stroke="#e1ed5e" stroke-width="0.3" x1="100.0" x2="100.0" y1="15.0" y2="10.0" /><path d="M 100.0 14.0 a86.0,86.0 0 0,1 42.46469731375804,11.215312516191453" fill="none" id="id49" stroke="none" /><text fill="#e1ed5e" style="font-size:6.75px; font-family:Arial;" text-anchor="middle"><textPath startOffset="22.20632615414155" xlink:href="#id49">January</textPath></text><path d="M 101.08401301168833 79.027996857942 l 2.1470864420402074 -41.53889586491774 a62.59434877319361,62.59434877319361 0 0,0 1.0755436459779968,0.06487972990768566 l -2.861792136857816 41.49578286562975" fill="red" stroke="none" /><line stroke="#e1ed5e" stroke-width="0.3" x1="143.23703022742887" x2="145.7803849466894" y1="26.81831364943548" y2="22.513508569990506" /><path d="M 143.74570117128098 25.957352633546492 a86.0,86.0 0 0,1 28.547481713284135,27.462654790039103" fill="none" id="id50" stroke="none" /><text fill="#e1ed5e" style="font-size:6.75px; font-family:Arial;" text-anchor="middle"><textPath startOffset="19.985693538727396" xlink:href="#id50">February</textPath></text><path d="M 110.68208982089419 81.91981866633111 l 18.020814754820744 -30.50148463555426 a56.42725404826795,56.42725404826795 0 0,0 0.832000873929435,0.5012712172211667 l -18.543177694967817 30.186766808874477" fill="red" stroke="none" /><path d="M 112.77801427241765 83.33499621200491 l 31.079508024171467 -40.533693883082925 a72.07755043883773,72.07755043883773 0 0,0 0.9780835894725176,0.7634097556881239 l -31.772624168803418 39.99270573817157" fill="red" stroke="none" /><path d="M 114.42810811169701 84.74124197986012 l 43.28432433509102 -45.77627406041963 a84.0,84.0 0 0,0 1.042067025550327,1.0024676529507923 l -44.06587460425377 45.02442332070654" fill="red" stroke="none" /><line stroke="#e1ed5e" stroke-width="0.3" x1="172.23445277983987" x2="176.4835382374775" y1="55.19839476539836" y2="52.563006222186495" /><path d="M 173.08426987136738 54.67131705675599 a86.0,86.0 0 0,1 12.851231095245387,41.99856678651699" fill="none" id="id51" stroke="none" /><text fill="#e1ed5e" style="font-size:6.75px; font-family:Arial;" text-anchor="middle"><textPath startOffset="22.20632615414155" xlink:href="#id51">March</textPath></text><path d="M 118.21658344932153 89.55222093294921 l 31.803173362208106 -18.240112359370034 a57.66256312356116,57.66256312356116 0 0,0 0.4864039257538856,0.8652583095076181 l -32.11243492925443 17.68997053992762" fill="red" stroke="none" /><line stroke="#e1ed5e" stroke-width="0.3" x1="184.98032266829074" x2="189.97916517819016" y1="98.17113171792111" y2="98.06355123074" /><path d="M 185.9800911702706 98.14961562048488 a86.0,86.0 0 0,1 -9.607161424134198,41.387399972396054" fill="none" id="id52" stroke="none" /><text fill="#e1ed5e" style="font-size:6.75px; font-family:Arial;" text-anchor="middle"><textPath startOffset="21.466115282336823" xlink:href="#id52">April</textPath></text><line stroke="#e1ed5e" stroke-width="0.3" x1="174.80103733775053" x2="179.2010983576182" y1="140.37084112569926" y2="142.7455964860345" /><path d="M 175.68104954172406 140.8457921977663 a86.0,86.0 0 0,1 -30.038265399797805,32.042727171017184" fill="none" id="id53" stroke="none" /><text fill="#e1ed5e" style="font-size:6.75px; font-family:Arial;" text-anchor="middle"><textPath startOffset="22.206326154141568" xlink:href="#id53">May</textPath></text><line stroke="#e1ed5e" stroke-width="0.3" x1="143.8653032363475" x2="146.44561519142675" y1="172.8068346515853" y2="177.08958963109032" /><path d="M 144.38136562736335 173.6633856474863 a86.0,86.0 0 0,1 -40.68145358897372,12.25698825130547" fill="none" id="id54" stroke="none" /><text fill="#e1ed5e" style="font-size:6.75px; font-family:Arial;" text-anchor="middle"><textPath startOffset="21.466115282336833" xlink:href="#id54">June</textPath></text><line stroke="#e1ed5e" stroke-width="0.3" x1="102.19456741930631" x2="102.32365962044197" y1="184.97166512339345" y2="189.96999836594603" /><path d="M 102.22038585953345 185.97133177190398 a86.0,86.0 0 0,1 -42.740103519485714,-10.115201625700543" fill="none" id="id55" stroke="none" /><text fill="#e1ed5e" style="font-size:6.75px; font-family:Arial;" text-anchor="middle"><textPath startOffset="22.20632615414155" xlink:href="#id55">July</textPath></text><path d="M 100.18074693466247 120.99922214144158 l 0.15074636000566705 17.513748195421794 a38.514396944162684,38.514396944162684 0 0,0 -0.662986589336233,0.0 l 0.150746360005655 -17.513748195421794" fill="red" stroke="none" /><path d="M 99.45781275523022 120.99299961872073 l -0.8474203730654315 32.81135021207039 a53.8222915718543,53.8222915718543 0 0,0 -0.9259475510068736,-0.031891505866577935 l 1.4120882757469482 -32.791901907777714" fill="red" stroke="none" /><path d="M 97.65516085044442 120.86867818915974 l -2.9488079472230937 26.24389997237069 a47.409046822431975,47.409046822431975 0 0,0 -0.8101812763735002,-0.09810166968114162 l 3.4001166466479833 -26.189252773964203" fill="red" stroke="none" /><path d="M 96.93821686468263 120.77559828337769 l -3.262071048898303 22.13464333969654 a43.3737243950048,43.3737243950048 0 0,0 -0.7376923245535277,-0.11521236968635708 l 3.642599237060348 -22.075212662663077" fill="red" stroke="none" /><path d="M 95.86986931433489 120.58985236759428 l -6.960276430089702 34.698917550139164 a56.390116235110305,56.390116235110305 0 0,0 -0.950062124522447,-0.1990947554746953 l 7.556530016041536 -34.57396681393793" fill="red" stroke="none" /><path d="M 94.81253420990036 120.34920634021253 l -8.129559117943382 31.89034542872783 a53.910239485845715,53.910239485845715 0 0,0 -0.8972449490773573,-0.23697054598377107 l 8.67729450983223 -31.745683533440477" fill="red" stroke="none" /><path d="M 92.40401165467489 119.57807347666478 l -1.4341159578735132 3.6963231538638444 a24.96478163817598,24.96478163817598 0 0,0 -0.3992925711181204,-0.1588867545074146 l 1.4975296050334916 -3.6710895549503633" fill="red" stroke="none" /><path d="M 91.7346041902142 119.30500536409082 l -9.892853254060203 23.106163277708173 a46.13490256441189,46.13490256441189 0 0,0 -0.7273482102741065,-0.3188480805906115 l 10.289122138992052 -22.93245064382311" fill="red" stroke="none" /><line stroke="#e1ed5e" stroke-width="0.3" x1="58.666819895761336" x2="56.23545636021788" y1="174.27360380694188" y2="178.64263932499728" /><path d="M 58.180547188652646 175.14741091055294 a86.0,86.0 0 0,1 -31.652253787137756,-30.449443065178592" fill="none" id="id56" stroke="none" /><text fill="#e1ed5e" style="font-size:6.75px; font-family:Arial;" text-anchor="middle"><textPath startOffset="22.20632615414155" xlink:href="#id56">August</textPath></text><path d="M 89.7882731507175 118.34994917583269 l -10.57802996034131 19.00817707108343 a42.75328741610197,42.75328741610197 0 0,0 -0.6399785055916042,-0.3633964978879215 l 10.90365723285412 -18.823277407400877" fill="red" stroke="none" /><path d="M 89.1626897886671 117.98757091392108 l -20.250913320809527 33.612098604394255 a60.24121128250838,60.24121128250838 0 0,0 -0.8835974331564316,-0.5427777117561436 l 20.826489953898268 -33.25853242580973" fill="red" stroke="none" /><path d="M 85.18274418774928 114.88116024355367 l -18.663335300061565 18.7438272510462 a47.450919540529895,47.450919540529895 0 0,0 -0.5738383746215788,-0.5812952438647594 l 18.983214299738677 -18.419791513200774" fill="red" stroke="none" /><path d="M 82.05923443525364 110.91462005526583 l -27.887985139048606 16.966208091907507 a53.6434056454547,53.6434056454547 0 0,0 -0.4731326008674116,-0.7929974535901392 l 28.17589861561425 -16.483648544431258" fill="red" stroke="none" /><line stroke="#e1ed5e" stroke-width="0.3" x1="26.63291911575756" x2="22.317208475507996" y1="142.92168965132927" y2="145.44649492493687" /><path d="M 25.769776987707644 143.4266507060508 a86.0,86.0 0 0,1 -11.730757126820373,-40.83630448921669" fill="none" id="id57" stroke="none" /><text fill="#e1ed5e" style="font-size:6.75px; font-family:Arial;" text-anchor="middle"><textPath startOffset="21.46611528233685" xlink:href="#id57">September</textPath></text><path d="M 81.69416730710424 110.29060199501025 l -14.33679600032697 8.059412756474918 a37.446818948788305,37.446818948788305 0 0,0 -0.31102898169841153,-0.5646079462574017 l 14.473401391476898 -7.811434291819693" fill="red" stroke="none" /><path d="M 81.35079622478065 109.6543875284942 l -28.954513538843962 14.989277707098438 a53.6043294740379,53.6043294740379 0 0,0 -0.4171471822791668,-0.8230709654002452 l 29.208239390909394 -14.488652529995509" fill="red" stroke="none" /><path d="M 80.32549172779594 107.34259656027581 l -31.012467727809927 11.573963410592121 a54.10180937045855,54.10180937045855 0 0,0 -0.3181076615700878,-0.8752956628365899 l 31.20709965038524 -11.038419950749413" fill="red" stroke="none" /><path d="M 80.0844068197444 106.66101706037122 l -31.736932814879896 10.61481066671684 a54.465013222564934,54.465013222564934 0 0,0 -0.2897220964506165,-0.8916729266019671 l 31.914947162346763 -10.06693884013707" fill="red" stroke="none" /><path d="M 79.76711848015287 105.62410040840567 l -32.00945457778746 8.897614825015667 a54.22307529326232,54.22307529326232 0 0,0 -0.24222719047265318,-0.9014174864753952 l 32.15786984460188 -8.345306405364733" fill="red" stroke="none" /><path d="M 79.4281124754447 104.21870165774334 l -31.90888611433194 6.543593561193438 a53.572927865813625,53.572927865813625 0 0,0 -0.17747962772925907,-0.9049647981512395 l 32.01679567503687 -5.993365035974244" fill="red" stroke="none" /><path d="M 79.29508885075956 103.50808413554451 l -33.09569222685774 5.60748471795121 a54.56737595995475,54.56737595995475 0 0,0 -0.14893839329202305,-0.9274395172022412 l 33.18731237451105 -5.036965971055755" fill="red" stroke="none" /><path d="M 79.18660465613746 102.79330883721812 l -32.90245886765843 4.415748973333059 a54.197449277519006,54.197449277519006 0 0,0 -0.1161334961980408,-0.9256982294645134 l 32.973593873103326 -3.8487329895811375" fill="red" stroke="none" /><path d="M 79.10278846688536 102.07522291339032 l -22.833984058728227 2.2675564559210524 a43.94629905398786,43.94629905398786 0 0,0 -0.06827455946498742,-0.7534040744688651 l 22.86963321447029 -1.8741709929036208" fill="red" stroke="none" /><path d="M 79.0235259727143 100.99374915477108 l -28.650495719348367 1.357301797615744 a49.68262842094863,49.68262842094863 0 0,0 -0.03311670629712339,-0.8545950387521767 l 28.669614558496693 -0.8639295118495706" fill="red" stroke="none" /><line stroke="#e1ed5e" stroke-width="0.3" x1="15.007084014347285" x2="10.007500721073583" y1="101.09737516637583" y2="101.16192664675087" /><path d="M 14.007167355692545 101.11028546245083 a86.0,86.0 0 0,1 10.666146001902534,-42.60595125391555" fill="none" id="id58" stroke="none" /><text fill="#e1ed5e" style="font-size:6.75px; font-family:Arial;" text-anchor="middle"><textPath startOffset="22.20632615414155" xlink:href="#id58">October</textPath></text><path d="M 79.12142395522702 97.74499172005258 l -6.8975395496534775 -0.7449745979983826 a27.93765370933839,27.93765370933839 0 0,0 0.05575510499363556,-0.4776756905166477 l 6.883694091656253 0.8635940268398921" fill="red" stroke="none" /><path d="M 79.21141760316559 97.0276538004421 l -33.18077192285501 -4.744178291748925 a54.51821673449268,54.51821673449268 0 0,0 0.14082342657357325,-0.9278504310337136 l 33.094192602842135 5.314627835174731" fill="red" stroke="none" /><path d="M 79.32604984820605 96.31383870115002 l -33.028592524613565 -5.888991635647912 a54.54948802354054,54.54948802354054 0 0,0 0.1727771289034987,-0.9229823313312757 l 32.922329671800206 6.4566520444417606" fill="red" stroke="none" /><path d="M 79.46518482838121 95.60439243477599 l -34.51008661232873 -7.387103147601874 a56.29185983911503,56.29185983911503 0 0,0 0.21097549216347286,-0.945761763232081 l 34.37781673316322 7.980043080383914" fill="red" stroke="none" /><path d="M 79.62865764111835 94.90015583598534 l -32.658910533544315 -8.175963633292755 a54.666761331779114,54.666761331779114 0 0,0 0.2363782120807612,-0.9108616758884126 l 32.513335989593244 8.736921734730032" fill="red" stroke="none" /><path d="M 79.81627453868168 94.20196356495316 l -32.909920225408484 -9.453800632945212 a55.24087025252462,55.24087025252462 0 0,0 0.27040170001794583,-0.9116601085748722 l 32.74231262827883 10.018890128266623" fill="red" stroke="none" /><path d="M 80.02781315780177 93.51064311812611 l -31.99788851551038 -10.396744216554026 a54.644571029446645,54.644571029446645 0 0,0 0.2983663997579504,-0.8920775584840933 l 31.814184821980653 10.945994877960443" fill="red" stroke="none" /><path d="M 80.2630227832202 92.82701384747504 l -31.895367997189414 -11.591695651298668 a54.9364392320183,54.9364392320183 0 0,0 0.330653040142204,-0.885985757232294 l 31.69111036854558 12.139004545560303" fill="red" stroke="none" /><path d="M 80.65960295795068 91.81776055985345 l -51.37268298190233 -21.73396915930772 a76.78098217293038,76.78098217293038 0 0,0 0.5254352593168385,-1.2127770222020038 l 50.99095701274281 22.615045326096325" fill="red" stroke="none" /><path d="M 80.95270993114464 91.15688171328213 l -30.739577142538323 -14.271516618505045 a54.89096914362778,54.89096914362778 0 0,0 0.4052569046573684,-0.8535743946044367 l 30.489362044039204 14.798533428750014" fill="red" stroke="none" /><path d="M 81.10775173730289 90.83032412892265 l -4.925092197338815 -2.3904777481640833 a26.4745700303088,26.4745700303088 0 0,0 0.20251783746346533,-0.40826360252039345 l 4.883214346921936 2.4749009391834385" fill="red" stroke="none" /><path d="M 81.43458229118936 90.18545643968196 l -29.87269605179287 -15.79209696560307 a54.79006208893099,54.79006208893099 0 0,0 0.4479528525707861,-0.8299886035658806 l 29.596435100003614 16.30396655250142" fill="red" stroke="none" /><line stroke="#e1ed5e" stroke-width="0.3" x1="26.266209847984243" x2="21.928928074336255" y1="57.711370442889674" y2="55.22380399835377" /><path d="M 25.398753493254645 57.213857153982495 a86.0,86.0 0 0,1 29.58750427330803,-30.492523968695096" fill="none" id="id59" stroke="none" /><text fill="#e1ed5e" style="font-size:6.75px; font-family:Arial;" text-anchor="middle"><textPath startOffset="21.46611528233685" xlink:href="#id59">November</textPath></text><path d="M 81.78341655067845 89.55222093294921 l -43.886084550058065 -25.17003897972945 a71.59169180187538,71.59169180187538 0 0,0 0.6223033679397381,-1.0637181784095344 l 43.446321507648 25.92173657049288" fill="red" stroke="none" /><path d="M 81.96595687620814 89.24020034530311 l -11.684605894627342 -6.971482634663105 a34.606306811114074,34.606306811114074 0 0,0 0.30961801568897246,-0.5089306092169308 l 11.562872080652152 7.17158101708711" fill="red" stroke="none" /><path d="M 82.15384107792192 88.93136811851018 l -31.93293217258412 -19.805599213713542 a58.57624139470456,58.57624139470456 0 0,0 0.5388244453853249,-0.852290873629139 l 31.587280130952834 20.352337735056896" fill="red" stroke="none" /><path d="M 82.34701348167596 88.62581576622439 l -1.8596045425640826 -1.1981816587881233 a23.212186326280232,23.212186326280232 0 0,0 0.21930361275394641,-0.33401444778030887 l 1.8387042944522158 1.2300141705460992" fill="red" stroke="none" /><path d="M 82.7489923806493 88.02491185347247 l -13.756187555973247 -9.549097778970477 a37.74568495068064,37.74568495068064 0 0,0 0.3750975288602725,-0.5305488535364874 l 13.589777407309095 9.784473132838752" fill="red" stroke="none" /><path d="M 83.17141714833178 87.43820079747576 l -5.669719752885627 -4.23219719082135 a28.07511237636955,28.07511237636955 0 0,0 0.2924144075059007,-0.3847830838461984 l 5.596029405155617 4.329165050548575" fill="red" stroke="none" /><path d="M 83.39014120810768 87.1503855733568 l -2.382024410566012 -1.8427667335477809 a24.011615766794083,24.011615766794083 0 0,0 0.255719042123284,-0.32473721482125917 l 2.349951287848757 1.8834963423220878" fill="red" stroke="none" /><path d="M 84.5562425177563 85.77008943001954 l -35.72873925978028 -32.920535370318404 a69.58296469094645,69.58296469094645 0 0,0 0.8191991764656142,-0.8738645644427312 l 35.15677276134421 33.53066935163919" fill="red" stroke="none" /><path d="M 85.31137513191541 84.99185889309783 l -35.08875364658846 -35.85202636208378 a71.16561000066206,71.16561000066206 0 0,0 0.8828492325578793,-0.8493002622401405 l 34.46642117041815 36.450709711086226" fill="red" stroke="none" /><path d="M 86.10567301691215 84.25364557470407 l -33.25260417728545 -37.6849696697758 a71.25825925739116,71.25825925739116 0 0,0 0.9267177381347375,-0.8036404904822068 l 32.59899264050394 38.25177515367769" fill="red" stroke="none" /><path d="M 86.65592168130627 83.78471172551755 l -2.4473688811911987 -2.9739627552184262 a24.851502162799527,24.851502162799527 0 0,0 0.3326510856442816,-0.2689807102586434 l 2.3958143969824164 3.015649562741204" fill="red" stroke="none" /><path d="M 86.93701828274178 83.55741782278169 l -16.566663191779185 -20.852721593665404 a47.63250508631831,47.63250508631831 0 0,0 0.6463672983716091,-0.5044999288872382 l 16.20526333824815 21.134799911775865" fill="red" stroke="none" /><path d="M 87.22198572758235 83.33499621200491 l -19.726699633673512 -25.7274344128284 a53.41980197199794,53.41980197199794 0 0,0 0.7345320611847405,-0.5532343200377143 l 19.28092141873038 26.063185322371968" fill="red" stroke="none" /><path d="M 87.51073957382395 83.11751280151077 l -2.284816521639012 -3.088524409069249 a24.841792493481545,24.841792493481545 0 0,0 0.34595707451838786,-0.2513525275019293 l 2.2313141307668425 3.127396171387846" fill="red" stroke="none" /><path d="M 88.70189139769569 82.29822771554957 l -19.833526925249362 -31.07498693689968 a57.86493731749828,57.86493731749828 0 0,0 0.8442242163458188,-0.5286531268264756 l 19.2956835565313 31.411784405049087" fill="red" stroke="none" /><line stroke="#e1ed5e" stroke-width="0.3" x1="56.762969772571076" x2="54.21961505331055" y1="26.818313649435495" y2="22.513508569990535" /><path d="M 56.25429882871897 25.957352633546506 a86.0,86.0 0 0,1 42.265352541879196,-11.944610805530505" fill="none" id="id60" stroke="none" /><text fill="#e1ed5e" style="font-size:6.75px; font-family:Arial;" text-anchor="middle"><textPath startOffset="22.20632615414155" xlink:href="#id60">December</textPath></text><path d="M 89.3179101791058 81.91981866633112 l -22.22543299334375 -37.6180939756715 a64.69314438334766,64.69314438334766 0 0,0 0.9636298547716176,-0.5581966098870483 l 21.574606406106813 37.995094742948595" fill="red" stroke="none" /><path d="M 90.91171255644093 81.06846463323043 l -21.614334667876804 -45.02416365407773 a70.94351585425434,70.94351585425434 0 0,0 1.1054411502154138,-0.5190194423736791 l 20.83611530636178 45.38954807909142" fill="red" stroke="none" /><path d="M 92.23578459929587 80.48803036053334 l -18.442375052821557 -46.3468674603846 a70.8813925324804,70.8813925324804 0 0,0 1.1375344081767678,-0.44134567771521876 l 17.64185747964511 46.65745584199037" fill="red" stroke="none" /><path d="M 92.91201910852362 80.23233633223022 l -16.501699662787193 -46.02157566096116 a69.89060766730563,69.89060766730563 0 0,0 1.1359486735144735,-0.3963101872523127 l 15.707068985209434 46.298806701385686" fill="red" stroke="none" /><path d="M 94.63758080256005 79.69619591428918 l -9.465550013726475 -35.83954666094563 a58.06844671583173,58.06844671583173 0 0,0 0.9686124158297426,-0.24692087185008524 l 8.847228709211732 35.99717052896458" fill="red" stroke="none" /><path d="M 96.75951476605007 79.25152402106235 l -9.199090879069127 -58.900782553413094 a80.61480905283372,80.61480905283372 0 0,0 1.3728741121007009,-0.20232595692355196 l 8.183847786539777 59.05040299449762" fill="red" stroke="none" /><path d="M 98.55514903715128 79.0497635885617 l -3.386199104797427 -49.09964668039944 a70.21627422425829,70.21627422425829 0 0,0 1.206509358533169,-0.07277993934085544 l 2.540527697424635 49.1506598891206" fill="red" stroke="none" /><path d="M 99.63851952072746 79.00311137660856 l -0.8607024903497215 -49.99460652513735 a71.00201486320526,71.00201486320526 0 0,0 1.2221829696222448,-0.010519714676472666 l 1.224696149062854e-14 50.00201486320526" fill="red" stroke="none" /></svg>