<?xml version="1.0" encoding="utf-8" ?>
<svg baseProfile="full" height="200mm" version="1.1" viewBox="0,0,200,200" width="200mm" xmlns="http://www.w3.org/2000/svg" xmlns:ev="http://www.w3.org/2001/xml-events" xmlns:xlink="http://www.w3.org/1999/xlink"><defs /><rect fill="#1a1a1a" height="200" width="200" x="0" y="0" /><rect fill="#1a1a1a" height="200" width="180" x="10" y="0" /><text alignment-baseline="middle" fill="#e1ed5e" style="dominant-baseline: central; font-size:9.0px; font-family:Arial;" text-anchor="middle" x="100.0" y="100.0">2023</text><line stroke="#e1ed5e" stroke-width="0.3" x1="100.0" x2="100.0" y1="15.0" y2="10.0" /><path d="M 100.0 14.0 a86.0,86.0 0 0,1 42.46469731375804,11.215312516191453" fill="none" id="id37" stroke="none" /><text fill="#e1ed5e" style="font-size:6.75px; font-family:Arial;" text-anchor="middle"><textPath startOffset="22.20632615414155" xlink:href="#id37">January</textPath></text><line stroke="#e1ed5e" stroke-width="0.3" x1="143.23703022742887" x2="145.7803849466894" y1="26.81831364943548" y2="22.513508569990506" /><path d="M 143.74570117128098 25.957352633546492 a86.0,86.0 0 0,1 28.547481713284135,27.462654790039103" fill="none" id="id38" stroke="none" /><text fill="#e1ed5e" style="font-size:6.75px; font-family:Arial;" text-anchor="middle"><textPath startOffset="19.985693538727396" xlink:href="#id38">February</textPath></text><line stroke="#e1ed5e" stroke-width="0.3" x1="172.23445277983987" x2="176.4835382374775" y1="55.19839476539836" y2="52.563006222186495" /><path d="M 173.08426987136738 54.67131705675599 a86.0,86.0 0 0,1 12.851231095245387,41.99856678651699" fill="none" id="id39" stroke="none" /><text fill="#e1ed5e" style="font-size:6.75px; font-family:Arial;" text-anchor="middle"><textPath startOffset="22.20632615414155" xlink:href="#id39">March</textPath></text><line stroke="#e1ed5e" stroke-width="0.3" x1="184.98032266829074" x2="189.97916517819016" y1="98.17113171792111" y2="98.06355123074" /><path d="M 185.9800911702706 98.14961562048488 a86.0,86.0 0 0,1 -9.607161424134198,41.387399972396054" fill="none" id="id40" stroke="none" /><text fill="#e1ed5e" style="font-size:6.75px; font-family:Arial;" text-anchor="middle"><textPath startOffset="21.466115282336823" xlink:href="#id40">April</textPath></text><line stroke="#e1ed5e" stroke-width="0.3" x1="174.80103733775053" x2="179.2010983576182" y1="140.37084112569926" y2="142.7455964860345" /><path d="M 175.68104954172406 140.8457921977663 a86.0,86.0 0 0,1 -30.038265399797805,32.042727171017184" fill="none" id="id41" stroke="none" /><text fill="#e1ed5e" style="font-size:6.75px; font-family:Arial;" text-anchor="middle"><textPath startOffset="22.206326154141568" xlink:href="#id41">May</textPath></text><line stroke="#e1ed5e" stroke-width="0.3" x1="143.8653032363475" x2="146.44561519142675" y1="172.8068346515853" y2="177.08958963109032" /><path d="M 144.38136562736335 173.6633856474863 a86.0,86.0 0 0,1 -40.68145358897372,12.25698825130547" fill="none" id="id42" stroke="none" /><text fill="#e1ed5e" style="font-size:6.75px; font-family:Arial;" text-anchor="middle"><textPath startOffset="21.466115282336833" xlink:href="#id42">June</textPath></text><line stroke="#e1ed5e" stroke-width="0.3" x1="102.19456741930631" x2="102.32365962044197" y1="184.97166512339345" y2="189.96999836594603" /><path d="M 102.22038585953345 185.97133177190398 a86.0,86.0 0 0,1 -42.740103519485714,-10.115201625700543" fill="none" id="id43" stroke="none" /><text fill="#e1ed5e" style="font-size:6.75px; font-family:Arial;" text-anchor="middle"><textPath startOffset="22.20632615414155" xlink:href="#id43">July</textPath></text><path d="M 100.18074693466247 120.99922214144158 l 0.13278968197692878 15.427537043061218 a36.42810851383492,36.42810851383492 0 0,0 -0.6270732332787579,0.0 l 0.13278968197691815 -15.427537043061218" fill="#ffac0f" stroke="none" /><path d="M 99.45781275523022 120.99299961872073 l -0.5133828388697751 19.877719080660412 a40.88434755753623,40.88434755753623 0 0,0 -0.7033658432189693,-0.024225341803622073 l 0.8554690337633875 -19.865936940430696" fill="#ffe715" stroke="none" /><path d="M 97.65516085044442 120.86867818915974 l -2.663500789261203 23.704713749000565 a44.85388208188452,44.85388208188452 0 0,0 -0.76651563089881,-0.09281436811827869 l 3.0711438432114027 -23.65535385215694" fill="#e5ff1a" stroke="none" /><path d="M 96.93821686468263 120.77559828337769 l -3.5784041903470243 24.281108317784 a45.54337380413403,45.54337380413403 0 0,0 -0.7745933225289531,-0.12097554666276565 l 3.9958333764844944 -24.215914463774126" fill="#ddff1b" stroke="none" /><path d="M 95.86986931433489 120.58985236759428 l -4.219221926621498 21.033997029869674 a42.45299197591445,42.45299197591445 0 0,0 -0.7152490975689648,-0.14988740263229494 l 4.5806624856198495 -20.958253646510837" fill="#fffb17" stroke="none" /><path d="M 94.81253420990036 120.34920634021253 l -7.247712155741925 28.431067523016115 a50.34032944584622,50.34032944584622 0 0,0 -0.8378298215876886,-0.22127847079805918 l 7.736032420141103 -28.302097702914473" fill="#a4ff21" stroke="none" /><path d="M 92.40401165467489 119.57807347666478 l -2.6002400029361503 6.701917844012714 a28.18866822580966,28.18866822580966 0 0,0 -0.45085616911895304,-0.17940497430332886 l 2.7152172480969616 -6.656166025303318" fill="#ff3705" stroke="none" /><path d="M 91.7346041902142 119.30500536409082 l -8.78120279110658 20.509745798837322 a43.31051759129454,43.31051759129454 0 0,0 -0.6828198544928447,-0.29932815798385803 l 9.132943320257167 -20.355553087559013" fill="#f8ff18" stroke="none" /><line stroke="#e1ed5e" stroke-width="0.3" x1="58.666819895761336" x2="56.23545636021788" y1="174.27360380694188" y2="178.64263932499728" /><path d="M 58.180547188652646 175.14741091055294 a86.0,86.0 0 0,1 -31.652253787137756,-30.449443065178592" fill="none" id="id44" stroke="none" /><text fill="#e1ed5e" style="font-size:6.75px; font-family:Arial;" text-anchor="middle"><textPath startOffset="22.20632615414155" xlink:href="#id44">August</textPath></text><path d="M 89.7882731507175 118.34994917583269 l -6.740048901780194 12.111522038898213 a34.86063581864503,34.86063581864503 0 0,0 -0.5218325645477045,-0.29631014914354076 l 6.947530233249107 -11.99370872396004" fill="#ff960d" stroke="none" /><path d="M 89.1626897886671 117.98757091392108 l -11.79098681029574 19.570466034414377 a43.847987017782,43.847987017782 0 0,0 -0.6431472401226168,-0.3950735642916145 l 12.126113250350667 -19.364604003294385" fill="#f2ff19" stroke="none" /><path d="M 82.05923443525364 110.91462005526583 l -25.108312315499237 15.275139077182423 a50.38974687131409,50.38974687131409 0 0,0 -0.44443546615678836,-0.74489940515903 l 25.36752865735426 -14.840677578137283" fill="#a3ff22" stroke="none" /><line stroke="#e1ed5e" stroke-width="0.3" x1="26.63291911575756" x2="22.317208475507996" y1="142.92168965132927" y2="145.44649492493687" /><path d="M 25.769776987707644 143.4266507060508 a86.0,86.0 0 0,1 -11.730757126820373,-40.83630448921669" fill="none" id="id45" stroke="none" /><text fill="#e1ed5e" style="font-size:6.75px; font-family:Arial;" text-anchor="middle"><textPath startOffset="21.46611528233685" xlink:href="#id45">September</textPath></text><path d="M 81.69416730710424 110.29060199501025 l -12.967317955983967 7.289562308715279 a35.875787495935356,35.875787495935356 0 0,0 -0.2979801747045443,-0.5409205712813282 l 13.090874540140028 -7.065271219036129" fill="#ffa40f" stroke="none" /><path d="M 81.35079622478065 109.6543875284942 l -26.306590694099274 13.61849139381428 a50.622626854994884,50.622626854994884 0 0,0 -0.39394366759793914,-0.777288229616174 l 26.537113031483482 -13.16364895249542" fill="#a0ff22" stroke="none" /><path d="M 80.32549172779594 107.34259656027581 l -53.3424612813975 19.907596535705306 a77.93619740890514,77.93619740890514 0 0,0 -0.4582490271193942,-1.2609045125067462 l 53.67723456952212 -18.986444226192443" fill="#45fff0" stroke="none" /><path d="M 80.0844068197444 106.66101706037122 l -55.45604714362314 18.547962532727517 a79.47563662681421,79.47563662681421 0 0,0 -0.42276402222056875,-1.301133871298243 l 55.76710341685995 -17.590629761451474" fill="#47feff" stroke="none" /><path d="M 79.76711848015287 105.62410040840567 l -50.61911452974134 14.07051103524689 a73.53831017998272,73.53831017998272 0 0,0 -0.3285128733599722,-1.2225186115610254 l 50.853815479443085 -13.197101490510324" fill="#3fffc2" stroke="none" /><path d="M 79.4281124754447 104.21870165774334 l -54.41704322945552 11.159368347098608 a76.54949230859502,76.54949230859502 0 0,0 -0.2535977766946505,-1.293089599828155 l 54.60107093912584 -10.221015020202499" fill="#43ffe2" stroke="none" /><path d="M 79.29508885075956 103.50808413554451 l -53.31280271795366 9.032919585512373 a75.07262310894285,75.07262310894285 0 0,0 -0.20490624057622028,-1.2759513556664253 l 53.46039071289117 -8.113889000152735" fill="#41ffd2" stroke="none" /><path d="M 79.18660465613746 102.79330883721812 l -54.15084412166473 7.267436616124756 a75.63633913484891,75.63633913484891 0 0,0 -0.16207243367436944,-1.291876760874608 l 54.26791806458595 -6.334242100962739" fill="#42ffd8" stroke="none" /><path d="M 79.10278846688536 102.07522291339032 l -34.01793215956163 3.3781919741689905 a55.185258364196656,55.185258364196656 0 0,0 -0.08573530160408671,-0.9460819089936526 l 34.071042057442796 -2.7921286766267714" fill="#6dff28" stroke="none" /><path d="M 79.0235259727143 100.99374915477108 l -48.924573220078365 2.3177752953974293 a69.97944412798867,69.97944412798867 0 0,0 -0.046645855335733205,-1.2037222600162985 l 48.957221208265295 -1.4752757883671344" fill="#3bff9a" stroke="none" /><line stroke="#e1ed5e" stroke-width="0.3" x1="15.007084014347285" x2="10.007500721073583" y1="101.09737516637583" y2="101.16192664675087" /><path d="M 14.007167355692545 101.11028546245083 a86.0,86.0 0 0,1 10.666146001902534,-42.60595125391555" fill="none" id="id46" stroke="none" /><text fill="#e1ed5e" style="font-size:6.75px; font-family:Arial;" text-anchor="middle"><textPath startOffset="22.20632615414155" xlink:href="#id46">October</textPath></text><path d="M 79.12142395522702 97.74499172005258 l -10.935572391805136 -1.1811057534097824 a31.999170620421722,31.999170620421722 0 0,0 0.06386066404189539,-0.5471191704606446 l 10.913621374759652 1.3691686621952888" fill="#ff6e0a" stroke="none" /><path d="M 79.21141760316559 97.0276538004421 l -54.92853361333008 -7.853667701638553 a76.48715077635987,76.48715077635987 0 0,0 0.1975703408208106,-1.3017416941938524 l 54.78520737906997 8.798008508224497" fill="#43ffe1" stroke="none" /><path d="M 79.32604984820605 96.31383870115002 l -53.05321736396295 -9.459378357335673 a74.88992217080231,74.88992217080231 0 0,0 0.23720233141132,-1.2671443392575132 l 52.882529308641764 10.371200774055758" fill="#41ffd0" stroke="none" /><path d="M 79.46518482838121 95.60439243477599 l -56.84476625926512 -12.167983131299776 a79.13249749111148,79.13249749111148 0 0,0 0.29657960586179294,-1.329508219661772 l 56.62689226640129 13.144669520511506" fill="#47fffd" stroke="none" /><path d="M 79.62865764111835 94.90015583598534 l -51.70715257487161 -12.944577517337976 a74.30283026728902,74.30283026728902 0 0,0 0.32128426384227593,-1.2380393286838334 l 51.47667197915902 13.832713271570672" fill="#40ffca" stroke="none" /><path d="M 79.81627453868168 94.20196356495316 l -29.97398460414212 -8.610415117437787 a52.18619889540805,52.18619889540805 0 0,0 0.2554492142192143,-0.8612477597404117 l 29.8213294928112 9.125092263924738" fill="#8eff24" stroke="none" /><path d="M 80.02781315780177 93.51064311812611 l -29.008403588206534 -9.42540168208161 a51.50124055845697,51.50124055845697 0 0,0 0.28120341031160156,-0.8407624045860407 l 28.84186288412316 9.923337189589972" fill="#96ff23" stroke="none" /><path d="M 80.14247586403 93.16781622104843 l -9.143983599866347 -3.1460808506757147 a30.670070361357933,30.670070361357933 0 0,0 0.17605630920990809,-0.49773489413398236 l 9.088474209846629 3.3030133712363083" fill="#ff5b08" stroke="none" /><path d="M 80.2630227832202 92.82701384747504 l -26.747036188177262 -9.720643545951349 a49.458651686246654,49.458651686246654 0 0,0 0.29768317295418173,-0.7976429047550709 l 26.57574842672145 10.17960958773576" fill="#aeff20" stroke="none" /><path d="M 80.38941819471856 92.48833698450439 l -5.167216962483644 -1.9792575730556177 a26.53331651705166,26.53331651705166 0 0,0 0.16704169459928056,-0.42510289264655754 l 5.132381718002672 2.0679094705979386" fill="#ff1f03" stroke="none" /><path d="M 80.65960295795068 91.81776055985345 l -53.534421184402746 -22.64852430216823 a79.12821952042687,79.12821952042687 0 0,0 0.5414981075568133,-1.249852290584045 l 53.13663236700325 23.566675737338876" fill="#47fffd" stroke="none" /><path d="M 80.803312248108 91.48605970444005 l -6.649050751309503 -2.948926494531209 a28.273654058562148,28.273654058562148 0 0,0 0.20114373368232924,-0.44319355455674836 l 6.597304700663822 3.0629420579300284" fill="#ff3805" stroke="none" /><path d="M 80.95270993114464 91.15688171328213 l -46.54268349879976 -21.608452124858736 a72.31419482464632,72.31419482464632 0 0,0 0.5338915893567919,-1.1245118465160204 l 46.163833715601214 22.40640638701529" fill="#3effb4" stroke="none" /><path d="M 81.10775173730289 90.83032412892265 l -3.88056541464307 -1.8834988061770148 a25.313508512822732,25.313508512822732 0 0,0 0.19363627045731044,-0.3903589053965502 l 3.8475691312323463 1.9500173000725265" fill="#ff0c01" stroke="none" /><path d="M 81.43458229118936 90.18545643968196 l -44.3659446261523 -23.453902463039444 a71.18388768635387,71.18388768635387 0 0,0 0.5819855705661388,-1.0783308739692665 l 43.955650956367684 24.21411432034118" fill="#3cffa8" stroke="none" /><path d="M 81.6062741919709 89.86733742301443 l -6.846391878716786 -3.771513150781536 a28.81648215014128,28.81648215014128 0 0,0 0.24307712465383788,-0.4324070814847358 l 6.780457112770518 3.888803742201056" fill="#ff4006" stroke="none" /><line stroke="#e1ed5e" stroke-width="0.3" x1="26.266209847984243" x2="21.928928074336255" y1="57.711370442889674" y2="55.22380399835377" /><path d="M 25.398753493254645 57.213857153982495 a86.0,86.0 0 0,1 29.58750427330803,-30.492523968695096" fill="none" id="id47" stroke="none" /><text fill="#e1ed5e" style="font-size:6.75px; font-family:Arial;" text-anchor="middle"><textPath startOffset="21.46611528233685" xlink:href="#id47">November</textPath></text><path d="M 81.78341655067845 89.55222093294921 l -43.911209981709845 -25.184449198835157 a71.6206562927282,71.6206562927282 0 0,0 0.622555138777313,-1.064148536383666 l 43.47119516846221 25.936577147572716" fill="#3dffad" stroke="none" /><path d="M 81.96595687620814 89.24020034530311 l -13.127761821014229 -7.832524639044563 a36.286810414554076,36.286810414554076 0 0,0 0.32465325749894675,-0.5336445935018789 l 12.990992765229064 8.057337005753517" fill="#ffaa0f" stroke="none" /><path d="M 82.15384107792192 88.93136811851018 l -50.56308871848836 -31.36048593199958 a80.49879006034382,80.49879006034382 0 0,0 0.7404830845356297,-1.1712664123379801 l 50.01577803770677 32.226199992051775" fill="#48f4ff" stroke="none" /><path d="M 82.34701348167596 88.62581576622439 l -13.290314380077048 -8.563224365853372 a36.810163435626706,36.810163435626706 0 0,0 0.34777429898348555,-0.5296841167750558 l 13.140943445735642 8.790726546606095" fill="#ffb110" stroke="none" /><path d="M 82.54541684631803 88.32363383020206 l -3.2756533290269 -2.1912713341978325 a24.941011899505273,24.941011899505273 0 0,0 0.24177999162876623,-0.35478230363125224 l 3.2374488717293937 2.2473316610995004" fill="#ff0701" stroke="none" /><path d="M 82.7489923806493 88.02491185347247 l -19.605866885192164 -13.609754822431517 a44.86661774627005,44.86661774627005 0 0,0 0.445861757891901,-0.6306398370686914 l 19.368692507496384 13.945221159831995" fill="#e5ff1a" stroke="none" /><path d="M 83.17141714833178 87.43820079747576 l -18.89687426746618 -14.105688054400021 a44.58097310478236,44.58097310478236 0 0,0 0.46433006791608633,-0.6110039412188029 l 18.651268259325988 14.428876771499851" fill="#e9ff1a" stroke="none" /><path d="M 83.39014120810768 87.1503855733568 l -8.282529952941264 -6.407478697192073 a31.47168017446768,31.47168017446768 0 0,0 0.3351672784700628,-0.4256284068869474 l 8.17100859387723 6.549099498032069" fill="#ff6709" stroke="none" /><path d="M 83.6137871275137 86.86637796730984 l -3.512194901718755 -2.815039735128039 a25.501106723685737,25.501106723685737 0 0,0 0.27747815905157314,-0.34015541361038804 l 3.463218250590789 2.875079318346509" fill="#ff0f01" stroke="none" /><path d="M 83.84228863543731 86.58626213691792 l -2.6959779555274688 -2.238135139572236 a24.50393293881006,24.50393293881006 0 0,0 0.27221464202131657,-0.32221627523527213 l 2.657052700019028 2.284210364436624" fill="#ff0000" stroke="none" /><path d="M 84.07557802195018 86.31012108654704 l -2.8743020980658445 -2.470974942603479 a24.790426060210116,24.790426060210116 0 0,0 0.28096776703342247,-0.3211947279087778 l 2.831342467454579 2.5200852267152" fill="#ff0400" stroke="none" /><path d="M 84.31358615837235 86.03803664274999 l -4.371204823832313 -3.8906662920891426 a26.851898478980438,26.851898478980438 0 0,0 0.31027542511699774,-0.34261387399826937 l 4.3035857580992705 3.9653329533569677" fill="#ff2303" stroke="none" /><path d="M 84.5562425177563 85.77008943001954 l -32.40123709764703 -29.854567891677725 a65.05831805070108,65.05831805070108 0 0,0 0.765930580941555,-0.8170413407830796 l 31.882539194735013 30.407878649338855" fill="#34ff60" stroke="none" /><path d="M 84.80347519578584 85.50635884689758 l -2.937746904377365 -2.801867530849914 a25.059657440549607,25.059657440549607 0 0,0 0.3004005389116373,-0.3095891613013008 l 2.8890821017626096 2.8520208877013387" fill="#ff0801" stroke="none" /><path d="M 85.05521093208273 85.24692304244772 l -3.2547415683484844 -3.2129896659345354 a25.57347190547156,25.57347190547156 0 0,0 0.31195276036232467,-0.3106131360710681 l 3.1989530078188464 3.2685386526557125" fill="#ff1001" stroke="none" /><path d="M 85.31137513191541 84.99185889309783 l -21.201527368541885 -21.662716373150733 a51.31135172542794,51.31135172542794 0 0,0 0.6365460436843027,-0.6123567896895231 l 20.825498081245154 22.02445624960257" fill="#98ff23" stroke="none" /><path d="M 85.57189188830299 84.74124197986013 l -3.2416224584358 -3.4282479936383687 a25.71815646931308,25.71815646931308 0 0,0 0.3242840512573534,-0.3013866838910755 l 3.1821305233835906 3.483539263604092" fill="#ff1202" stroke="none" /><path d="M 85.83668400450813 84.49514656593479 l -4.286018415214338 -4.691986492764467 a27.354895050576417,27.354895050576417 0 0,0 0.35038886686049525,-0.3145825842726931 l 4.204618560757871 4.76506808580644" fill="#ff2b04" stroke="none" /><path d="M 86.10567301691215 84.25364557470407 l -20.1419760805633 -22.826776322194867 a51.442748195481634,51.442748195481634 0 0,0 0.6690158831827875,-0.5801639813041242 l 19.74606639873374 23.170105296918674" fill="#97ff23" stroke="none" /><path d="M 86.65592168130627 83.78471172551755 l -6.616945468926806 -8.040696083510541 a31.4132973090243,31.4132973090243 0 0,0 0.4204843387356978,-0.34000242586524765 l 6.477557731626607 8.153404606639924" fill="#ff6609" stroke="none" /><path d="M 86.93701828274178 83.55741782278169 l -26.485949307804603 -33.33828428006264 a63.57871192830834,63.57871192830834 0 0,0 0.8627553849745225,-0.673394262771767 l 25.908161367670655 33.789256932057626" fill="#33ff4e" stroke="none" /><path d="M 87.22198572758235 83.33499621200491 l -32.64379803950815 -42.57383083044727 a74.64837949112479,74.64837949112479 0 0,0 1.0264288901793144,-0.7730849599805265 l 31.906122995570442 43.129432379933654" fill="#41ffce" stroke="none" /><path d="M 87.51073957382395 83.11751280151077 l -8.41816753648523 -11.379345198982584 a35.15468268206468,35.15468268206468 0 0,0 0.48957864773649595,-0.3556997083839209 l 8.221043572394953 11.522564142183173" fill="#ff9a0e" stroke="none" /><path d="M 88.70189139769569 82.29822771554957 l -33.89432580691294 -53.105316853351276 a84.0,84.0 0 0,0 1.225523390511031,-0.7674226347082791 l 32.97518326402967 53.68088382938249" fill="#4dd2ff" stroke="none" /><line stroke="#e1ed5e" stroke-width="0.3" x1="56.762969772571076" x2="54.21961505331055" y1="26.818313649435495" y2="22.513508569990535" /><path d="M 56.25429882871897 25.957352633546506 a86.0,86.0 0 0,1 42.265352541879196,-11.944610805530505" fill="none" id="id48" stroke="none" /><text fill="#e1ed5e" style="font-size:6.75px; font-family:Arial;" text-anchor="middle"><textPath startOffset="22.20632615414155" xlink:href="#id48">December</textPath></text><path d="M 89.3179101791058 81.91981866633112 l -30.043722016107616 -50.851092913211836 a80.06317704838821,80.06317704838821 0 0,0 1.192572542378258,-0.6908149917767874 l 29.163952741264037 51.36071206237867" fill="#48f8ff" stroke="none" /><path d="M 90.91171255644093 81.06846463323043 l -20.555514398078948 -42.81856732922374 a68.4969354832172,68.4969354832172 0 0,0 1.067318559491126,-0.5011203748604931 l 19.815417627288213 43.166052686724235" fill="#39ff89" stroke="none" /><path d="M 91.23893434514133 80.91482961587045 l -2.21276918419052 -4.820312798090617 a26.303938436100044,26.303938436100044 0 0,0 0.4131194881416621,-0.18535467218512647 l 2.1294675775820835 4.857687800792273" fill="#ff1b02" stroke="none" /><path d="M 91.56875222667455 80.76684994638697 l -3.2037616520047405 -7.308340383966064 a28.97971978773474,28.97971978773474 0 0,0 0.45859198000713597,-0.19634515290024215 l 3.0774859142072963 7.362405064829092" fill="#ff4306" stroke="none" /><path d="M 91.90106846888425 80.62456947434976 l -2.196081460829179 -5.253782379748344 a26.694295661128933,26.694295661128933 0 0,0 0.42547673084556004,-0.17356264159638718 l 2.1053208603952385 5.290805907528308" fill="#ff2103" stroke="none" /><path d="M 92.23578459929587 80.48803036053334 l -18.292248124867196 -45.969588893377534 a70.47534178242579,70.47534178242579 0 0,0 1.1310179349085336,-0.4388173873266304 l 17.49824702495899 46.27764898459472" fill="#3bffa0" stroke="none" /><path d="M 92.91201910852362 80.23233633223022 l -17.090028130615213 -47.66236440690489 a71.63368485861773,71.63368485861773 0 0,0 1.1642793217859804,-0.40619419414738056 l 16.26706680476595 47.94947945422449" fill="#3dffad" stroke="none" /><path d="M 93.25333710446033 80.11325718540243 l -2.7585712105475855 -8.131278685375126 a29.586466571465692,29.586466571465692 0 0,0 0.4836924858635667,-0.15946580778823213 l 2.6181959024416095 8.177558217422591" fill="#ff4c07" stroke="none" /><path d="M 93.59665428221793 80.00007090966166 l -2.769998030353148 -8.651690323949683 a30.084307048404128,30.084307048404128 0 0,0 0.49454965928432515,-0.15365898648402485 l 2.6206629983580942 8.698089445316233" fill="#ff5307" stroke="none" /><path d="M 93.94186890950719 79.89281104454417 l -2.8520105928864234 -9.465941729805655 a30.886253954557937,30.886253954557937 0 0,0 0.5103729647671555,-0.14899186376372217 l 2.6886474103958466 9.513631922488075" fill="#ff5e08" stroke="none" /><path d="M 94.28887869178378 79.79150937346287 l -1.7112379987825954 -6.055122136597231 a27.29228413039234,27.29228413039234 0 0,0 0.45318462305589097,-0.12387247662948957 l 1.606755486502982 6.083681154053017" fill="#ff2a04" stroke="none" /><path d="M 94.63758080256005 79.69619591428918 l -9.117317812080218 -34.52103012237722 a56.704719643158526,56.704719643158526 0 0,0 0.9458647266955974,-0.24112197939136504 l 8.52174419669962 34.67285509793744" fill="#5dff2a" stroke="none" /><path d="M 94.98787191387505 79.60689891045804 l -1.9042790965595466 -7.748037450667887 a28.978619129557806,28.978619129557806 0 0,0 0.4854281806815632,-0.1148851668118306 l 1.7706272289154494 7.779668529620588" fill="#ff4306" stroke="none" /><path d="M 96.40284397218896 79.31037775812273 l -1.4096950406282855 -8.108088067727046 a29.229722487519837,29.229722487519837 0 0,0 0.4964470630458936,-0.08191801912515068 l 1.2699187714435063 8.131152349791824" fill="#ff4606" stroke="none" /><path d="M 96.75951476605007 79.25152402106235 l -5.185131358035295 -33.19983448858212 a54.60230047585028,54.60230047585028 0 0,0 0.9298798281009338,-0.1370401148846409 l 4.612882549505712 33.28416908762773" fill="#74ff27" stroke="none" /><path d="M 97.11714578562143 79.19881850522333 l -0.7081796902732405 -5.109857513715391 a26.158697731423032,26.158697731423032 0 0,0 0.4465479932442891,-0.05797474553632958 l 0.6201169685210937 5.121290582415857" fill="#ff1902" stroke="none" /><path d="M 97.47563105711357 79.15227682838746 l -0.7492420871697953 -6.18768174353183 a27.2328780723213,27.2328780723213 0 0,0 0.4658550744208522,-0.05234424560193786 l 0.6426203092392252 6.199661942604367" fill="#ff2904" stroke="none" /><path d="M 97.83486435360386 79.11191278185805 l -0.8030911434215922 -7.7477999476982005 a28.789310586579177,28.789310586579177 0 0,0 0.49335949945261404,-0.04685042919427103 l 0.6696065168787418 7.760475921407652" fill="#ff4006" stroke="none" /><path d="M 98.55514903715128 79.0497635885617 l -3.092908275409083 -44.84695047090396 a65.95347648558237,65.95347648558237 0 0,0 1.1332627298553164,-0.06836150267114127 l 2.320483496714144 44.89354524295541" fill="#36ff6b" stroke="none" /><path d="M 98.91598698831166 79.02799685794201 l -0.29812615792383296 -5.767737705445447 a26.77543742454678,26.77543742454678 0 0,0 0.4604854615552883,-0.019829472631472576 l 0.19879986397922053 5.772014904601113" fill="#ff2203" stroke="none" /><path d="M 99.27714615592234 79.0124445844662 l -0.15220070473762648 -4.419040932181918 a25.42166120534148,25.42166120534148 0 0,0 0.4374624404147647,-0.011298364195998292 l 0.0761116291279828 4.421006088520276" fill="#ff0e01" stroke="none" /><path d="M 99.63851952072746 79.00311137660856 l -0.8581817982224754 -49.848190065924506 a70.85557670759947,70.85557670759947 0 0,0 1.2196622774949988,-0.010498018283522554 l 1.2211094486921405e-14 49.85557670759947" fill="#3cffa4" stroke="none" /></svg>