<?xml version="1.0" encoding="utf-8" ?>
<svg baseProfile="full" height="200mm" version="1.1" viewBox="0,0,200,200" width="200mm" xmlns="http://www.w3.org/2000/svg" xmlns:ev="http://www.w3.org/2001/xml-events" xmlns:xlink="http://www.w3.org/1999/xlink"><defs /><rect fill="#1a1a1a" height="200" width="200" x="0" y="0" /><rect fill="#1a1a1a" height="200" width="180" x="10" y="0" /><text alignment-baseline="middle" fill="#e1ed5e" style="dominant-baseline: central; font-size:9.0px; font-family:Arial;" text-anchor="middle" x="100.0" y="100.0">2024</text><line stroke="#e1ed5e" stroke-width="0.3" x1="100.0" x2="100.0" y1="15.0" y2="10.0" /><path d="M 100.0 14.0 a86.0,86.0 0 0,1 42.35913384403234,11.155469271406648" fill="none" id="id61" stroke="none" /><text fill="#e1ed5e" style="font-size:6.75px; font-family:Arial;" text-anchor="middle"><textPath startOffset="22.145653131862478" xlink:href="#id61">January</textPath></text><path d="M 103.58742460773223 79.30868818359171 l 5.573018817090839 -32.143691564861065 a53.62323475917998,53.62323475917998 0 0,0 0.9056332782723318,0.16503655153299296 l -6.123986828914224 32.04328683939671" fill="#7dff26" stroke="none" /><path d="M 104.64783097203109 79.52079915486377 l 6.575081929972831 -28.97102416749399 a50.70777581205594,50.70777581205594 0 0,0 0.8472251470388964,0.19994282782670386 l -7.071439230751613 28.853885196021057" fill="#9eff22" stroke="none" /><path d="M 105.3480935250658 79.69241777938227 l 9.147557720338193 -34.734766632812146 a56.91910112019563,56.91910112019563 0 0,0 0.9427391434134762,0.25694774571210266 l -9.742478264686364 34.5726183929559" fill="#59ff2a" stroke="none" /><path d="M 106.38641147887787 79.99465700312896 l 13.521708981227787 -42.35656079599537 a65.46251068302226,65.46251068302226 0 0,0 1.0675914974012801,0.35093853025737937 l -14.24682321627681 42.11820134433597" fill="#35ff66" stroke="none" /><path d="M 107.40779381753099 80.34994680014964 l 22.22338145259297 -58.9501595995511 a84.0,84.0 0 0,0 1.3449109500258964,0.520240447447847 l -23.232064665112393 58.55997926396521" fill="#4dd2ff" stroke="none" /><path d="M 108.07796709384702 80.6158196554323 l 7.000777496273938 -16.79931744749628 a39.19966901495982,39.19966901495982 0 0,0 0.6189159671566274,0.26417842336084235 l -7.288128538600995 16.676664374476033" fill="#ffd313" stroke="none" /><path d="M 109.06512990194946 81.05736502329252 l 12.976859811354327 -27.11664600609059 a51.06179271406101,51.06179271406101 0 0,0 0.7874208678454057,0.3851670046260686 l -13.440440928461799 26.889885251367303" fill="#9aff23" stroke="none" /><path d="M 110.34350942703115 81.72400993836675 l 22.266692814370693 -39.34311264969603 a66.20714680065774,66.20714680065774 0 0,0 0.9843033291732257,0.5682877920624068 l -22.938788611404316 38.95507796035746" fill="#36ff6f" stroke="none" /><line stroke="#e1ed5e" stroke-width="0.3" x1="143.13028292997686" x2="145.6673583964461" y1="26.7553504044142" y2="22.446841604673864" /><path d="M 143.63769802327073 25.89364864446614 a86.0,86.0 0 0,1 29.32050498858742,28.57503671076993" fill="none" id="id62" stroke="none" /><text fill="#e1ed5e" style="font-size:6.75px; font-family:Arial;" text-anchor="middle"><textPath startOffset="20.669276256404974" xlink:href="#id62">February</textPath></text><path d="M 111.5731344415666 82.4767994020092 l 2.1747921379129895 -3.292912484858673 a24.94626322944457,24.94626322944457 0 0,0 0.355310472858865,0.23906874314203003 l -2.2309988988688554 3.2550940676595244" fill="#ff0a01" stroke="none" /><path d="M 112.16784306229584 82.88440491214696 l 12.115406439067934 -17.041836410464757 a41.90950170197394,41.90950170197394 0 0,0 0.5827795401305191,0.42188744437790965 l -12.406166989572421 16.831348194713772" fill="#fff617" stroke="none" /><path d="M 114.13192950727249 84.46653392183569 l 14.039219824642565 -15.431561896608047 a41.86223372157167,41.86223372157167 0 0,0 0.5274047975725936,0.4881580069367509 l -14.302054393529124 15.188286143538921" fill="#fff517" stroke="none" /><path d="M 114.65682725009322 84.96080404539774 l 21.228309880722275 -21.782116049649915 a51.41548487189358,51.41548487189358 0 0,0 0.6267990265543065,0.6214418021082164 l -21.599100827406545 21.414494237313036" fill="#96ff23" stroke="none" /><path d="M 115.16444852881244 85.47280134310134 l 21.77937208525254 -20.8641457883437 a51.16046465002052,51.16046465002052 0 0,0 0.6020957324568984,0.6394048028859842 l -22.134323651445698 20.48719952551322" fill="#99ff23" stroke="none" /><path d="M 115.6541949942343 86.00192230759917 l 22.418962990873794 -20.047174948625347 a51.074891936746184,51.074891936746184 0 0,0 0.5788218662122002,0.6585930308850291 l -22.759795921044585 19.659369639929018" fill="#9aff23" stroke="none" /><path d="M 116.35404254752997 86.82634096563983 l 32.29245079578473 -26.01251249843254 a62.466289740936396,62.466289740936396 0 0,0 0.6655145699199164,0.8408559184480886 l -32.73423179634621 25.454336636069772" fill="#31ff42" stroke="none" /><path d="M 116.7966241395341 87.39550010848427 l 14.959325318613686 -11.225756603781738 a39.70291488820568,39.70291488820568 0 0,0 0.4043987291058311,0.5486445430567685 l -15.149826067303342 10.967305751456095" fill="#ffd914" stroke="none" /><path d="M 117.21940702142032 87.97951657250589 l 14.566309521251329 -10.16841532244058 a38.764403824461475,38.764403824461475 0 0,0 0.3762182545552626,0.5489136768148859 l -14.738717512621916 9.916866910555646" fill="#ffcd13" stroke="none" /><line stroke="#e1ed5e" stroke-width="0.3" x1="172.87174338648825" x2="177.1583165268699" y1="56.24261187166439" y2="53.66864786411523" /><path d="M 173.72905801456457 55.72781907015455 a86.0,86.0 0 0,1 12.242430191666344,42.057860355516425" fill="none" id="id63" stroke="none" /><text fill="#e1ed5e" style="font-size:6.75px; font-family:Arial;" text-anchor="middle"><textPath startOffset="22.145653131862474" xlink:href="#id63">March</textPath></text><path d="M 118.53625476483649 90.13048839642627 l 26.41694637920688 -14.065536006505518 a50.92815328669971,50.92815328669971 0 0,0 0.4042529626142856,0.7752083585639791 l -26.65450741079611 13.60998140483704" fill="#9bff22" stroke="none" /><path d="M 119.0197475246899 91.09779779509293 l 26.826648986677665 -12.556226282681099 a50.619721712337295,50.619721712337295 0 0,0 0.36160688769355487,0.7901763092633685 l -27.03824033922627 12.093860991203046" fill="#9fff22" stroke="none" /><path d="M 119.31412917781788 91.75594674310238 l 18.605967921184753 -7.941781326312199 a41.23002552937384,41.23002552937384 0 0,0 0.2722637604773883,0.6533339110038945 l -18.739557526198627 7.621214905867028" fill="#ffed16" stroke="none" /><path d="M 119.58574465831526 92.42381321644754 l 9.607525276372302 -3.716397170050673 a31.30126933254797,31.30126933254797 0 0,0 0.189550524607626,0.502805286478775 l -9.669906484794367 3.5509236033777403" fill="#ff6709" stroke="none" /><path d="M 119.83427380445688 93.10060997987247 l 19.465391311157397 -6.771073540383339 a41.6094370564982,41.6094370564982 0 0,0 0.22888078953298116,0.6766453848031859 l -19.57875752226274 6.435926481105992" fill="#fff216" stroke="none" /><path d="M 120.51834098615036 95.52812308129327 l 6.104667267219665 -1.3304838177263374 a27.247971641476525,27.247971641476525 0 0,0 0.09568227639215307,0.4578743299104238 l -6.126607254436185 1.2254930365305092" fill="#ff2c04" stroke="none" /><path d="M 120.65975698304385 96.23510406497455 l 13.730308515618452 -2.5021195921870514 a34.956431291260344,34.956431291260344 0 0,0 0.10251420004249712,0.5912746637565847 l -13.771237533153183 2.266051895509874" fill="#ff9a0e" stroke="none" /><path d="M 120.9064616781168 98.02013634271609 l 10.805779617613215 -1.0233185645146814 a31.854126129214897,31.854126129214897 0 0,0 0.04688074479920329,0.5448253171359507 l -10.821753985110158 0.8376722000030687" fill="#ff6f0a" stroke="none" /><path d="M 120.96210409425399 98.7389718711861 l 19.857091603349126 -1.1945533213491524 a40.89298983514908,40.89298983514908 0 0,0 0.036138518748042726,0.7010776092291574 l -19.87467171155374 0.8535039187432644" fill="#ffe915" stroke="none" /><path d="M 120.98066250479742 99.09900007780936 l 15.29146568672056 -0.6566813317151313 a36.30555955264542,36.30555955264542 0 0,0 0.021394888724693206,0.6228888413482103 l -15.300485262442102 0.3940862258028011" fill="#ffac10" stroke="none" /><line stroke="#e1ed5e" stroke-width="0.3" x1="184.99686870605535" x2="189.99668451229388" y1="99.2704041080226" y2="99.22748670261217" /><path d="M 185.99683186730306 99.26182062694052 a86.0,86.0 0 0,1 -10.086455211305974,41.156179273409016" fill="none" id="id64" stroke="none" /><text fill="#e1ed5e" style="font-size:6.75px; font-family:Arial;" text-anchor="middle"><textPath startOffset="21.40746469413373" xlink:href="#id64">April</textPath></text><path d="M 120.99303781780057 100.54070618675476 l 20.15435757511045 0.5191047587066894 a41.16104161535122,41.16104161535122 0 0,0 -0.02425622731075367,0.7061935922869992 l -20.14247666080285 -0.8650046155577993" fill="#ffec16" stroke="none" /><path d="M 120.93736805541906 101.62068470465957 l 39.72627175648938 3.0750646804543247 a60.8451087394604,60.8451087394604 0 0,0 -0.0895477089380358,1.040680115683506 l -39.667630424853606 -3.756565843513488" fill="#31ff2f" stroke="none" /><path d="M 120.65975698304385 103.76489593502545 l 10.820786141986833 1.9719076944216678 a31.998992348662384,31.998992348662384 0 0,0 -0.10311859311756195,0.5395600529609498 l -10.785341256587111 -2.157370312415932" fill="#ff710a" stroke="none" /><path d="M 120.51834098615036 104.47187691870673 l 11.068320226607268 2.412288877723065 a32.32814416699885,32.32814416699885 0 0,0 -0.1228302271678317,0.541212644599354 l -11.025279137881773 -2.601935856261436" fill="#ff760a" stroke="none" /><path d="M 120.16314734710363 105.8691983318838 l 17.62983697854998 5.131788604458736 a39.3615469438471,39.3615469438471 0 0,0 -0.1944154523507479,0.6471458106766136 l -17.539145206195602 -5.433672018726073" fill="#ffd513" stroke="none" /><line stroke="#e1ed5e" stroke-width="0.3" x1="174.33088141563837" x2="178.70328620479359" y1="141.23008692659167" y2="143.65538615756765" /><path d="M 175.20536237346943 141.71514677278685 a86.0,86.0 0 0,1 -30.301960400862466,31.631185727798858" fill="none" id="id65" stroke="none" /><text fill="#e1ed5e" style="font-size:6.75px; font-family:Arial;" text-anchor="middle"><textPath startOffset="22.145653131862474" xlink:href="#id65">May</textPath></text><path d="M 116.1254893667686 113.45245675266167 l 7.655123841942026 6.386176572862092 a30.9691610607534,30.9691610607534 0 0,0 -0.3440606494808355,0.40530257996022656 l -7.544368628954077 -6.5166459352718755" fill="#ff6209" stroke="none" /><path d="M 114.65682725009322 115.03919595460226 l 4.252748623861521 4.363694734787281 a27.093250577168668,27.093250577168668 0 0,0 -0.3358627891705961,0.32174895450177166 l -4.177213348825613 -4.436055819594634" fill="#ff2a04" stroke="none" /><path d="M 114.39649973595853 115.28858382429668 l 13.604487337101952 14.447494103053073 a40.84470109533325,40.84470109533325 0 0,0 -0.5145853290192843,0.47629249822735575 l -13.3544722367687 -14.678904347412807" fill="#ffe815" stroke="none" /><path d="M 113.31354834802062 116.24036423190432 l 3.965453075872242 4.83720797891309 a27.254870032878788,27.254870032878788 0 0,0 -0.3643706555142111,0.2935112076368844 l -3.8818316500027783 -4.9045674803433785" fill="#ff2d04" stroke="none" /><path d="M 113.03279911837588 116.46651593811092 l 3.886724458132608 4.910749383579987 a27.26275390876709,27.26275390876709 0 0,0 -0.36946231639486227,0.2872961319014889 l -3.801852197102515 -4.9767465671022695" fill="#ff2d04" stroke="none" /><path d="M 111.8722381534696 117.32195027204791 l 5.808167876982302 8.474290511717133 a31.273675766938926,31.273675766938926 0 0,0 -0.4454320241305823,0.2997065448346843 l -5.661839564754716 -8.572746730608937" fill="#ff6709" stroke="none" /><path d="M 110.96478420261333 117.91015095944535 l 10.70065579852799 17.47871706139214 a41.49413537163184,41.49413537163184 0 0,0 -0.6106894303972772,0.3667014564210471 l -10.399033611573277 -17.65983251834911" fill="#fff016" stroke="none" /><line stroke="#e1ed5e" stroke-width="0.3" x1="143.1302829299769" x2="145.66735839644613" y1="173.24464959558577" y2="177.55315839532614" /><path d="M 143.63769802327073 174.10635135553383 a86.0,86.0 0 0,1 -40.68552437913181,11.842963189579606" fill="none" id="id66" stroke="none" /><text fill="#e1ed5e" style="font-size:6.75px; font-family:Arial;" text-anchor="middle"><textPath startOffset="21.407464694133747" xlink:href="#id66">June</textPath></text><path d="M 107.407793817531 119.65005319985036 l 7.139660033515196 18.93879648153855 a41.23988037423421,41.23988037423421 0 0,0 -0.6645725191965198,0.2440402343375218 l -6.813498362664549 -19.058567564884793" fill="#ffed16" stroke="none" /><path d="M 106.0420521117495 120.11202640906438 l 5.789895181883053 19.272677999135794 a41.123593204881814,41.123593204881814 0 0,0 -0.6778342877505538,0.1973076823014264 l -5.4582008817508925 -19.369229375739742" fill="#ffec16" stroke="none" /><path d="M 104.64783097203109 120.47920084513623 l 1.3291783923680018 5.856605246645698 a27.00554245791135,27.00554245791135 0 0,0 -0.45296985777447696,0.09872267222865728 l -1.2284461179743889 -5.878559377008074" fill="#ff2904" stroke="none" /><path d="M 103.94208987418118 120.62667999033965 l 2.315566568221883 12.116022750232874 a33.33530931172897,33.33530931172897 0 0,0 -0.5629941123429657,0.10259628158951721 l -2.1072377223278598 -12.153987205753754" fill="#ff840c" stroke="none" /><path d="M 102.875027216393 120.80226474461374 l 1.4100363383348802 10.202320535374893 a31.299298363575893,31.299298363575893 0 0,0 -0.5328663487731496,0.06899021720464411 l -1.234692167670955 -10.225022348779932" fill="#ff6709" stroke="none" /><path d="M 101.80034050326958 120.92268563240118 l 1.2816538014950567 14.894759924332853 a35.94979965318595,35.94979965318595 0 0,0 -0.6153082203320717,0.0476287477348609 l -1.0257765863877493 -14.914566439062765" fill="#ffa80f" stroke="none" /><line stroke="#e1ed5e" stroke-width="0.3" x1="101.45913802915013" x2="101.54496967792366" y1="184.9874750549273" y2="189.98673829345242" /><path d="M 101.47630435890484 185.9873277026323 a86.0,86.0 0 0,1 -42.54439059252881,-10.42667462771756" fill="none" id="id67" stroke="none" /><text fill="#e1ed5e" style="font-size:6.75px; font-family:Arial;" text-anchor="middle"><textPath startOffset="22.145653131862474" xlink:href="#id67">July</textPath></text><path d="M 100.36049292484886 120.99690560180557 l 0.23716154905795994 13.813471263092902 a34.815507009757006,34.815507009757006 0 0,0 -0.5976544739068105,0.005130144858539431 l -1.6919116438096738e-15 -13.815507009757006" fill="#ff980e" stroke="none" /><path d="M 99.27912038922189 120.98762331915562 l -0.36129711355598154 10.518771251452675 a31.52497431087844,31.52497431087844 0 0,0 -0.5406896973570828,-0.02321954204909637 l 0.5418125715139032 -10.51101914097775" fill="#ff6a09" stroke="none" /><path d="M 98.55909050195518 120.95050786540614 l -0.8833038594583527 12.843044257974748 a33.873383841105344,33.873383841105344 0 0,0 -0.5797687811606079,-0.0448777703758675 l 1.1036416353941967 -12.825988720603828" fill="#ff8b0c" stroke="none" /><line stroke="#e1ed5e" stroke-width="0.3" x1="58.13341422392154" x2="55.67067388415222" y1="173.97424548756322" y2="178.32567169271397" /><path d="M 57.64086615596768 174.84453072859336 a86.0,86.0 0 0,1 -31.369924170532247,-30.572349798747897" fill="none" id="id68" stroke="none" /><text fill="#e1ed5e" style="font-size:6.75px; font-family:Arial;" text-anchor="middle"><textPath startOffset="22.145653131862474" xlink:href="#id68">August</textPath></text><line stroke="#e1ed5e" stroke-width="0.3" x1="26.387840678322732" x2="22.057713659400548" y1="142.50000000000003" y2="145.00000000000006" /><path d="M 25.521815274538298 143.00000000000003 a86.0,86.0 0 0,1 -11.493303480769221,-40.785679425670985" fill="none" id="id69" stroke="none" /><text fill="#e1ed5e" style="font-size:6.75px; font-family:Arial;" text-anchor="middle"><textPath startOffset="21.40746469413373" xlink:href="#id69">September</textPath></text><path d="M 79.94057633289273 106.21446072829308 l -6.59600635786886 2.0434596304859194 a27.90528979366341,27.90528979366341 0 0,0 -0.1378304451792344,-0.45879272507883595 l 6.630113123051724 -1.9299293018163601" fill="#ff3605" stroke="none" /><path d="M 79.73907114497094 105.5222062557868 l -5.133377185207577 1.399124778942711 a26.32063074011542,26.32063074011542 0 0,0 -0.11507194160937674,-0.43694690539089254 l 5.156638607621686 -1.3107973691790158" fill="#ff1f03" stroke="none" /><line stroke="#e1ed5e" stroke-width="0.3" x1="15.003131293944662" x2="10.003315487706104" y1="100.72959589197737" y2="100.7725132973878" /><path d="M 14.003168132696942 100.73817937305945 a86.0,86.0 0 0,1 10.791469493833604,-42.45332614584628" fill="none" id="id70" stroke="none" /><text fill="#e1ed5e" style="font-size:6.75px; font-family:Arial;" text-anchor="middle"><textPath startOffset="22.145653131862435" xlink:href="#id70">October</textPath></text><path d="M 79.17382384314186 97.30363454192245 l -14.402872564707694 -1.8647402090557121 a35.52308487073179,35.52308487073179 0 0,0 0.08348852510692137,-0.6040813779114113 l 14.368739523045564 2.1117098951671904" fill="#ffa20e" stroke="none" /><path d="M 79.2786578344484 96.59031103205396 l -21.645794908063113 -3.561807314930781 a42.936884659190454,42.936884659190454 0 0,0 0.12591789895481564,-0.7262609797918749 l 21.581462191616065 3.9328613276432485" fill="#fbff18" stroke="none" /><path d="M 79.407916724674 95.88100663000787 l -5.191188355020695 -1.038383058713232 a26.294022658992414,26.294022658992414 0 0,0 0.09233244869095572,-0.4418441917089099 l 5.172598195505373 1.127343701707551" fill="#ff1e03" stroke="none" /><path d="M 79.83685265289637 94.1308016681162 l -9.974975387927968 -2.9035699585768575 a31.38897745180529,31.38897745180529 0 0,0 0.1550371548868731,-0.5160682655165257 l 9.923661913037465 3.0743758276841064" fill="#ff6809" stroke="none" /><path d="M 80.16572619554312 93.10060997987247 l -11.942831536052243 -4.154336756881297 a33.644751440344685,33.644751440344685 0 0,0 0.19443434827209652,-0.5438674769166506 l 11.869757017736204 4.358739190178869" fill="#ff880c" stroke="none" /><path d="M 80.41425534168474 92.42381321644754 l -9.570760614451808 -3.7021758090249373 a31.261849953106477,31.261849953106477 0 0,0 0.19790436932266464,-0.4988482913955993 l 9.505797570163011 3.865925117634119" fill="#ff6709" stroke="none" /><path d="M 80.9802524753101 91.09779779509293 l -10.868648679490748 -5.087076372245397 a33.000244586476285,33.000244586476285 0 0,0 0.24454869285962227,-0.5110127127769702 l 10.77972072867122 5.272901587087454" fill="#ff7f0b" stroke="none" /><line stroke="#e1ed5e" stroke-width="0.3" x1="26.387840678322718" x2="22.05771365940052" y1="57.49999999999999" y2="54.99999999999999" /><path d="M 25.521815274538284 56.99999999999999 a86.0,86.0 0 0,1 29.574782752854787,-30.34633250058573" fill="none" id="id71" stroke="none" /><text fill="#e1ed5e" style="font-size:6.75px; font-family:Arial;" text-anchor="middle"><textPath startOffset="21.40746469413373" xlink:href="#id71">November</textPath></text><path d="M 85.86807049272753 84.46653392183569 l -6.197424792799494 -6.812055476315876 a30.209352522018634,30.209352522018634 0 0,0 0.3865861685565417,-0.34568773573186823 l 6.079573597419561 6.917438741931146" fill="#ff5808" stroke="none" /><path d="M 87.54013794807813 83.09580414077388 l -3.1650586219789423 -4.2940098878230994 a26.334427522919942,26.334427522919942 0 0,0 0.3661977579820502,-0.2650989364131821 l 3.090879853622924 4.347709595609361" fill="#ff1f03" stroke="none" /><line stroke="#e1ed5e" stroke-width="0.3" x1="56.869717070023135" x2="54.33264160355391" y1="26.7553504044142" y2="22.446841604673864" /><path d="M 56.362301976729285 25.89364864446614 a86.0,86.0 0 0,1 42.16139366436587,-11.88097634709845" fill="none" id="id72" stroke="none" /><text fill="#e1ed5e" style="font-size:6.75px; font-family:Arial;" text-anchor="middle"><textPath startOffset="22.145653131862474" xlink:href="#id72">December</textPath></text><path d="M 97.12497278360702 79.19773525538626 l -0.44914467231047783 -3.2497871076703677 a24.280677854018194,24.280677854018194 0 0,0 0.4133752777303117,-0.05351970576356801 l 0.3932915726893721 3.2570184096343304" fill="#ff0000" stroke="none" /></svg>