<?xml version="1.0" encoding="utf-8" ?>
<svg baseProfile="full" height="200mm" version="1.1" viewBox="0,0,200,200" width="200mm" xmlns="http://www.w3.org/2000/svg" xmlns:ev="http://www.w3.org/2001/xml-events" xmlns:xlink="http://www.w3.org/1999/xlink"><defs /><rect fill="#1a1a1a" height="200" width="200" x="0" y="0" /><rect fill="#1a1a1a" height="200" width="180" x="10" y="0" /><text alignment-baseline="middle" fill="#e1ed5e" style="dominant-baseline: central; font-size:9.0px; font-family:Arial;" text-anchor="middle" x="100.0" y="100.0">2022</text><line stroke="#e1ed5e" stroke-width="0.3" x1="100.0" x2="100.0" y1="15.0" y2="10.0" /><path d="M 100.0 14.0 a86.0,86.0 0 0,1 42.46469731375804,11.215312516191453" fill="none" id="id37" stroke="none" /><text fill="#e1ed5e" style="font-size:6.75px; font-family:Arial;" text-anchor="middle"><textPath startOffset="22.20632615414155" xlink:href="#id37">January</textPath></text><path d="M 102.52436894288641 79.15227682838746 l 0.815136930329267 -6.731880107442471 a27.78105139312233,27.78105139312233 0 0,0 0.47424275004766375,0.06157031981424806 l -0.9308944088847769 6.716851464464087" fill="red" stroke="none" /><path d="M 106.40334571778207 80.00007090966166 l 8.662781911092875 -27.056952971599607 a49.409901347004194,49.409901347004194 0 0,0 0.8077746611301931,0.2663106056279025 l -9.127239394465485 26.903828641712465" fill="red" stroke="none" /><path d="M 107.08798089147638 80.2323363322302 l 8.602892196389602 -23.99259847226941 a46.48832155310046,46.48832155310046 0 0,0 0.7509362055228259,0.2765761419053893 l -9.014610727685003 23.840959062557697" fill="red" stroke="none" /><path d="M 108.09893153111575 80.62456947434976 l 7.852668218310377 -18.78628395860677 a41.36145532913274,41.36145532913274 0 0,0 0.6545277813000538,0.2802346375416641 l -8.174879757400747 18.648329793102317" fill="red" stroke="none" /><path d="M 109.41281617654863 81.2277094730956 l 8.63638003165451 -17.223818251002978 a40.267770374247874,40.267770374247874 0 0,0 0.6169396574332602,0.31602045460361416 l -8.931580176676526 17.072605271086864" fill="red" stroke="none" /><line stroke="#e1ed5e" stroke-width="0.3" x1="143.23703022742887" x2="145.7803849466894" y1="26.81831364943548" y2="22.513508569990506" /><path d="M 143.74570117128098 25.957352633546492 a86.0,86.0 0 0,1 28.547481713284135,27.462654790039103" fill="none" id="id38" stroke="none" /><text fill="#e1ed5e" style="font-size:6.75px; font-family:Arial;" text-anchor="middle"><textPath startOffset="19.985693538727396" xlink:href="#id38">February</textPath></text><path d="M 113.89432698308785 84.25364557470407 l 20.66819456800778 -23.423136463893684 a52.238079142405866,52.238079142405866 0 0,0 0.6691175865903936,0.6007403758513764 l -21.068323142194167 23.063897079273012" fill="red" stroke="none" /><path d="M 115.68641384162765 86.03803664274999 l 21.413799303880836 -19.059721631650348 a49.667469182034324,49.667469182034324 0 0,0 0.562917227658126,0.6435117012952877 l -21.73870839511681 18.688294374152115" fill="red" stroke="none" /><path d="M 116.82858285166822 87.43820079747576 l 22.082292252492152 -16.483462906668066 a48.55598266293505,48.55598266293505 0 0,0 0.49420137529568514,0.6740901205086383 l -22.362756240301465 16.100910342487936" fill="red" stroke="none" /><path d="M 117.65298651832404 88.62581576622439 l 26.888180406640537 -17.32461061694395 a52.98619043601121,52.98619043601121 0 0,0 0.48740332249018287,0.7709550060183932 l -27.182411325376677 16.85920796321135" fill="red" stroke="none" /><line stroke="#e1ed5e" stroke-width="0.3" x1="172.23445277983987" x2="176.4835382374775" y1="55.19839476539836" y2="52.563006222186495" /><path d="M 173.08426987136738 54.67131705675599 a86.0,86.0 0 0,1 12.851231095245387,41.99856678651699" fill="none" id="id39" stroke="none" /><text fill="#e1ed5e" style="font-size:6.75px; font-family:Arial;" text-anchor="middle"><textPath startOffset="22.20632615414155" xlink:href="#id39">March</textPath></text><path d="M 119.61058180528143 92.48833698450437 l 24.129097130705844 -9.24244106134636 a46.838654088700096,46.838654088700096 0 0,0 0.281913855122442,0.7553889729775782 l -24.284615574329912 8.82572895133945" fill="red" stroke="none" /><path d="M 119.97218684219823 93.5106431181261 l 29.958907409003967 -9.734239094803337 a52.500659420019616,52.500659420019616 0 0,0 0.271864705260962,0.8618854094073816 l -30.122027598033135 9.217103518969536" fill="red" stroke="none" /><path d="M 120.37134235888165 94.90015583598534 l 5.827140894164205 -1.4587899981484507 a27.006965894620908,27.006965894620908 0 0,0 0.10901451773040799,0.4519355554019298 l -5.851388212155433 1.3582692110871148" fill="red" stroke="none" /><path d="M 120.73433829027371 96.67025291283417 l 9.595265719414138 -1.5409128390072007 a30.71820644993619,30.71820644993619 0 0,0 0.07934674590590116,0.5227959167109744 l -9.62036835875934 1.375517809904144" fill="red" stroke="none" /><path d="M 120.87857604477298 97.74499172005257 l 17.37539720143393 -1.87664448344494 a38.47644764890286,38.47644764890286 0 0,0 0.06545187159790786,0.6590914148038177 l -17.405126198714065 1.5772775379366875" fill="red" stroke="none" /><path d="M 120.98425023603335 99.18683210126433 l 32.05037839631679 -1.2419952374311056 a53.07443386120621,53.07443386120621 0 0,0 0.027518602498784333,0.9132084458367274 l -32.06700869327122 0.6901166441693792" fill="red" stroke="none" /><line stroke="#e1ed5e" stroke-width="0.3" x1="184.98032266829074" x2="189.97916517819016" y1="98.17113171792111" y2="98.06355123074" /><path d="M 185.9800911702706 98.14961562048488 a86.0,86.0 0 0,1 -9.607161424134198,41.387399972396054" fill="none" id="id40" stroke="none" /><text fill="#e1ed5e" style="font-size:6.75px; font-family:Arial;" text-anchor="middle"><textPath startOffset="21.466115282336823" xlink:href="#id40">April</textPath></text><path d="M 120.76222939487914 103.15116336523771 l 31.343583368768808 4.757136132562847 a52.702532431632264,52.702532431632264 0 0,0 -0.1438484142713553,0.8957442129817637 l -31.257053200136163 -5.2959595752378155" fill="red" stroke="none" /><path d="M 120.64145759157962 103.86396538481128 l 17.66644686267459 3.3070600197259883 a38.97331329292891,38.97331329292891 0 0,0 -0.12911314371188118,0.6583451381593771 l -17.606903785987047 -3.6106688849533106" fill="red" stroke="none" /><path d="M 120.13307415673323 105.97154293290107 l 30.536957024423266 9.05737238595097 a52.85187182646038,52.85187182646038 0 0,0 -0.2662053839131862,0.8699745971687237 l -30.376524868003948 -9.581673955671752" fill="red" stroke="none" /><path d="M 120.02730092923936 106.31721596034902 l 11.073459445320156 3.4929037612913594 a32.611282477521314,32.611282477521314 0 0,0 -0.17347299795415305,0.533894989947937 l -11.011694196349756 -3.6829976512170917" fill="red" stroke="none" /><path d="M 119.26925614724726 108.34839909993367 l 23.50769919103908 10.184703201219207 a46.619135437272355,46.619135437272355 0 0,0 -0.3253547581167863,0.733589088405683 l -23.328903348191023 -10.587840626117577" fill="red" stroke="none" /><path d="M 118.97047184881838 109.00673069616215 l 28.67877086753569 13.616001117912289 a52.746927172808434,52.746927172808434 0 0,0 -0.39647288941945935,0.8168515835948863 l -28.440144721501515 -14.10764165747245" fill="red" stroke="none" /><line stroke="#e1ed5e" stroke-width="0.3" x1="174.80103733775053" x2="179.2010983576182" y1="140.37084112569926" y2="142.7455964860345" /><path d="M 175.68104954172406 140.8457921977663 a86.0,86.0 0 0,1 -30.038265399797805,32.042727171017184" fill="none" id="id41" stroke="none" /><text fill="#e1ed5e" style="font-size:6.75px; font-family:Arial;" text-anchor="middle"><textPath startOffset="22.206326154141568" xlink:href="#id41">May</textPath></text><path d="M 118.30583269289576 110.29060199501025 l 28.27619200832638 15.895427581674614 a53.43775042286383,53.43775042286383 0 0,0 -0.4576510830313998,0.7979532387898346 l -27.9983889291426 -16.379800666322765" fill="red" stroke="none" /><path d="M 117.75023020441432 111.22182372390056 l 26.574117316543855 16.800348880565277 a52.43939302311905,52.43939302311905 0 0,0 -0.4889227676850547,0.7588189929978829 l -26.28098968548175 -17.255289473484613" fill="red" stroke="none" /><path d="M 117.35343817320211 111.8261652097733 l 14.424789412865035 9.830325322860956 a38.45594012245644,38.45594012245644 0 0,0 -0.37748917195573234,0.5438013066750579 l -14.253439333747167 -10.077167891723033" fill="red" stroke="none" /><path d="M 116.71984013943494 112.70617746262583 l 19.29385323345933 14.662288698800714 a45.23294209297023,45.23294209297023 0 0,0 -0.4764389727683281,0.6158615969229111 l -19.038607443472934 -14.992228289836879" fill="red" stroke="none" /><path d="M 116.27256486870786 113.27417163493432 l 27.304751604057575 22.273560570558608 a56.23720988741344,56.23720988741344 0 0,0 -0.618352224658578,0.7448450886435339 l -26.91730337950545 -22.740266916315914" fill="red" stroke="none" /><path d="M 115.56566222782051 114.09645910891815 l 25.637804607339447 23.217917683184698 a55.588563523616536,55.588563523616536 0 0,0 -0.6484103956889455,0.7037214219118927 l -25.234347803654778 -23.655790359897924" fill="red" stroke="none" /><path d="M 115.07121518719521 114.62390073753431 l 25.307144426198043 24.556027064997387 a56.262586748923155,56.262586748923155 0 0,0 -0.6804005411197729,0.689242155923713 l -24.880703260022734 -24.988009714901764" fill="red" stroke="none" /><path d="M 114.81725581225074 114.88116024355365 l 20.017861184273112 20.104194986637783 a49.3706436735859,49.3706436735859 0 0,0 -0.60737657830041,0.5944458176910746 l -19.668834653596907 -20.44579090725143" fill="red" stroke="none" /><path d="M 114.29624159901734 115.38237550388516 l 21.339439406344713 22.960668908488582 a52.345876776735594,52.345876776735594 0 0,0 -0.6652922902506073,0.6077287332159781 l -20.94104756662724 -23.324590408291144" fill="red" stroke="none" /><path d="M 113.48314897796784 116.09983520530334 l 17.673019691214993 21.102837703090238 a48.52572222720123,48.52572222720123 0 0,0 -0.6449989813121287,0.5307902503128017 l -17.307150581358172 -21.403923072260216" fill="red" stroke="none" /><path d="M 112.92097659922987 116.55440617244103 l 11.049570912211431 14.156753826397319 a38.958471433983576,38.958471433983576 0 0,0 -0.5321936302960367,0.40806338181040835 l -10.8042485534219 -14.344856550035098" fill="red" stroke="none" /><path d="M 112.04921762599082 117.19931262002967 l 9.129084361673012 13.031051537516463 a36.91064063625198,36.91064063625198 0 0,0 -0.5235038189364997,0.3600707002272029 l -8.903423658113628 -13.18626302710876" fill="red" stroke="none" /><path d="M 111.45004920935366 117.60387380957326 l 26.886700351791244 41.33694724753584 a70.31164024398876,70.31164024398876 0 0,0 -1.0202493481082275,0.6511714053898582 l -26.171169201636086 -41.793633081749505" fill="red" stroke="none" /><line stroke="#e1ed5e" stroke-width="0.3" x1="143.8653032363475" x2="146.44561519142675" y1="172.8068346515853" y2="177.08958963109032" /><path d="M 144.38136562736335 173.6633856474863 a86.0,86.0 0 0,1 -40.68145358897372,12.25698825130547" fill="none" id="id42" stroke="none" /><text fill="#e1ed5e" style="font-size:6.75px; font-family:Arial;" text-anchor="middle"><textPath startOffset="21.466115282336833" xlink:href="#id42">June</textPath></text><path d="M 110.8373102113329 117.98757091392108 l 16.197601370417466 26.8844849509918 a52.38690525099686,52.38690525099686 0 0,0 -0.7764041929286754,0.4587132824126368 l -15.732429306460409 -27.159316805698186" fill="red" stroke="none" /><path d="M 109.2508944713604 118.85261126421891 l 5.504799630413358 11.21835816427139 a33.49617456955822,33.49617456955822 0 0,0 -0.5198085220319896,0.2495396792872178 l -5.310878440381136 -11.311452120058167" fill="red" stroke="none" /><path d="M 108.59647513512805 119.15986991738527 l 9.349831778425196 20.838955247137278 a43.840346102391706,43.840346102391706 0 0,0 -0.691172962397639,0.3029899150141114 l -8.989738141369804 -20.996809715445842" fill="red" stroke="none" /><path d="M 106.57524785965236 119.94407469862006 l 11.212698856004863 34.01041425822629 a56.811072221473836,56.811072221473836 0 0,0 -0.9313733108738311,0.29819632234204196 l -10.62560420004009 -34.19838342722804" fill="red" stroke="none" /><path d="M 104.48393922423573 120.51570834832081 l 7.964308768077302 36.4397079689897 a58.299899879470516,58.299899879470516 0 0,0 -0.982238208341383,0.2058375666811515 l -7.335879098306541 -36.571401516397394" fill="red" stroke="none" /><path d="M 101.26447882468166 120.96189622390904 l 2.2170974766623495 36.75393080290363 a57.82074076774734,57.82074076774734 0 0,0 -0.9939989195394254,0.051378390279942676 l -1.5841104887094446 -36.786648999945776" fill="red" stroke="none" /><line stroke="#e1ed5e" stroke-width="0.3" x1="102.19456741930631" x2="102.32365962044197" y1="184.97166512339345" y2="189.96999836594603" /><path d="M 102.22038585953345 185.97133177190398 a86.0,86.0 0 0,1 -42.740103519485714,-10.115201625700543" fill="none" id="id43" stroke="none" /><text fill="#e1ed5e" style="font-size:6.75px; font-family:Arial;" text-anchor="middle"><textPath startOffset="22.20632615414155" xlink:href="#id43">July</textPath></text><path d="M 100.54218724476979 120.99299961872073 l 0.8074068743653542 31.262063741283836 a52.27248847189596,52.27248847189596 0 0,0 -0.8996849734935246,0.015488892723392255 l -0.2691622109791617 -31.271330111286385" fill="red" stroke="none" /><path d="M 99.45781275523022 120.99299961872073 l -0.8065939996011666 31.230589965796085 a52.24100420107964,52.24100420107964 0 0,0 -0.8987434107585499,-0.03095454027130073 l 1.3440577620343594 -31.21207862709869" fill="red" stroke="none" /><path d="M 98.73552117531835 120.96189622390904 l -1.4139697320653488 23.440081564643435 a44.482690096331254,44.482690096331254 0 0,0 -0.7639102166413015,-0.052683721098324046 l 1.8172427094855805 -23.412269499028824" fill="red" stroke="none" /><path d="M 96.93821686468263 120.77559828337769 l -3.3859651737355314 22.975321615567346 a44.22348301819746,44.22348301819746 0 0,0 -0.7521448628770431,-0.11746955894102754 l 3.7809459002210914 -22.91363374927921" fill="red" stroke="none" /><path d="M 96.22490169976321 120.6578951692458 l -5.653601445088094 30.937341677698992 a52.44967916183873,52.44967916183873 0 0,0 -0.8867302241798506,-0.16994395789978461 l 6.1852992838396395 -30.83544052145074" fill="red" stroke="none" /><path d="M 94.81253420990036 120.34920634021253 l -6.213363281242836 24.37356053856152 a46.15305819560755,46.15305819560755 0 0,0 -0.7681397587067791,-0.202872691788086 l 6.6319934827611045 -24.262996497469853" fill="red" stroke="none" /><path d="M 94.11515582081647 120.15858648285463 l -13.20165473327949 45.222386617979105 a68.10995583868336,68.10995583868336 0 0,0 -1.1225981050256193,-0.3382296002315441 l 13.978127812745356 -44.98844164864184" fill="red" stroke="none" /><path d="M 93.76903079525671 120.05430185196036 l -10.212685434392297 32.86940918669809 a55.419427712622436,55.419427712622436 0 0,0 -0.9085583823205483,-0.2908917026909781 l 10.776965161803785 -32.688744637347405" fill="red" stroke="none" /><path d="M 93.08242187328487 119.8279376855182 l -8.847568524495344 25.359892459263033 a47.8589578044463,47.8589578044463 0 0,0 -0.7754984375952552,-0.27806614880882835 l 9.282786522720325 -25.203838769414247" fill="red" stroke="none" /><path d="M 92.40401165467489 119.57807347666478 l -11.425294671820168 29.447814873900775 a52.586566118928694,52.586566118928694 0 0,0 -0.8410818686990215,-0.3346838335068497 l 11.930497616561048 -29.24678419598786" fill="red" stroke="none" /><path d="M 91.7346041902142 119.30500536409082 l -10.851066719120507 25.344206864324093 a48.56944813601566,48.56944813601566 0 0,0 -0.7657304819579901,-0.3356737405458366 l 11.285717875736239 -25.153668570483806" fill="red" stroke="none" /><path d="M 91.40352486487194 119.15986991738527 l -19.509069461862225 43.48191871934563 a68.65795890282698,68.65795890282698 0 0,0 -1.074111278326852,-0.49307180604847894 l 20.254648735956494 -43.13965984296308" fill="red" stroke="none" /><path d="M 90.7491055286396 118.85261126421891 l -3.464991899248573 7.061386929927293 a28.865707484772507,28.865707484772507 0 0,0 -0.44418288455603466,-0.22272251940181942 l 3.586028691487368 -7.000696569616172" fill="red" stroke="none" /><line stroke="#e1ed5e" stroke-width="0.3" x1="58.666819895761336" x2="56.23545636021788" y1="174.27360380694188" y2="178.64263932499728" /><path d="M 58.180547188652646 175.14741091055294 a86.0,86.0 0 0,1 -31.652253787137756,-30.449443065178592" fill="none" id="id44" stroke="none" /><text fill="#e1ed5e" style="font-size:6.75px; font-family:Arial;" text-anchor="middle"><textPath startOffset="22.20632615414155" xlink:href="#id44">August</textPath></text><path d="M 89.4739219176387 118.17145234162733 l -9.607515463445088 16.585712931199954 a40.1674261917585,40.1674261917585 0 0,0 -0.5953044556653012,-0.3517163654964759 l 9.89158779013877 -16.41787799340973" fill="red" stroke="none" /><path d="M 88.54995079064634 117.60387380957326 l -18.165041571279666 27.927836266872266 a54.31565358559763,54.31565358559763 0 0,0 -0.7793657466579086,-0.5165211193696321 l 18.643082016677536 -27.611017126411316" fill="red" stroke="none" /><path d="M 87.65650970185807 116.9893568818739 l -4.121583063839607 5.672872412789023 a28.01205592989048,28.01205592989048 0 0,0 -0.38765354584295014,-0.2867768257272227 l 4.2186215801011215 -5.601085638322035" fill="red" stroke="none" /><path d="M 87.36589467227662 116.77436683061367 l -17.37758927220517 23.072314938206507 a49.884465124375204,49.884465124375204 0 0,0 -0.68144856850723,-0.5225057038736828 l 17.77216656920589 -22.769769892505458" fill="red" stroke="none" /><path d="M 86.79598089348748 116.32954008644616 l -29.46210790325279 36.436078148363016 a67.8572683042506,67.8572683042506 0 0,0 -0.9019519323368587,-0.7422450357382991 l 30.084929964134336 -35.92353799376754" fill="red" stroke="none" /><path d="M 85.44109423537348 115.13401014063109 l -21.48369139147061 22.332337926568464 a51.98842224235362,51.98842224235362 0 0,0 -0.6395814934390179,-0.6259651053903382 l 21.864922837285423 -21.959222718255557" fill="red" stroke="none" /><path d="M 83.95833913139862 113.55231037782056 l -31.114456082117446 26.28610400854874 a61.731666320373606,61.731666320373606 0 0,0 -0.6787661279338916,-0.8176175269819754 l 31.562318209944873 -25.746625224453005" fill="red" stroke="none" /><path d="M 83.50135304334701 112.99209946851258 l -25.066173374296277 19.73872273462506 a52.905018771733765,52.905018771733765 0 0,0 -0.5572490232027442,-0.7203194804138161 l 25.402229214717092 -19.304325260097993" fill="red" stroke="none" /><path d="M 82.85270091963577 112.12312394758628 l -28.57595187005411 20.20317047118113 a55.99647299896454,55.99647299896454 0 0,0 -0.5496696260060293,-0.7918400925595972 l 28.919482403222272 -19.708289116434525" fill="red" stroke="none" /><path d="M 82.44556493220864 111.52570212397912 l -29.564158964024703 19.410917437640297 a56.36697910510608,56.36697910510608 0 0,0 -0.5255419226146408,-0.815652734653371 l 29.893905750016387 -18.899143103065477" fill="red" stroke="none" /><path d="M 82.05923443525364 110.91462005526583 l -50.03869982650948 30.442034075682898 a79.5712294475074,79.5712294475074 0 0,0 -0.7018149256134469,-1.1762821836472388 l 50.55529562782116 -29.57618979814955" fill="red" stroke="none" /><line stroke="#e1ed5e" stroke-width="0.3" x1="26.63291911575756" x2="22.317208475507996" y1="142.92168965132927" y2="145.44649492493687" /><path d="M 25.769776987707644 143.4266507060508 a86.0,86.0 0 0,1 -11.730757126820373,-40.83630448921669" fill="none" id="id45" stroke="none" /><text fill="#e1ed5e" style="font-size:6.75px; font-family:Arial;" text-anchor="middle"><textPath startOffset="21.46611528233685" xlink:href="#id45">September</textPath></text><path d="M 81.02952815118164 109.00673069616217 l -29.424018163478596 13.96982688197832 a53.571903659398885,53.571903659398885 0 0,0 -0.38833350291294694,-0.8364358175042315 l 29.660126283231367 -13.46127099719526" fill="red" stroke="none" /><path d="M 80.73074385275274 108.34839909993369 l -39.169725878063 16.970271284280226 a63.68790850843672,63.68790850843672 0 0,0 -0.42716092492035523,-1.0096822452143608 l 39.456037784175656 -16.293514513399707" fill="red" stroke="none" /><path d="M 80.0844068197444 106.66101706037122 l -36.10139521806105 12.07455922975539 a59.067121210875825,59.067121210875825 0 0,0 -0.3142026261627282,-0.9670162498782634 l 36.30389009524003 -11.451344079899323" fill="red" stroke="none" /><path d="M 79.86692584326677 105.97154293290107 l -44.72245037189888 13.26484124487351 a67.64818946667336,67.64818946667336 0 0,0 -0.321513686195138,-1.1192313202783044 l 44.944156694980116 -12.493052449090609" fill="red" stroke="none" /><path d="M 79.4281124754447 104.21870165774334 l -51.351867431045825 10.530789068381923 a73.42052848892747,73.42052848892747 0 0,0 -0.2432319565684131,-1.2402345063268179 l 51.525529320589904 -9.645290834987149" fill="red" stroke="none" /><path d="M 79.29508885075956 103.50808413554451 l -33.26433301409361 5.636057942247785 a54.73842023570298,54.73842023570298 0 0,0 -0.14940524842594838,-0.9303466245668423 l 33.35642001688085 -5.062632087987729" fill="red" stroke="none" /><path d="M 79.07016306316243 101.71520430193888 l -52.0819293274698 4.268124472509655 a73.25652350649051,73.25652350649051 0 0,0 -0.09217568815849957,-1.2576640309974452 l 52.14768157429264 -3.3709873050154493" fill="red" stroke="none" /><path d="M 79.04373962182676 101.35467743843564 l -46.53913257981102 3.0084333641845493 a67.63626842477822,67.63626842477822 0 0,0 -0.06510360939119955,-1.1624686798109924 l 46.58402254008975 -2.2068929680381193" fill="red" stroke="none" /><line stroke="#e1ed5e" stroke-width="0.3" x1="15.007084014347285" x2="10.007500721073583" y1="101.09737516637583" y2="101.16192664675087" /><path d="M 14.007167355692545 101.11028546245083 a86.0,86.0 0 0,1 10.666146001902534,-42.60595125391555" fill="none" id="id46" stroke="none" /><text fill="#e1ed5e" style="font-size:6.75px; font-family:Arial;" text-anchor="middle"><textPath startOffset="22.20632615414155" xlink:href="#id46">October</textPath></text><path d="M 79.00486145842228 99.54816195383935 l -47.25541872607797 -1.0169876243212381 a68.26636079501978,68.26636079501978 0 0,0 0.03539547593987373,-1.1746035277093636 l 47.23091155568245 1.8302612994555962" fill="red" stroke="none" /><path d="M 79.26566170972629 96.67025291283419 l -42.98398641555989 -6.902839220537089 a64.53472496154791,64.53472496154791 0 0,0 0.18557770989201308,-1.0952901487345217 l 42.858796844147655 7.641715157587439" fill="red" stroke="none" /><path d="M 79.3925641242962 95.95851677861259 l -31.691033501491173 -6.215173053902741 a53.29473611105368,53.29473611105368 0 0,0 0.18430006001948962,-0.8987125454891193 l 31.57935414555669 6.759761255555262" fill="red" stroke="none" /><path d="M 79.54389044137918 95.25157060432595 l -15.879296662508251 -3.6860244045332853 a37.30149804179851,37.30149804179851 0 0,0 0.15056873976571242,-0.624204633005528 l 15.813495122481724 3.95881426919821" fill="red" stroke="none" /><path d="M 79.81627453868168 94.20196356495316 l -45.83224311517521 -13.165905173997247 a68.68580048630004,68.68580048630004 0 0,0 0.33621405915016644,-1.1335466664924694 l 45.59882315891333 13.952881227236256" fill="red" stroke="none" /><path d="M 80.02781315780177 93.51064311812611 l -31.73518174206634 -10.311385611528264 a54.36834478111872,54.36834478111872 0 0,0 0.29685816884535277,-0.8875681400266805 l 31.552986279449218 10.856126854477267" fill="red" stroke="none" /><path d="M 80.65960295795068 91.81776055985345 l -43.66122815382399 -18.471524769048955 a68.4078060154007,68.4078060154007 0 0,0 0.46813510684251564,-1.0805203701077328 l 43.3368023371388 19.220344283743287" fill="red" stroke="none" /><path d="M 80.95270993114464 91.15688171328213 l -42.46256763496295 -19.714169679587446 a67.8157893910737,67.8157893910737 0 0,0 0.5006801177733072,-1.0545600173799738 l 42.1169293233479 20.44217211260795" fill="red" stroke="none" /><line stroke="#e1ed5e" stroke-width="0.3" x1="26.266209847984243" x2="21.928928074336255" y1="57.711370442889674" y2="55.22380399835377" /><path d="M 25.398753493254645 57.213857153982495 a86.0,86.0 0 0,1 29.58750427330803,-30.492523968695096" fill="none" id="id47" stroke="none" /><text fill="#e1ed5e" style="font-size:6.75px; font-family:Arial;" text-anchor="middle"><textPath startOffset="21.46611528233685" xlink:href="#id47">November</textPath></text><path d="M 81.78341655067845 89.55222093294921 l -54.64975034796462 -31.34333720115236 a84.0,84.0 0 0,0 0.7301613021187001,-1.2480823505844327 l 54.1021293713756 32.27939896409068" fill="red" stroke="none" /><path d="M 82.95767976084542 87.72973835380427 l -45.840288514420166 -33.00444576301068 a77.48562198656217,77.48562198656217 0 0,0 0.7886464005316174,-1.0757128040264843 l 45.265379501374916 33.78862101070867" fill="red" stroke="none" /><path d="M 84.80347519578584 85.50635884689758 l -32.646889119850634 -31.136875158261372 a66.11456930776328,66.11456930776328 0 0,0 0.7925428468876666,-0.8167850702007938 l 32.10608200925985 31.69422442401229" fill="red" stroke="none" /><path d="M 85.31137513191541 84.99185889309783 l -33.30684229938304 -34.03135375460528 a68.61805101352908,68.61805101352908 0 0,0 0.851245337127694,-0.8188973398760362 l 32.71611371864292 34.59963418124363" fill="red" stroke="none" /><path d="M 86.65592168130627 83.78471172551755 l -29.041510746490566 -35.29029562282449 a66.70354812905528,66.70354812905528 0 0,0 0.89286384203651,-0.7219671324086965 l 28.429743505889554 35.784968852497315" fill="red" stroke="none" /><path d="M 87.22198572758235 83.33499621200491 l -28.63561768646709 -37.34638786925244 a68.06114413362846,68.06114413362846 0 0,0 0.9358531975328482,-0.7048652261102444 l 27.98851833517585 37.833769684868535" fill="red" stroke="none" /><line stroke="#e1ed5e" stroke-width="0.3" x1="56.762969772571076" x2="54.21961505331055" y1="26.818313649435495" y2="22.513508569990535" /><path d="M 56.25429882871897 25.957352633546506 a86.0,86.0 0 0,1 42.265352541879196,-11.944610805530505" fill="none" id="id48" stroke="none" /><text fill="#e1ed5e" style="font-size:6.75px; font-family:Arial;" text-anchor="middle"><textPath startOffset="22.20632615414155" xlink:href="#id48">December</textPath></text><path d="M 89.3179101791058 81.91981866633112 l -8.395042238400805 -14.209193942294531 a37.503876110607266,37.503876110607266 0 0,0 0.5586349996482749,-0.32359744919051253 l 8.14921050628721 14.351595548875093" fill="red" stroke="none" /><path d="M 90.91171255644093 81.06846463323043 l -20.083030941868763 -41.834351401084724 a67.40518385871881,67.40518385871881 0 0,0 1.050306896663273,-0.4931331710613212 l 19.359945833905883 42.17384955478605" fill="red" stroke="none" /><path d="M 91.90106846888425 80.62456947434976 l -14.072515050024904 -33.6662974153285 a57.48911154701539,57.48911154701539 0 0,0 0.9163110932294736,-0.3737863021296654 l 13.49092008720705 33.90354460364175" fill="red" stroke="none" /><path d="M 92.91201910852362 80.23233633223022 l -12.366637982670396 -34.48930578191443 a57.63940431165363,57.63940431165363 0 0,0 0.9368269507923642,-0.3268405280520841 l 11.771129027814746 34.697067163138726" fill="red" stroke="none" /><path d="M 96.04723909329186 79.375362276772 l -6.600353502554498 -34.43919403382144 a56.06597712966067,56.06597712966067 0 0,0 0.9493969051162352,-0.17349621601769674 l 6.006561476335369 34.54770573118987" fill="red" stroke="none" /><path d="M 98.19473922651362 79.07773832637324 l -1.7603980641639676 -20.40232053403247 a41.47812697777107,41.47812697777107 0 0,0 0.7118630423649299,-0.055254272719848514 l 1.4089448324367033 20.42960006894078" fill="red" stroke="none" /></svg>