<?xml version="1.0" encoding="utf-8" ?>
<svg baseProfile="full" height="200mm" version="1.1" viewBox="0,0,200,200" width="200mm" xmlns="http://www.w3.org/2000/svg" xmlns:ev="http://www.w3.org/2001/xml-events" xmlns:xlink="http://www.w3.org/1999/xlink"><defs /><rect fill="#1a1a1a" height="200" width="200" x="0" y="0" /><rect fill="#1a1a1a" height="200" width="180" x="10" y="0" /><text alignment-baseline="middle" fill="#e1ed5e" style="dominant-baseline: central; font-size:9.0px; font-family:Arial;" text-anchor="middle" x="100.0" y="100.0">2020</text><line stroke="#e1ed5e" stroke-width="0.3" x1="100.0" x2="100.0" y1="15.0" y2="10.0" /><path d="M 100.0 14.0 a86.0,86.0 0 0,1 42.35913384403234,11.155469271406648" fill="none" id="id13" stroke="none" /><text fill="#e1ed5e" style="font-size:6.75px; font-family:Arial;" text-anchor="middle"><textPath startOffset="22.145653131862478" xlink:href="#id13">January</textPath></text><line stroke="#e1ed5e" stroke-width="0.3" x1="143.13028292997686" x2="145.6673583964461" y1="26.7553504044142" y2="22.446841604673864" /><path d="M 143.63769802327073 25.89364864446614 a86.0,86.0 0 0,1 29.32050498858742,28.57503671076993" fill="none" id="id14" stroke="none" /><text fill="#e1ed5e" style="font-size:6.75px; font-family:Arial;" text-anchor="middle"><textPath startOffset="20.669276256404974" xlink:href="#id14">February</textPath></text><line stroke="#e1ed5e" stroke-width="0.3" x1="172.87174338648825" x2="177.1583165268699" y1="56.24261187166439" y2="53.66864786411523" /><path d="M 173.72905801456457 55.72781907015455 a86.0,86.0 0 0,1 12.242430191666344,42.057860355516425" fill="none" id="id15" stroke="none" /><text fill="#e1ed5e" style="font-size:6.75px; font-family:Arial;" text-anchor="middle"><textPath startOffset="22.145653131862474" xlink:href="#id15">March</textPath></text><line stroke="#e1ed5e" stroke-width="0.3" x1="184.99686870605535" x2="189.99668451229388" y1="99.2704041080226" y2="99.22748670261217" /><path d="M 185.99683186730306 99.26182062694052 a86.0,86.0 0 0,1 -10.086455211305974,41.156179273409016" fill="none" id="id16" stroke="none" /><text fill="#e1ed5e" style="font-size:6.75px; font-family:Arial;" text-anchor="middle"><textPath startOffset="21.40746469413373" xlink:href="#id16">April</textPath></text><path d="M 120.93736805541906 101.62068470465957 l 21.68403223309521 1.6784812342459972 a42.748897745394544,42.748897745394544 0 0,0 -0.06291493157023151,0.7311668722874255 l -21.652023678827234 -2.05046915390908" fill="red" stroke="none" /><path d="M 120.7213421655516 103.40968896794604 l 20.903684442188396 3.439693320177246 a42.184794391153794,42.184794391153794 0 0,0 -0.12371229817294173,0.7135396605976347 l -20.841557326523223 -3.798026013695469" fill="red" stroke="none" /><path d="M 120.65975698304385 103.76489593502545 l 21.29734657568954 3.881085998032311 a42.64808997785157,42.64808997785157 0 0,0 -0.1374359226612048,0.7191228222564594 l -21.227584360746178 -4.246111385322085" fill="red" stroke="none" /><path d="M 119.31412917781788 108.2440532568976 l 53.55705047985564 22.860320150771994 a79.23188038778756,79.23188038778756 0 0,0 -0.5446856662895716,1.2463473988128373 l -53.1567309315491 -23.776329619360677" fill="red" stroke="none" /><line stroke="#e1ed5e" stroke-width="0.3" x1="174.33088141563837" x2="178.70328620479359" y1="141.23008692659167" y2="143.65538615756765" /><path d="M 175.20536237346943 141.71514677278685 a86.0,86.0 0 0,1 -30.301960400862466,31.631185727798858" fill="none" id="id17" stroke="none" /><text fill="#e1ed5e" style="font-size:6.75px; font-family:Arial;" text-anchor="middle"><textPath startOffset="22.145653131862474" xlink:href="#id17">May</textPath></text><line stroke="#e1ed5e" stroke-width="0.3" x1="143.1302829299769" x2="145.66735839644613" y1="173.24464959558577" y2="177.55315839532614" /><path d="M 143.63769802327073 174.10635135553383 a86.0,86.0 0 0,1 -40.68552437913181,11.842963189579606" fill="none" id="id18" stroke="none" /><text fill="#e1ed5e" style="font-size:6.75px; font-family:Arial;" text-anchor="middle"><textPath startOffset="21.407464694133747" xlink:href="#id18">June</textPath></text><line stroke="#e1ed5e" stroke-width="0.3" x1="101.45913802915013" x2="101.54496967792366" y1="184.9874750549273" y2="189.98673829345242" /><path d="M 101.47630435890484 185.9873277026323 a86.0,86.0 0 0,1 -42.54439059252881,-10.42667462771756" fill="none" id="id19" stroke="none" /><text fill="#e1ed5e" style="font-size:6.75px; font-family:Arial;" text-anchor="middle"><textPath startOffset="22.145653131862474" xlink:href="#id19">July</textPath></text><path d="M 93.95794788825049 120.11202640906438 l -7.940210141121057 26.43037714640091 a48.59731460099249,48.59731460099249 0 0,0 -0.7969019285778995,-0.24688225452703028 l 8.39275270257059 -26.290178304067233" fill="red" stroke="none" /><path d="M 93.27111125876986 119.89276391827306 l -7.6186636669367385 22.523225383481456 a44.77687359063435,44.77687359063435 0 0,0 -0.7260127144514618,-0.2525449091787057 l 8.004182153433222 -22.38912204173416" fill="red" stroke="none" /><path d="M 91.92203290615298 119.3841803445677 l -11.391459353259163 27.335355532654003 a50.61396643973167,50.61396643973167 0 0,0 -0.7991340941864739,-0.3411028253576285 l 11.859028522616068 -27.135778057636973" fill="red" stroke="none" /><path d="M 91.59046798132341 119.24265499422711 l -12.337227430145742 28.22999074102692 a51.80810863882439,51.80810863882439 0 0,0 -0.8118740084017283,-0.36314091733760434 l 12.820014841403104 -28.01404607277946" fill="red" stroke="none" /><path d="M 90.93487009805054 118.94263497670748 l -12.84840541494454 26.84822572213848 a50.76421922600481,50.76421922600481 0 0,0 -0.7828320047883363,-0.3829223617539985 l 13.307397668994946 -26.62370961028726" fill="red" stroke="none" /><path d="M 90.28995756902619 118.62028667847754 l -14.57753421909031 27.95434398504019 a52.5269702245982,52.5269702245982 0 0,0 -0.7959366380149238,-0.4237914284335238 l 15.055259672891797 -27.69998208888409" fill="red" stroke="none" /><line stroke="#e1ed5e" stroke-width="0.3" x1="58.13341422392154" x2="55.67067388415222" y1="173.97424548756322" y2="178.32567169271397" /><path d="M 57.64086615596768 174.84453072859336 a86.0,86.0 0 0,1 -31.369924170532247,-30.572349798747897" fill="none" id="id20" stroke="none" /><text fill="#e1ed5e" style="font-size:6.75px; font-family:Arial;" text-anchor="middle"><textPath startOffset="22.145653131862474" xlink:href="#id20">August</textPath></text><path d="M 89.65649057296885 118.27599006163327 l -14.89035483441197 26.309830226162994 a51.231272444675824,51.231272444675824 0 0,0 -0.7616566256344641,-0.4397426578401232 l 15.339803927906834 -26.050340671046698" fill="red" stroke="none" /><path d="M 89.34428304082925 118.09573695890944 l -15.98780708429241 27.150791697610845 a52.5083396130549,52.5083396130549 0 0,0 -0.7727908467596821,-0.4640386993946764 l 16.45153068760952 -26.87233899768025" fill="red" stroke="none" /><path d="M 88.72937992617639 117.7192867562869 l -16.28933702885316 25.609543396322717 a51.351132002080305,51.351132002080305 0 0,0 -0.73973596335696,-0.4794879142116247 l 16.72655862446713 -25.326141640407197" fill="red" stroke="none" /><path d="M 88.4268655584334 117.5232005979908 l -11.16286981828086 16.902007668072496 a41.25555543033731,41.25555543033731 0 0,0 -0.587604274563506,-0.3953663798718995 l 11.451370380941372 -16.707891614143477" fill="red" stroke="none" /><path d="M 87.83215693770417 117.11559508785305 l -14.082803520540928 19.809226789443102 a45.30495465936421,45.30495465936421 0 0,0 -0.6299955754610175,-0.4560682127603734 l 14.420780106375899 -19.56455780530966" fill="red" stroke="none" /><path d="M 87.2517909369889 116.68781488649013 l -19.8142725232313 25.93751877960267 a53.63985716983333,53.63985716983333 0 0,0 -0.7269223772248243,-0.565259237280713 l 20.256604845091353 -25.593558490701163" fill="red" stroke="none" /><path d="M 86.96720088162412 116.46651593811092 l -16.91409993730056 21.370412730728 a48.25401469454825,48.25401469454825 0 0,0 -0.6451084501314427,-0.5196537025947583 l 17.278459157787264 -21.07691073433983" fill="red" stroke="none" /><path d="M 86.13680546590413 115.77377054828092 l -13.170045831995282 14.985094564842711 a40.95001670009664,40.95001670009664 0 0,0 -0.5240334114039517,-0.4685939078277795 l 13.425344270222604 -14.75680512713155" fill="red" stroke="none" /><path d="M 83.20337586046588 112.60449989151573 l -34.53143379866325 25.913031687402274 a64.17296760038366,64.17296760038366 0 0,0 -0.65364134128735,-0.8867900149106638 l 34.971177159534435 -25.31643536322273" fill="red" stroke="none" /><path d="M 82.78059297857968 112.02048342749411 l -19.46607052694704 13.588829039032605 a44.739927893996054,44.739927893996054 0 0,0 -0.4342122132827961,-0.6335285957688072 l 19.69647247704516 -13.252665708193746" fill="red" stroke="none" /><path d="M 82.37810715431573 111.42229804090323 l -20.404845016485748 13.22617401534249 a45.31644256939991,45.31644256939991 0 0,0 -0.4175204721728706,-0.6564115305628934 l 20.62888318028451 -12.873948810100925" fill="red" stroke="none" /><path d="M 82.18462484594161 111.11811171558189 l -25.800267471853758 16.101275081968655 a51.412248533846025,51.412248533846025 0 0,0 -0.4608301044500226,-0.752731342892253 l 26.072865540759185 -15.656006622951844" fill="red" stroke="none" /><line stroke="#e1ed5e" stroke-width="0.3" x1="26.387840678322732" x2="22.057713659400548" y1="142.50000000000003" y2="145.00000000000006" /><path d="M 25.521815274538298 143.00000000000003 a86.0,86.0 0 0,1 -11.493303480769221,-40.785679425670985" fill="none" id="id21" stroke="none" /><text fill="#e1ed5e" style="font-size:6.75px; font-family:Arial;" text-anchor="middle"><textPath startOffset="21.40746469413373" xlink:href="#id21">September</textPath></text><path d="M 81.4637452351635 109.86951160357371 l -33.41742384579023 17.79289595399974 a58.85909881282239,58.85909881282239 0 0,0 -0.46720651616683984,-0.8959300982381891 l 33.717938430932016 -17.21661961265705" fill="red" stroke="none" /><path d="M 81.1358732173502 109.22738970284198 l -48.921790170519174 23.9300990745692 a75.46091438093015,75.46091438093015 0 0,0 -0.559203975761138,-1.1685212352101921 l 49.325373404240224 -23.086765337293905" fill="red" stroke="none" /><path d="M 80.9802524753101 108.90220220490708 l -34.452034002048514 16.125291498135716 a59.03902828383179,59.03902828383179 0 0,0 -0.4217510201160241,-0.9216020928942223 l 34.723769487019595 -15.531500423026806" fill="red" stroke="none" /><path d="M 80.68587082218212 108.24405325689762 l -35.73080114131722 15.251354322458646 a59.84963267354704,59.84963267354704 0 0,0 -0.3952189174193189,-0.9483815274113022 l 35.987345903273024 -14.635740285606062" fill="red" stroke="none" /><path d="M 80.41425534168474 107.57618678355246 l -40.84285955814588 15.798895481645229 a64.79205721733541,64.79205721733541 0 0,0 -0.39236007669449924,-1.0407817186134818 l 41.10805031865482 -15.095445482837603" fill="red" stroke="none" /><path d="M 80.16572619554312 106.89939002012753 l -51.54336324608261 17.929457336820718 a75.57273802101645,75.57273802101645 0 0,0 -0.4157025225295068,-1.2289506423609513 l 51.843551190184485 -17.042005019985606" fill="red" stroke="none" /><path d="M 80.05021161711548 106.5578916946017 l -44.08724507339048 14.492353139580183 a67.40811866132361,67.40811866132361 0 0,0 -0.35191944039784506,-1.1023826347097 l 44.32952922956558 -13.733401471179093" fill="red" stroke="none" /><path d="M 79.83685265289637 105.86919833188381 l -53.52227016492136 15.579552803085324 a76.74366214334106,76.74366214334106 0 0,0 -0.3573386194331066,-1.2680686978288092 l 53.78182727642904 -14.65847618135352" fill="red" stroke="none" /><path d="M 79.64726062577567 105.17358676015961 l -52.07118234844105 13.236290930199079 a74.7271572740776,74.7271572740776 0 0,0 -0.3053582000997403,-1.2459656601482263 l 52.29072807505709 -12.340469445442753" fill="red" stroke="none" /><path d="M 79.48165901384964 104.47187691870673 l -61.555022958451104 13.41563075612019 a84.0,84.0 0 0,0 -0.29496915670253276,-1.4115341948583637 l 61.776249825978 -12.35698010997642" fill="red" stroke="none" /><path d="M 79.407916724674 104.11899336999214 l -46.93077855583368 9.387470084276256 a68.86044891598783,68.86044891598783 0 0,0 -0.22190675682190597,-1.1611099205621795 l 47.08501160493775 -8.580457598680761" fill="red" stroke="none" /><path d="M 79.22317932658666 103.0534771498775 l -48.85490962089372 7.179989303061232 a70.37969664201844,70.37969664201844 0 0,0 -0.16541066440306215,-1.1968291683902839 l 48.970964801852 -6.340271826470863" fill="red" stroke="none" /><path d="M 79.13060592940153 102.33845913500099 l -45.898084155606064 5.142976063877781 a67.18532593745243,67.18532593745243 0 0,0 -0.11859044251622988,-1.1472549547675102 l 45.97960699060396 -4.35431658682734" fill="red" stroke="none" /><path d="M 79.0935383218832 101.97986365728391 l -61.74687045935594 5.8474928304801725 a83.02313426397444,83.02313426397444 0 0,0 -0.12218782439897705,-1.4200077337392443 l 61.83815190645266 -4.786664049365266" fill="red" stroke="none" /><path d="M 79.06263194458094 101.62068470465958 l -34.64947788852685 2.682088727185613 a55.75312817413718,55.75312817413718 0 0,0 -0.06567197827069074,-0.9548561510378184 l 34.690413827962615 -2.0868891519934514" fill="red" stroke="none" /><line stroke="#e1ed5e" stroke-width="0.3" x1="15.003131293944662" x2="10.003315487706104" y1="100.72959589197737" y2="100.7725132973878" /><path d="M 14.003168132696942 100.73817937305945 a86.0,86.0 0 0,1 10.791469493833604,-42.45332614584628" fill="none" id="id22" stroke="none" /><text fill="#e1ed5e" style="font-size:6.75px; font-family:Arial;" text-anchor="middle"><textPath startOffset="22.145653131862435" xlink:href="#id22">October</textPath></text><path d="M 79.00077361379809 100.18025310272382 l -10.002213121722146 0.08585696997295095 a31.00258160434813,31.00258160434813 0 0,0 0.0,-0.5322201453935334 l 10.002213121722146 0.08585696997294727" fill="red" stroke="none" /><path d="M 79.01933749520258 99.09900007780938 l -22.953426758274194 -0.9857189075170669 a43.97458251442438,43.97458251442438 0 0,0 0.03886182646564814,-0.7539090514131432 l 22.933123342351973 1.3795997523069221" fill="red" stroke="none" /><path d="M 79.0935383218832 98.0201363427161 l -22.638638095307886 -2.143902564928931 a43.73992640749381,43.73992640749381 0 0,0 0.0772064011882806,-0.7469018954954992 l 22.598499301637943 2.532208982707343" fill="red" stroke="none" /><path d="M 79.2786578344484 96.59031103205396 l -20.35993315951983 -3.350219253535766 a41.63373081405486,41.63373081405486 0 0,0 0.12209623384108363,-0.704218630983852 l 20.299422108186512 3.699230917440211" fill="red" stroke="none" /><path d="M 79.407916724674 95.88100663000787 l -20.890073298441656 -4.178599720312593 a42.30389302538063,42.30389302538063 0 0,0 0.14855171013012716,-0.7108737092970833 l 20.815263877487162 4.536589880895085" fill="red" stroke="none" /><path d="M 79.56144815229197 95.17655741523228 l -35.5851519638446 -8.397998970122067 a57.56267806099663,57.56267806099663 0 0,0 0.23521884689333986,-0.9597731639531458 l 35.43574559043496 9.007627958683331" fill="red" stroke="none" /><path d="M 79.73907114497095 94.47779374421319 l -35.41829746996676 -9.653414473612404 a57.71027385719702,57.71027385719702 0 0,0 0.26871417145455007,-0.9535717970397362 l 35.24736480643762 10.259994194555153" fill="red" stroke="none" /><path d="M 79.83685265289637 94.1308016681162 l -25.054326264787733 -7.292949230016298 a47.0941827435547,47.0941827435547 0 0,0 0.23260866383728826,-0.7742785900464806 l 24.925441280946814 7.721965423653502" fill="red" stroke="none" /><path d="M 80.16572619554312 93.10060997987247 l -21.793372056366476 -7.580866088317981 a44.07424096771603,44.07424096771603 0 0,0 0.254706780442109,-0.7124601967896905 l 21.660025105880425 7.9538612414885925" fill="red" stroke="none" /><path d="M 80.41425534168474 92.42381321644754 l -21.77412332391698 -8.422698663135288 a44.34639799401883,44.34639799401883 0 0,0 0.2807366147525788,-0.7076396599065391 l 21.62632803419827 8.795239340255408" fill="red" stroke="none" /><path d="M 80.5471966667186 92.08871423366112 l -33.80245881952387 -13.747165729508517 a57.49096857909064,57.49096857909064 0 0,0 0.37964340545167824,-0.9110059687550068 l 33.56148956953571 14.325404207704787" fill="red" stroke="none" /><path d="M 80.83023694016515 91.42560881287825 l -24.947223827228008 -11.158575902042482 a48.32906498304426,48.32906498304426 0 0,0 0.345243359356505,-0.7544190467002393 l 24.751996003016455 11.585183930957394" fill="red" stroke="none" /><path d="M 81.1358732173502 90.77261029715801 l -23.821258307650684 -11.652171136748425 a47.5183981333694,47.5183981333694 0 0,0 0.36471521596073253,-0.7296747449589807 l 23.617723178478208 12.059377737871175" fill="red" stroke="none" /><line stroke="#e1ed5e" stroke-width="0.3" x1="26.387840678322718" x2="22.05771365940052" y1="57.49999999999999" y2="54.99999999999999" /><path d="M 25.521815274538284 56.99999999999999 a86.0,86.0 0 0,1 29.574782752854787,-30.34633250058573" fill="none" id="id23" stroke="none" /><text fill="#e1ed5e" style="font-size:6.75px; font-family:Arial;" text-anchor="middle"><textPath startOffset="21.40746469413373" xlink:href="#id23">November</textPath></text><path d="M 82.37810715431573 88.57770195909679 l -11.436317851804002 -7.412883061866949 a34.6286536861278,34.6286536861278 0 0,0 0.3276127238338669,-0.49604741975311845 l 11.307380689049406 7.608110359959128" fill="red" stroke="none" /><path d="M 83.8745106332314 86.54754324733833 l -21.842734971538334 -18.22198637704678 a49.44548924807134,49.44548924807134 0 0,0 0.5493286405535981,-0.6471077573049189 l 21.526711767477625 18.594260916801254" fill="red" stroke="none" /><path d="M 84.58840730492382 85.73525988315684 l -27.913444461691814 -25.836267470212988 a59.03515608628863,59.03515608628863 0 0,0 0.694771163390232,-0.7378228989692962 l 27.46581746456531 26.311631829126792" fill="red" stroke="none" /><path d="M 84.83555147118756 85.47280134310135 l -15.888911813063821 -15.221218095188972 a43.00324973508748,43.00324973508748 0 0,0 0.5152469155598223,-0.5286887261401892 l 15.625278096353195 15.49172951339689" fill="red" stroke="none" /><path d="M 86.40962598614128 83.9905735841838 l -15.486365580898328 -18.242899714385874 a44.929707664206276,44.929707664206276 0 0,0 0.5922712495264134,-0.49409374121187527 l 15.170919997210005 18.50605563950963" fill="red" stroke="none" /><path d="M 87.83215693770416 82.88440491214696 l -22.47557432138963 -31.61470997631932 a59.78970646915356,59.78970646915356 0 0,0 0.8416252728362602,-0.5875198043523615 l 21.929553957379603 31.995874596476806" fill="red" stroke="none" /><path d="M 88.12776184653039 82.6780497279521 l -21.28380142847325 -31.053702358254302 a58.6474784467928,58.6474784467928 0 0,0 0.8353180236755973,-0.5620392453878903 l 20.74758711670066 31.4144912776993" fill="red" stroke="none" /><path d="M 88.4268655584334 82.4767994020092 l -18.525204481786556 -28.049520714735753 a54.614860008906696,54.614860008906696 0 0,0 0.7867514211888308,-0.509962765953594 l 18.0409674283407 28.36339732239325" fill="red" stroke="none" /><line stroke="#e1ed5e" stroke-width="0.3" x1="56.869717070023135" x2="54.33264160355391" y1="26.7553504044142" y2="22.446841604673864" /><path d="M 56.362301976729285 25.89364864446614 a86.0,86.0 0 0,1 42.16139366436587,-11.88097634709845" fill="none" id="id24" stroke="none" /><text fill="#e1ed5e" style="font-size:6.75px; font-family:Arial;" text-anchor="middle"><textPath startOffset="22.145653131862474" xlink:href="#id24">December</textPath></text><path d="M 90.28995756902619 81.37971332152246 l -17.233027732527507 -33.046602937000195 a58.270030996845335,58.270030996845335 0 0,0 0.8909009877615622,-0.45490039227191825 l 16.663199523052363 33.337561280944946" fill="red" stroke="none" /><path d="M 90.61103034731259 81.2157712731953 l -10.787872092952142 -21.582970694928626 a45.12887913501254,45.12887913501254 0 0,0 0.6959297604840664,-0.34041411933778165 l 10.415782083206022 21.76497856436362" fill="red" stroke="none" /><path d="M 91.92203290615298 80.6158196554323 l -14.343107983929304 -34.418237736307304 a58.28726103526008,58.28726103526008 0 0,0 0.9268938472453976,-0.37695965846084045 l 13.750159675493466 34.65938465134744" fill="red" stroke="none" /><path d="M 93.27111125876988 80.10723608172694 l -15.10239066655845 -44.64753448672054 a68.13262712376907,68.13262712376907 0 0,0 1.1111369340102062,-0.3652527801930038 l 14.333730994900485 44.900208188315574" fill="red" stroke="none" /><path d="M 94.30408787586887 79.78721728523814 l -10.058688082265991 -35.69473548249681 a58.08492075091622,58.08492075091622 0 0,0 0.9620483696382834,-0.2622105611839839 l 9.444458311693031 35.862146537824934" fill="red" stroke="none" /><path d="M 95.35216902796891 79.52079915486377 l -9.871873991069513 -43.49729828764451 a65.60346235910254,65.60346235910254 0 0,0 1.1003811925137577,-0.23982295936609876 l 9.123730381936637 43.66035270514432" fill="red" stroke="none" /><path d="M 95.70440661134978 79.44403061299748 l -4.8942249935120286 -23.4206383233467 a44.926548805879506,44.926548805879506 0 0,0 0.7562710902782145,-0.15127539866280623 l 4.491457417702837 23.501203118672375" fill="red" stroke="none" /><path d="M 96.76829788921471 79.25015418208739 l -5.316077315361431 -34.13302986117366 a55.54452786660534,55.54452786660534 0 0,0 0.943397076709165,-0.1386468826136971 l 4.7293551330445815 34.219257817086245" fill="red" stroke="none" /><path d="M 97.84075906011542 79.11130261209362 l -3.532576653702772 -34.174474629368895 a55.35656871702505,55.35656871702505 0 0,0 0.946071270573699,-0.08959393294992128 l 2.9454058197440576 34.230080317824005" fill="red" stroke="none" /></svg>